%TF.GenerationSoftware,KiCad,Pcbnew,8.0.4*%
%TF.CreationDate,2024-09-20T16:59:52-04:00*%
%TF.ProjectId,micropsu,6d696372-6f70-4737-952e-6b696361645f,rev?*%
%TF.SameCoordinates,Original*%
%TF.FileFunction,Drillmap*%
%TF.FilePolarity,Positive*%
%FSLAX45Y45*%
G04 Gerber Fmt 4.5, Leading zero omitted, Abs format (unit mm)*
G04 Created by KiCad (PCBNEW 8.0.4) date 2024-09-20 16:59:52*
%MOMM*%
%LPD*%
G01*
G04 APERTURE LIST*
%ADD10C,0.254000*%
%ADD11C,0.200000*%
%ADD12C,0.100000*%
%ADD13C,0.120000*%
%ADD14C,0.140000*%
%ADD15C,0.180000*%
G04 APERTURE END LIST*
D10*
X9000000Y-15300000D02*
X9000000Y-7500000D01*
X9000000Y-7500000D02*
X15200000Y-7500000D01*
X15200000Y-15300000D02*
X9000000Y-15300000D01*
X15200000Y-7500000D02*
X15200000Y-15300000D01*
D11*
D12*
X9515010Y-8540010D02*
X9585010Y-8610010D01*
X9585010Y-8540010D02*
X9515010Y-8610010D01*
X9585010Y-8540010D02*
X9515010Y-8540010D01*
X9515010Y-8610010D02*
G75*
G02*
X9515010Y-8540010I0J35000D01*
G01*
X9515010Y-8610010D02*
X9585010Y-8610010D01*
X9585010Y-8610010D02*
G75*
G03*
X9585010Y-8540010I0J35000D01*
G01*
X9515010Y-9190020D02*
X9585010Y-9260020D01*
X9585010Y-9190020D02*
X9515010Y-9260020D01*
X9585010Y-9190020D02*
X9515010Y-9190020D01*
X9515010Y-9260020D02*
G75*
G02*
X9515010Y-9190020I0J35000D01*
G01*
X9515010Y-9260020D02*
X9585010Y-9260020D01*
X9585010Y-9260020D02*
G75*
G03*
X9585010Y-9190020I0J35000D01*
G01*
X9965000Y-8540010D02*
X10035000Y-8610010D01*
X10035000Y-8540010D02*
X9965000Y-8610010D01*
X10035000Y-8540010D02*
X9965000Y-8540010D01*
X9965000Y-8610010D02*
G75*
G02*
X9965000Y-8540010I0J35000D01*
G01*
X9965000Y-8610010D02*
X10035000Y-8610010D01*
X10035000Y-8610010D02*
G75*
G03*
X10035000Y-8540010I0J35000D01*
G01*
X9965000Y-9190020D02*
X10035000Y-9260020D01*
X10035000Y-9190020D02*
X9965000Y-9260020D01*
X10035000Y-9190020D02*
X9965000Y-9190020D01*
X9965000Y-9260020D02*
G75*
G02*
X9965000Y-9190020I0J35000D01*
G01*
X9965000Y-9260020D02*
X10035000Y-9260020D01*
X10035000Y-9260020D02*
G75*
G03*
X10035000Y-9190020I0J35000D01*
G01*
X10415010Y-8540010D02*
X10485010Y-8610010D01*
X10485010Y-8540010D02*
X10415010Y-8610010D01*
X10485010Y-8540010D02*
X10415010Y-8540010D01*
X10415010Y-8610010D02*
G75*
G02*
X10415010Y-8540010I0J35000D01*
G01*
X10415010Y-8610010D02*
X10485010Y-8610010D01*
X10485010Y-8610010D02*
G75*
G03*
X10485010Y-8540010I0J35000D01*
G01*
X10415010Y-9190020D02*
X10485010Y-9260020D01*
X10485010Y-9190020D02*
X10415010Y-9260020D01*
X10485010Y-9190020D02*
X10415010Y-9190020D01*
X10415010Y-9260020D02*
G75*
G02*
X10415010Y-9190020I0J35000D01*
G01*
X10415010Y-9260020D02*
X10485010Y-9260020D01*
X10485010Y-9260020D02*
G75*
G03*
X10485010Y-9190020I0J35000D01*
G01*
X10764770Y-12416065D02*
G75*
G02*
X10684770Y-12416065I-40000J0D01*
G01*
X10684770Y-12416065D02*
G75*
G02*
X10764770Y-12416065I40000J0D01*
G01*
X10764770Y-12616065D02*
G75*
G02*
X10684770Y-12616065I-40000J0D01*
G01*
X10684770Y-12616065D02*
G75*
G02*
X10764770Y-12616065I40000J0D01*
G01*
X11238700Y-9359400D02*
G75*
G02*
X11158700Y-9359400I-40000J0D01*
G01*
X11158700Y-9359400D02*
G75*
G02*
X11238700Y-9359400I40000J0D01*
G01*
X11412470Y-12428765D02*
G75*
G02*
X11332470Y-12428765I-40000J0D01*
G01*
X11332470Y-12428765D02*
G75*
G02*
X11412470Y-12428765I40000J0D01*
G01*
X11412470Y-12628765D02*
G75*
G02*
X11332470Y-12628765I-40000J0D01*
G01*
X11332470Y-12628765D02*
G75*
G02*
X11412470Y-12628765I40000J0D01*
G01*
X11438700Y-9359400D02*
G75*
G02*
X11358700Y-9359400I-40000J0D01*
G01*
X11358700Y-9359400D02*
G75*
G02*
X11438700Y-9359400I40000J0D01*
G01*
X12047470Y-12428765D02*
G75*
G02*
X11967470Y-12428765I-40000J0D01*
G01*
X11967470Y-12428765D02*
G75*
G02*
X12047470Y-12428765I40000J0D01*
G01*
X12047470Y-12628765D02*
G75*
G02*
X11967470Y-12628765I-40000J0D01*
G01*
X11967470Y-12628765D02*
G75*
G02*
X12047470Y-12628765I40000J0D01*
G01*
X12490000Y-9850000D02*
G75*
G02*
X12410000Y-9850000I-40000J0D01*
G01*
X12410000Y-9850000D02*
G75*
G02*
X12490000Y-9850000I40000J0D01*
G01*
X12690000Y-9850000D02*
G75*
G02*
X12610000Y-9850000I-40000J0D01*
G01*
X12610000Y-9850000D02*
G75*
G02*
X12690000Y-9850000I40000J0D01*
G01*
X12992000Y-14005040D02*
X12992000Y-14094960D01*
X12947040Y-14050000D02*
X13036960Y-14050000D01*
X14008000Y-14005040D02*
X14008000Y-14094960D01*
X13963040Y-14050000D02*
X14052960Y-14050000D01*
X14484125Y-13884125D02*
X14484125Y-13815875D01*
X14415875Y-13815875D01*
X14415875Y-13884125D01*
X14484125Y-13884125D01*
X14738125Y-13884125D02*
X14738125Y-13815875D01*
X14669875Y-13815875D01*
X14669875Y-13884125D01*
X14738125Y-13884125D01*
X13127500Y-10132830D02*
X13177030Y-10083300D01*
X13127500Y-10033770D01*
X13077970Y-10083300D01*
X13127500Y-10132830D01*
X13127500Y-12672830D02*
X13177030Y-12623300D01*
X13127500Y-12573770D01*
X13077970Y-12623300D01*
X13127500Y-12672830D01*
X14651500Y-10132830D02*
X14701030Y-10083300D01*
X14651500Y-10033770D01*
X14601970Y-10083300D01*
X14651500Y-10132830D01*
X14651500Y-12672830D02*
X14701030Y-12623300D01*
X14651500Y-12573770D01*
X14601970Y-12623300D01*
X14651500Y-12672830D01*
D13*
X10984700Y-10225990D02*
X11104700Y-10345990D01*
X11104700Y-10225990D02*
X10984700Y-10345990D01*
X11104700Y-10285990D02*
G75*
G02*
X10984700Y-10285990I-60000J0D01*
G01*
X10984700Y-10285990D02*
G75*
G02*
X11104700Y-10285990I60000J0D01*
G01*
X11238720Y-10226990D02*
X11358720Y-10346990D01*
X11358720Y-10226990D02*
X11238720Y-10346990D01*
X11358720Y-10286990D02*
G75*
G02*
X11238720Y-10286990I-60000J0D01*
G01*
X11238720Y-10286990D02*
G75*
G02*
X11358720Y-10286990I60000J0D01*
G01*
X11492720Y-10226990D02*
X11612720Y-10346990D01*
X11612720Y-10226990D02*
X11492720Y-10346990D01*
X11612720Y-10286990D02*
G75*
G02*
X11492720Y-10286990I-60000J0D01*
G01*
X11492720Y-10286990D02*
G75*
G02*
X11612720Y-10286990I60000J0D01*
G01*
D14*
X9726000Y-11530000D02*
X9866000Y-11670000D01*
X9866000Y-11530000D02*
X9726000Y-11670000D01*
X9796000Y-11530000D02*
X9796000Y-11670000D01*
X9726000Y-11600000D02*
X9866000Y-11600000D01*
X9980000Y-11530000D02*
X10120000Y-11670000D01*
X10120000Y-11530000D02*
X9980000Y-11670000D01*
X10050000Y-11530000D02*
X10050000Y-11670000D01*
X9980000Y-11600000D02*
X10120000Y-11600000D01*
X10234000Y-11530000D02*
X10374000Y-11670000D01*
X10374000Y-11530000D02*
X10234000Y-11670000D01*
X10304000Y-11530000D02*
X10304000Y-11670000D01*
X10234000Y-11600000D02*
X10374000Y-11600000D01*
D15*
X9612010Y-13710000D02*
X9792010Y-13890000D01*
X9792010Y-13710000D02*
X9612010Y-13890000D01*
X9765650Y-13863640D02*
X9765650Y-13736360D01*
X9638370Y-13736360D01*
X9638370Y-13863640D01*
X9765650Y-13863640D01*
X10007990Y-13710000D02*
X10187990Y-13890000D01*
X10187990Y-13710000D02*
X10007990Y-13890000D01*
X10161630Y-13863640D02*
X10161630Y-13736360D01*
X10034350Y-13736360D01*
X10034350Y-13863640D01*
X10161630Y-13863640D01*
X10714020Y-13708765D02*
X10894020Y-13888765D01*
X10894020Y-13708765D02*
X10714020Y-13888765D01*
X10867660Y-13862405D02*
X10867660Y-13735125D01*
X10740380Y-13735125D01*
X10740380Y-13862405D01*
X10867660Y-13862405D01*
X11110010Y-13708765D02*
X11290010Y-13888765D01*
X11290010Y-13708765D02*
X11110010Y-13888765D01*
X11263650Y-13862405D02*
X11263650Y-13735125D01*
X11136370Y-13735125D01*
X11136370Y-13862405D01*
X11263650Y-13862405D01*
X11505990Y-13708765D02*
X11685990Y-13888765D01*
X11685990Y-13708765D02*
X11505990Y-13888765D01*
X11659630Y-13862405D02*
X11659630Y-13735125D01*
X11532350Y-13735125D01*
X11532350Y-13862405D01*
X11659630Y-13862405D01*
X11901980Y-13708765D02*
X12081980Y-13888765D01*
X12081980Y-13708765D02*
X11901980Y-13888765D01*
X12055620Y-13862405D02*
X12055620Y-13735125D01*
X11928340Y-13735125D01*
X11928340Y-13862405D01*
X12055620Y-13862405D01*
D11*
X9248077Y-15624184D02*
X9248077Y-15424184D01*
X9248077Y-15424184D02*
X9295696Y-15424184D01*
X9295696Y-15424184D02*
X9324267Y-15433708D01*
X9324267Y-15433708D02*
X9343315Y-15452755D01*
X9343315Y-15452755D02*
X9352839Y-15471803D01*
X9352839Y-15471803D02*
X9362363Y-15509898D01*
X9362363Y-15509898D02*
X9362363Y-15538469D01*
X9362363Y-15538469D02*
X9352839Y-15576565D01*
X9352839Y-15576565D02*
X9343315Y-15595612D01*
X9343315Y-15595612D02*
X9324267Y-15614660D01*
X9324267Y-15614660D02*
X9295696Y-15624184D01*
X9295696Y-15624184D02*
X9248077Y-15624184D01*
X9448077Y-15624184D02*
X9448077Y-15490850D01*
X9448077Y-15528946D02*
X9457601Y-15509898D01*
X9457601Y-15509898D02*
X9467124Y-15500374D01*
X9467124Y-15500374D02*
X9486172Y-15490850D01*
X9486172Y-15490850D02*
X9505220Y-15490850D01*
X9571886Y-15624184D02*
X9571886Y-15490850D01*
X9571886Y-15424184D02*
X9562363Y-15433708D01*
X9562363Y-15433708D02*
X9571886Y-15443231D01*
X9571886Y-15443231D02*
X9581410Y-15433708D01*
X9581410Y-15433708D02*
X9571886Y-15424184D01*
X9571886Y-15424184D02*
X9571886Y-15443231D01*
X9695696Y-15624184D02*
X9676648Y-15614660D01*
X9676648Y-15614660D02*
X9667124Y-15595612D01*
X9667124Y-15595612D02*
X9667124Y-15424184D01*
X9800458Y-15624184D02*
X9781410Y-15614660D01*
X9781410Y-15614660D02*
X9771886Y-15595612D01*
X9771886Y-15595612D02*
X9771886Y-15424184D01*
X10029029Y-15624184D02*
X10029029Y-15424184D01*
X10029029Y-15424184D02*
X10095696Y-15567041D01*
X10095696Y-15567041D02*
X10162363Y-15424184D01*
X10162363Y-15424184D02*
X10162363Y-15624184D01*
X10343315Y-15624184D02*
X10343315Y-15519422D01*
X10343315Y-15519422D02*
X10333791Y-15500374D01*
X10333791Y-15500374D02*
X10314744Y-15490850D01*
X10314744Y-15490850D02*
X10276648Y-15490850D01*
X10276648Y-15490850D02*
X10257601Y-15500374D01*
X10343315Y-15614660D02*
X10324267Y-15624184D01*
X10324267Y-15624184D02*
X10276648Y-15624184D01*
X10276648Y-15624184D02*
X10257601Y-15614660D01*
X10257601Y-15614660D02*
X10248077Y-15595612D01*
X10248077Y-15595612D02*
X10248077Y-15576565D01*
X10248077Y-15576565D02*
X10257601Y-15557517D01*
X10257601Y-15557517D02*
X10276648Y-15547993D01*
X10276648Y-15547993D02*
X10324267Y-15547993D01*
X10324267Y-15547993D02*
X10343315Y-15538469D01*
X10438553Y-15490850D02*
X10438553Y-15690850D01*
X10438553Y-15500374D02*
X10457601Y-15490850D01*
X10457601Y-15490850D02*
X10495696Y-15490850D01*
X10495696Y-15490850D02*
X10514744Y-15500374D01*
X10514744Y-15500374D02*
X10524267Y-15509898D01*
X10524267Y-15509898D02*
X10533791Y-15528946D01*
X10533791Y-15528946D02*
X10533791Y-15586088D01*
X10533791Y-15586088D02*
X10524267Y-15605136D01*
X10524267Y-15605136D02*
X10514744Y-15614660D01*
X10514744Y-15614660D02*
X10495696Y-15624184D01*
X10495696Y-15624184D02*
X10457601Y-15624184D01*
X10457601Y-15624184D02*
X10438553Y-15614660D01*
X10619505Y-15605136D02*
X10629029Y-15614660D01*
X10629029Y-15614660D02*
X10619505Y-15624184D01*
X10619505Y-15624184D02*
X10609982Y-15614660D01*
X10609982Y-15614660D02*
X10619505Y-15605136D01*
X10619505Y-15605136D02*
X10619505Y-15624184D01*
X10619505Y-15500374D02*
X10629029Y-15509898D01*
X10629029Y-15509898D02*
X10619505Y-15519422D01*
X10619505Y-15519422D02*
X10609982Y-15509898D01*
X10609982Y-15509898D02*
X10619505Y-15500374D01*
X10619505Y-15500374D02*
X10619505Y-15519422D01*
D12*
X8917300Y-15917700D02*
X8987300Y-15987700D01*
X8987300Y-15917700D02*
X8917300Y-15987700D01*
D11*
X9286172Y-15844184D02*
X9305220Y-15844184D01*
X9305220Y-15844184D02*
X9324267Y-15853708D01*
X9324267Y-15853708D02*
X9333791Y-15863231D01*
X9333791Y-15863231D02*
X9343315Y-15882279D01*
X9343315Y-15882279D02*
X9352839Y-15920374D01*
X9352839Y-15920374D02*
X9352839Y-15967993D01*
X9352839Y-15967993D02*
X9343315Y-16006088D01*
X9343315Y-16006088D02*
X9333791Y-16025136D01*
X9333791Y-16025136D02*
X9324267Y-16034660D01*
X9324267Y-16034660D02*
X9305220Y-16044184D01*
X9305220Y-16044184D02*
X9286172Y-16044184D01*
X9286172Y-16044184D02*
X9267124Y-16034660D01*
X9267124Y-16034660D02*
X9257601Y-16025136D01*
X9257601Y-16025136D02*
X9248077Y-16006088D01*
X9248077Y-16006088D02*
X9238553Y-15967993D01*
X9238553Y-15967993D02*
X9238553Y-15920374D01*
X9238553Y-15920374D02*
X9248077Y-15882279D01*
X9248077Y-15882279D02*
X9257601Y-15863231D01*
X9257601Y-15863231D02*
X9267124Y-15853708D01*
X9267124Y-15853708D02*
X9286172Y-15844184D01*
X9438553Y-16025136D02*
X9448077Y-16034660D01*
X9448077Y-16034660D02*
X9438553Y-16044184D01*
X9438553Y-16044184D02*
X9429029Y-16034660D01*
X9429029Y-16034660D02*
X9438553Y-16025136D01*
X9438553Y-16025136D02*
X9438553Y-16044184D01*
X9514744Y-15844184D02*
X9648077Y-15844184D01*
X9648077Y-15844184D02*
X9562363Y-16044184D01*
X9762363Y-15844184D02*
X9781410Y-15844184D01*
X9781410Y-15844184D02*
X9800458Y-15853708D01*
X9800458Y-15853708D02*
X9809982Y-15863231D01*
X9809982Y-15863231D02*
X9819505Y-15882279D01*
X9819505Y-15882279D02*
X9829029Y-15920374D01*
X9829029Y-15920374D02*
X9829029Y-15967993D01*
X9829029Y-15967993D02*
X9819505Y-16006088D01*
X9819505Y-16006088D02*
X9809982Y-16025136D01*
X9809982Y-16025136D02*
X9800458Y-16034660D01*
X9800458Y-16034660D02*
X9781410Y-16044184D01*
X9781410Y-16044184D02*
X9762363Y-16044184D01*
X9762363Y-16044184D02*
X9743315Y-16034660D01*
X9743315Y-16034660D02*
X9733791Y-16025136D01*
X9733791Y-16025136D02*
X9724267Y-16006088D01*
X9724267Y-16006088D02*
X9714744Y-15967993D01*
X9714744Y-15967993D02*
X9714744Y-15920374D01*
X9714744Y-15920374D02*
X9724267Y-15882279D01*
X9724267Y-15882279D02*
X9733791Y-15863231D01*
X9733791Y-15863231D02*
X9743315Y-15853708D01*
X9743315Y-15853708D02*
X9762363Y-15844184D01*
X9952839Y-15844184D02*
X9971886Y-15844184D01*
X9971886Y-15844184D02*
X9990934Y-15853708D01*
X9990934Y-15853708D02*
X10000458Y-15863231D01*
X10000458Y-15863231D02*
X10009982Y-15882279D01*
X10009982Y-15882279D02*
X10019505Y-15920374D01*
X10019505Y-15920374D02*
X10019505Y-15967993D01*
X10019505Y-15967993D02*
X10009982Y-16006088D01*
X10009982Y-16006088D02*
X10000458Y-16025136D01*
X10000458Y-16025136D02*
X9990934Y-16034660D01*
X9990934Y-16034660D02*
X9971886Y-16044184D01*
X9971886Y-16044184D02*
X9952839Y-16044184D01*
X9952839Y-16044184D02*
X9933791Y-16034660D01*
X9933791Y-16034660D02*
X9924267Y-16025136D01*
X9924267Y-16025136D02*
X9914744Y-16006088D01*
X9914744Y-16006088D02*
X9905220Y-15967993D01*
X9905220Y-15967993D02*
X9905220Y-15920374D01*
X9905220Y-15920374D02*
X9914744Y-15882279D01*
X9914744Y-15882279D02*
X9924267Y-15863231D01*
X9924267Y-15863231D02*
X9933791Y-15853708D01*
X9933791Y-15853708D02*
X9952839Y-15844184D01*
X10105220Y-16044184D02*
X10105220Y-15910850D01*
X10105220Y-15929898D02*
X10114744Y-15920374D01*
X10114744Y-15920374D02*
X10133791Y-15910850D01*
X10133791Y-15910850D02*
X10162363Y-15910850D01*
X10162363Y-15910850D02*
X10181410Y-15920374D01*
X10181410Y-15920374D02*
X10190934Y-15939422D01*
X10190934Y-15939422D02*
X10190934Y-16044184D01*
X10190934Y-15939422D02*
X10200458Y-15920374D01*
X10200458Y-15920374D02*
X10219505Y-15910850D01*
X10219505Y-15910850D02*
X10248077Y-15910850D01*
X10248077Y-15910850D02*
X10267125Y-15920374D01*
X10267125Y-15920374D02*
X10276648Y-15939422D01*
X10276648Y-15939422D02*
X10276648Y-16044184D01*
X10371886Y-16044184D02*
X10371886Y-15910850D01*
X10371886Y-15929898D02*
X10381410Y-15920374D01*
X10381410Y-15920374D02*
X10400458Y-15910850D01*
X10400458Y-15910850D02*
X10429029Y-15910850D01*
X10429029Y-15910850D02*
X10448077Y-15920374D01*
X10448077Y-15920374D02*
X10457601Y-15939422D01*
X10457601Y-15939422D02*
X10457601Y-16044184D01*
X10457601Y-15939422D02*
X10467125Y-15920374D01*
X10467125Y-15920374D02*
X10486172Y-15910850D01*
X10486172Y-15910850D02*
X10514744Y-15910850D01*
X10514744Y-15910850D02*
X10533791Y-15920374D01*
X10533791Y-15920374D02*
X10543315Y-15939422D01*
X10543315Y-15939422D02*
X10543315Y-16044184D01*
X10933791Y-15834660D02*
X10762363Y-16091803D01*
X11190934Y-15844184D02*
X11209982Y-15844184D01*
X11209982Y-15844184D02*
X11229029Y-15853708D01*
X11229029Y-15853708D02*
X11238553Y-15863231D01*
X11238553Y-15863231D02*
X11248077Y-15882279D01*
X11248077Y-15882279D02*
X11257601Y-15920374D01*
X11257601Y-15920374D02*
X11257601Y-15967993D01*
X11257601Y-15967993D02*
X11248077Y-16006088D01*
X11248077Y-16006088D02*
X11238553Y-16025136D01*
X11238553Y-16025136D02*
X11229029Y-16034660D01*
X11229029Y-16034660D02*
X11209982Y-16044184D01*
X11209982Y-16044184D02*
X11190934Y-16044184D01*
X11190934Y-16044184D02*
X11171887Y-16034660D01*
X11171887Y-16034660D02*
X11162363Y-16025136D01*
X11162363Y-16025136D02*
X11152839Y-16006088D01*
X11152839Y-16006088D02*
X11143315Y-15967993D01*
X11143315Y-15967993D02*
X11143315Y-15920374D01*
X11143315Y-15920374D02*
X11152839Y-15882279D01*
X11152839Y-15882279D02*
X11162363Y-15863231D01*
X11162363Y-15863231D02*
X11171887Y-15853708D01*
X11171887Y-15853708D02*
X11190934Y-15844184D01*
X11343315Y-16025136D02*
X11352839Y-16034660D01*
X11352839Y-16034660D02*
X11343315Y-16044184D01*
X11343315Y-16044184D02*
X11333791Y-16034660D01*
X11333791Y-16034660D02*
X11343315Y-16025136D01*
X11343315Y-16025136D02*
X11343315Y-16044184D01*
X11476648Y-15844184D02*
X11495696Y-15844184D01*
X11495696Y-15844184D02*
X11514744Y-15853708D01*
X11514744Y-15853708D02*
X11524267Y-15863231D01*
X11524267Y-15863231D02*
X11533791Y-15882279D01*
X11533791Y-15882279D02*
X11543315Y-15920374D01*
X11543315Y-15920374D02*
X11543315Y-15967993D01*
X11543315Y-15967993D02*
X11533791Y-16006088D01*
X11533791Y-16006088D02*
X11524267Y-16025136D01*
X11524267Y-16025136D02*
X11514744Y-16034660D01*
X11514744Y-16034660D02*
X11495696Y-16044184D01*
X11495696Y-16044184D02*
X11476648Y-16044184D01*
X11476648Y-16044184D02*
X11457601Y-16034660D01*
X11457601Y-16034660D02*
X11448077Y-16025136D01*
X11448077Y-16025136D02*
X11438553Y-16006088D01*
X11438553Y-16006088D02*
X11429029Y-15967993D01*
X11429029Y-15967993D02*
X11429029Y-15920374D01*
X11429029Y-15920374D02*
X11438553Y-15882279D01*
X11438553Y-15882279D02*
X11448077Y-15863231D01*
X11448077Y-15863231D02*
X11457601Y-15853708D01*
X11457601Y-15853708D02*
X11476648Y-15844184D01*
X11619506Y-15863231D02*
X11629029Y-15853708D01*
X11629029Y-15853708D02*
X11648077Y-15844184D01*
X11648077Y-15844184D02*
X11695696Y-15844184D01*
X11695696Y-15844184D02*
X11714744Y-15853708D01*
X11714744Y-15853708D02*
X11724267Y-15863231D01*
X11724267Y-15863231D02*
X11733791Y-15882279D01*
X11733791Y-15882279D02*
X11733791Y-15901327D01*
X11733791Y-15901327D02*
X11724267Y-15929898D01*
X11724267Y-15929898D02*
X11609982Y-16044184D01*
X11609982Y-16044184D02*
X11733791Y-16044184D01*
X11800458Y-15844184D02*
X11933791Y-15844184D01*
X11933791Y-15844184D02*
X11848077Y-16044184D01*
X12095696Y-15844184D02*
X12057601Y-15844184D01*
X12057601Y-15844184D02*
X12038553Y-15853708D01*
X12038553Y-15853708D02*
X12029029Y-15863231D01*
X12029029Y-15863231D02*
X12009982Y-15891803D01*
X12009982Y-15891803D02*
X12000458Y-15929898D01*
X12000458Y-15929898D02*
X12000458Y-16006088D01*
X12000458Y-16006088D02*
X12009982Y-16025136D01*
X12009982Y-16025136D02*
X12019506Y-16034660D01*
X12019506Y-16034660D02*
X12038553Y-16044184D01*
X12038553Y-16044184D02*
X12076648Y-16044184D01*
X12076648Y-16044184D02*
X12095696Y-16034660D01*
X12095696Y-16034660D02*
X12105220Y-16025136D01*
X12105220Y-16025136D02*
X12114744Y-16006088D01*
X12114744Y-16006088D02*
X12114744Y-15958469D01*
X12114744Y-15958469D02*
X12105220Y-15939422D01*
X12105220Y-15939422D02*
X12095696Y-15929898D01*
X12095696Y-15929898D02*
X12076648Y-15920374D01*
X12076648Y-15920374D02*
X12038553Y-15920374D01*
X12038553Y-15920374D02*
X12019506Y-15929898D01*
X12019506Y-15929898D02*
X12009982Y-15939422D01*
X12009982Y-15939422D02*
X12000458Y-15958469D01*
X12190934Y-15844184D02*
X12190934Y-15882279D01*
X12267125Y-15844184D02*
X12267125Y-15882279D01*
X12562363Y-16120374D02*
X12552839Y-16110850D01*
X12552839Y-16110850D02*
X12533791Y-16082279D01*
X12533791Y-16082279D02*
X12524268Y-16063231D01*
X12524268Y-16063231D02*
X12514744Y-16034660D01*
X12514744Y-16034660D02*
X12505220Y-15987041D01*
X12505220Y-15987041D02*
X12505220Y-15948946D01*
X12505220Y-15948946D02*
X12514744Y-15901327D01*
X12514744Y-15901327D02*
X12524268Y-15872755D01*
X12524268Y-15872755D02*
X12533791Y-15853708D01*
X12533791Y-15853708D02*
X12552839Y-15825136D01*
X12552839Y-15825136D02*
X12562363Y-15815612D01*
X12676648Y-15844184D02*
X12695696Y-15844184D01*
X12695696Y-15844184D02*
X12714744Y-15853708D01*
X12714744Y-15853708D02*
X12724268Y-15863231D01*
X12724268Y-15863231D02*
X12733791Y-15882279D01*
X12733791Y-15882279D02*
X12743315Y-15920374D01*
X12743315Y-15920374D02*
X12743315Y-15967993D01*
X12743315Y-15967993D02*
X12733791Y-16006088D01*
X12733791Y-16006088D02*
X12724268Y-16025136D01*
X12724268Y-16025136D02*
X12714744Y-16034660D01*
X12714744Y-16034660D02*
X12695696Y-16044184D01*
X12695696Y-16044184D02*
X12676648Y-16044184D01*
X12676648Y-16044184D02*
X12657601Y-16034660D01*
X12657601Y-16034660D02*
X12648077Y-16025136D01*
X12648077Y-16025136D02*
X12638553Y-16006088D01*
X12638553Y-16006088D02*
X12629029Y-15967993D01*
X12629029Y-15967993D02*
X12629029Y-15920374D01*
X12629029Y-15920374D02*
X12638553Y-15882279D01*
X12638553Y-15882279D02*
X12648077Y-15863231D01*
X12648077Y-15863231D02*
X12657601Y-15853708D01*
X12657601Y-15853708D02*
X12676648Y-15844184D01*
X12981410Y-16044184D02*
X12981410Y-15844184D01*
X13067125Y-16044184D02*
X13067125Y-15939422D01*
X13067125Y-15939422D02*
X13057601Y-15920374D01*
X13057601Y-15920374D02*
X13038553Y-15910850D01*
X13038553Y-15910850D02*
X13009982Y-15910850D01*
X13009982Y-15910850D02*
X12990934Y-15920374D01*
X12990934Y-15920374D02*
X12981410Y-15929898D01*
X13190934Y-16044184D02*
X13171887Y-16034660D01*
X13171887Y-16034660D02*
X13162363Y-16025136D01*
X13162363Y-16025136D02*
X13152839Y-16006088D01*
X13152839Y-16006088D02*
X13152839Y-15948946D01*
X13152839Y-15948946D02*
X13162363Y-15929898D01*
X13162363Y-15929898D02*
X13171887Y-15920374D01*
X13171887Y-15920374D02*
X13190934Y-15910850D01*
X13190934Y-15910850D02*
X13219506Y-15910850D01*
X13219506Y-15910850D02*
X13238553Y-15920374D01*
X13238553Y-15920374D02*
X13248077Y-15929898D01*
X13248077Y-15929898D02*
X13257601Y-15948946D01*
X13257601Y-15948946D02*
X13257601Y-16006088D01*
X13257601Y-16006088D02*
X13248077Y-16025136D01*
X13248077Y-16025136D02*
X13238553Y-16034660D01*
X13238553Y-16034660D02*
X13219506Y-16044184D01*
X13219506Y-16044184D02*
X13190934Y-16044184D01*
X13371887Y-16044184D02*
X13352839Y-16034660D01*
X13352839Y-16034660D02*
X13343315Y-16015612D01*
X13343315Y-16015612D02*
X13343315Y-15844184D01*
X13524268Y-16034660D02*
X13505220Y-16044184D01*
X13505220Y-16044184D02*
X13467125Y-16044184D01*
X13467125Y-16044184D02*
X13448077Y-16034660D01*
X13448077Y-16034660D02*
X13438553Y-16015612D01*
X13438553Y-16015612D02*
X13438553Y-15939422D01*
X13438553Y-15939422D02*
X13448077Y-15920374D01*
X13448077Y-15920374D02*
X13467125Y-15910850D01*
X13467125Y-15910850D02*
X13505220Y-15910850D01*
X13505220Y-15910850D02*
X13524268Y-15920374D01*
X13524268Y-15920374D02*
X13533791Y-15939422D01*
X13533791Y-15939422D02*
X13533791Y-15958469D01*
X13533791Y-15958469D02*
X13438553Y-15977517D01*
X13609982Y-16034660D02*
X13629030Y-16044184D01*
X13629030Y-16044184D02*
X13667125Y-16044184D01*
X13667125Y-16044184D02*
X13686172Y-16034660D01*
X13686172Y-16034660D02*
X13695696Y-16015612D01*
X13695696Y-16015612D02*
X13695696Y-16006088D01*
X13695696Y-16006088D02*
X13686172Y-15987041D01*
X13686172Y-15987041D02*
X13667125Y-15977517D01*
X13667125Y-15977517D02*
X13638553Y-15977517D01*
X13638553Y-15977517D02*
X13619506Y-15967993D01*
X13619506Y-15967993D02*
X13609982Y-15948946D01*
X13609982Y-15948946D02*
X13609982Y-15939422D01*
X13609982Y-15939422D02*
X13619506Y-15920374D01*
X13619506Y-15920374D02*
X13638553Y-15910850D01*
X13638553Y-15910850D02*
X13667125Y-15910850D01*
X13667125Y-15910850D02*
X13686172Y-15920374D01*
X13933792Y-15967993D02*
X14086173Y-15967993D01*
X14009982Y-16044184D02*
X14009982Y-15891803D01*
X14419506Y-15844184D02*
X14381411Y-15844184D01*
X14381411Y-15844184D02*
X14362363Y-15853708D01*
X14362363Y-15853708D02*
X14352839Y-15863231D01*
X14352839Y-15863231D02*
X14333792Y-15891803D01*
X14333792Y-15891803D02*
X14324268Y-15929898D01*
X14324268Y-15929898D02*
X14324268Y-16006088D01*
X14324268Y-16006088D02*
X14333792Y-16025136D01*
X14333792Y-16025136D02*
X14343315Y-16034660D01*
X14343315Y-16034660D02*
X14362363Y-16044184D01*
X14362363Y-16044184D02*
X14400458Y-16044184D01*
X14400458Y-16044184D02*
X14419506Y-16034660D01*
X14419506Y-16034660D02*
X14429030Y-16025136D01*
X14429030Y-16025136D02*
X14438553Y-16006088D01*
X14438553Y-16006088D02*
X14438553Y-15958469D01*
X14438553Y-15958469D02*
X14429030Y-15939422D01*
X14429030Y-15939422D02*
X14419506Y-15929898D01*
X14419506Y-15929898D02*
X14400458Y-15920374D01*
X14400458Y-15920374D02*
X14362363Y-15920374D01*
X14362363Y-15920374D02*
X14343315Y-15929898D01*
X14343315Y-15929898D02*
X14333792Y-15939422D01*
X14333792Y-15939422D02*
X14324268Y-15958469D01*
X14667125Y-16034660D02*
X14686173Y-16044184D01*
X14686173Y-16044184D02*
X14724268Y-16044184D01*
X14724268Y-16044184D02*
X14743315Y-16034660D01*
X14743315Y-16034660D02*
X14752839Y-16015612D01*
X14752839Y-16015612D02*
X14752839Y-16006088D01*
X14752839Y-16006088D02*
X14743315Y-15987041D01*
X14743315Y-15987041D02*
X14724268Y-15977517D01*
X14724268Y-15977517D02*
X14695696Y-15977517D01*
X14695696Y-15977517D02*
X14676649Y-15967993D01*
X14676649Y-15967993D02*
X14667125Y-15948946D01*
X14667125Y-15948946D02*
X14667125Y-15939422D01*
X14667125Y-15939422D02*
X14676649Y-15920374D01*
X14676649Y-15920374D02*
X14695696Y-15910850D01*
X14695696Y-15910850D02*
X14724268Y-15910850D01*
X14724268Y-15910850D02*
X14743315Y-15920374D01*
X14867125Y-16044184D02*
X14848077Y-16034660D01*
X14848077Y-16034660D02*
X14838554Y-16015612D01*
X14838554Y-16015612D02*
X14838554Y-15844184D01*
X14971887Y-16044184D02*
X14952839Y-16034660D01*
X14952839Y-16034660D02*
X14943315Y-16025136D01*
X14943315Y-16025136D02*
X14933792Y-16006088D01*
X14933792Y-16006088D02*
X14933792Y-15948946D01*
X14933792Y-15948946D02*
X14943315Y-15929898D01*
X14943315Y-15929898D02*
X14952839Y-15920374D01*
X14952839Y-15920374D02*
X14971887Y-15910850D01*
X14971887Y-15910850D02*
X15000458Y-15910850D01*
X15000458Y-15910850D02*
X15019506Y-15920374D01*
X15019506Y-15920374D02*
X15029030Y-15929898D01*
X15029030Y-15929898D02*
X15038554Y-15948946D01*
X15038554Y-15948946D02*
X15038554Y-16006088D01*
X15038554Y-16006088D02*
X15029030Y-16025136D01*
X15029030Y-16025136D02*
X15019506Y-16034660D01*
X15019506Y-16034660D02*
X15000458Y-16044184D01*
X15000458Y-16044184D02*
X14971887Y-16044184D01*
X15095696Y-15910850D02*
X15171887Y-15910850D01*
X15124268Y-15844184D02*
X15124268Y-16015612D01*
X15124268Y-16015612D02*
X15133792Y-16034660D01*
X15133792Y-16034660D02*
X15152839Y-16044184D01*
X15152839Y-16044184D02*
X15171887Y-16044184D01*
X15229030Y-16034660D02*
X15248077Y-16044184D01*
X15248077Y-16044184D02*
X15286173Y-16044184D01*
X15286173Y-16044184D02*
X15305220Y-16034660D01*
X15305220Y-16034660D02*
X15314744Y-16015612D01*
X15314744Y-16015612D02*
X15314744Y-16006088D01*
X15314744Y-16006088D02*
X15305220Y-15987041D01*
X15305220Y-15987041D02*
X15286173Y-15977517D01*
X15286173Y-15977517D02*
X15257601Y-15977517D01*
X15257601Y-15977517D02*
X15238554Y-15967993D01*
X15238554Y-15967993D02*
X15229030Y-15948946D01*
X15229030Y-15948946D02*
X15229030Y-15939422D01*
X15229030Y-15939422D02*
X15238554Y-15920374D01*
X15238554Y-15920374D02*
X15257601Y-15910850D01*
X15257601Y-15910850D02*
X15286173Y-15910850D01*
X15286173Y-15910850D02*
X15305220Y-15920374D01*
X15381411Y-16120374D02*
X15390935Y-16110850D01*
X15390935Y-16110850D02*
X15409982Y-16082279D01*
X15409982Y-16082279D02*
X15419506Y-16063231D01*
X15419506Y-16063231D02*
X15429030Y-16034660D01*
X15429030Y-16034660D02*
X15438554Y-15987041D01*
X15438554Y-15987041D02*
X15438554Y-15948946D01*
X15438554Y-15948946D02*
X15429030Y-15901327D01*
X15429030Y-15901327D02*
X15419506Y-15872755D01*
X15419506Y-15872755D02*
X15409982Y-15853708D01*
X15409982Y-15853708D02*
X15390935Y-15825136D01*
X15390935Y-15825136D02*
X15381411Y-15815612D01*
D12*
X8987300Y-16216700D02*
G75*
G02*
X8907300Y-16216700I-40000J0D01*
G01*
X8907300Y-16216700D02*
G75*
G02*
X8987300Y-16216700I40000J0D01*
G01*
D11*
X9286172Y-16108184D02*
X9305220Y-16108184D01*
X9305220Y-16108184D02*
X9324267Y-16117708D01*
X9324267Y-16117708D02*
X9333791Y-16127231D01*
X9333791Y-16127231D02*
X9343315Y-16146279D01*
X9343315Y-16146279D02*
X9352839Y-16184374D01*
X9352839Y-16184374D02*
X9352839Y-16231993D01*
X9352839Y-16231993D02*
X9343315Y-16270088D01*
X9343315Y-16270088D02*
X9333791Y-16289136D01*
X9333791Y-16289136D02*
X9324267Y-16298660D01*
X9324267Y-16298660D02*
X9305220Y-16308184D01*
X9305220Y-16308184D02*
X9286172Y-16308184D01*
X9286172Y-16308184D02*
X9267124Y-16298660D01*
X9267124Y-16298660D02*
X9257601Y-16289136D01*
X9257601Y-16289136D02*
X9248077Y-16270088D01*
X9248077Y-16270088D02*
X9238553Y-16231993D01*
X9238553Y-16231993D02*
X9238553Y-16184374D01*
X9238553Y-16184374D02*
X9248077Y-16146279D01*
X9248077Y-16146279D02*
X9257601Y-16127231D01*
X9257601Y-16127231D02*
X9267124Y-16117708D01*
X9267124Y-16117708D02*
X9286172Y-16108184D01*
X9438553Y-16289136D02*
X9448077Y-16298660D01*
X9448077Y-16298660D02*
X9438553Y-16308184D01*
X9438553Y-16308184D02*
X9429029Y-16298660D01*
X9429029Y-16298660D02*
X9438553Y-16289136D01*
X9438553Y-16289136D02*
X9438553Y-16308184D01*
X9562363Y-16193898D02*
X9543315Y-16184374D01*
X9543315Y-16184374D02*
X9533791Y-16174850D01*
X9533791Y-16174850D02*
X9524267Y-16155803D01*
X9524267Y-16155803D02*
X9524267Y-16146279D01*
X9524267Y-16146279D02*
X9533791Y-16127231D01*
X9533791Y-16127231D02*
X9543315Y-16117708D01*
X9543315Y-16117708D02*
X9562363Y-16108184D01*
X9562363Y-16108184D02*
X9600458Y-16108184D01*
X9600458Y-16108184D02*
X9619505Y-16117708D01*
X9619505Y-16117708D02*
X9629029Y-16127231D01*
X9629029Y-16127231D02*
X9638553Y-16146279D01*
X9638553Y-16146279D02*
X9638553Y-16155803D01*
X9638553Y-16155803D02*
X9629029Y-16174850D01*
X9629029Y-16174850D02*
X9619505Y-16184374D01*
X9619505Y-16184374D02*
X9600458Y-16193898D01*
X9600458Y-16193898D02*
X9562363Y-16193898D01*
X9562363Y-16193898D02*
X9543315Y-16203422D01*
X9543315Y-16203422D02*
X9533791Y-16212946D01*
X9533791Y-16212946D02*
X9524267Y-16231993D01*
X9524267Y-16231993D02*
X9524267Y-16270088D01*
X9524267Y-16270088D02*
X9533791Y-16289136D01*
X9533791Y-16289136D02*
X9543315Y-16298660D01*
X9543315Y-16298660D02*
X9562363Y-16308184D01*
X9562363Y-16308184D02*
X9600458Y-16308184D01*
X9600458Y-16308184D02*
X9619505Y-16298660D01*
X9619505Y-16298660D02*
X9629029Y-16289136D01*
X9629029Y-16289136D02*
X9638553Y-16270088D01*
X9638553Y-16270088D02*
X9638553Y-16231993D01*
X9638553Y-16231993D02*
X9629029Y-16212946D01*
X9629029Y-16212946D02*
X9619505Y-16203422D01*
X9619505Y-16203422D02*
X9600458Y-16193898D01*
X9762363Y-16108184D02*
X9781410Y-16108184D01*
X9781410Y-16108184D02*
X9800458Y-16117708D01*
X9800458Y-16117708D02*
X9809982Y-16127231D01*
X9809982Y-16127231D02*
X9819505Y-16146279D01*
X9819505Y-16146279D02*
X9829029Y-16184374D01*
X9829029Y-16184374D02*
X9829029Y-16231993D01*
X9829029Y-16231993D02*
X9819505Y-16270088D01*
X9819505Y-16270088D02*
X9809982Y-16289136D01*
X9809982Y-16289136D02*
X9800458Y-16298660D01*
X9800458Y-16298660D02*
X9781410Y-16308184D01*
X9781410Y-16308184D02*
X9762363Y-16308184D01*
X9762363Y-16308184D02*
X9743315Y-16298660D01*
X9743315Y-16298660D02*
X9733791Y-16289136D01*
X9733791Y-16289136D02*
X9724267Y-16270088D01*
X9724267Y-16270088D02*
X9714744Y-16231993D01*
X9714744Y-16231993D02*
X9714744Y-16184374D01*
X9714744Y-16184374D02*
X9724267Y-16146279D01*
X9724267Y-16146279D02*
X9733791Y-16127231D01*
X9733791Y-16127231D02*
X9743315Y-16117708D01*
X9743315Y-16117708D02*
X9762363Y-16108184D01*
X9952839Y-16108184D02*
X9971886Y-16108184D01*
X9971886Y-16108184D02*
X9990934Y-16117708D01*
X9990934Y-16117708D02*
X10000458Y-16127231D01*
X10000458Y-16127231D02*
X10009982Y-16146279D01*
X10009982Y-16146279D02*
X10019505Y-16184374D01*
X10019505Y-16184374D02*
X10019505Y-16231993D01*
X10019505Y-16231993D02*
X10009982Y-16270088D01*
X10009982Y-16270088D02*
X10000458Y-16289136D01*
X10000458Y-16289136D02*
X9990934Y-16298660D01*
X9990934Y-16298660D02*
X9971886Y-16308184D01*
X9971886Y-16308184D02*
X9952839Y-16308184D01*
X9952839Y-16308184D02*
X9933791Y-16298660D01*
X9933791Y-16298660D02*
X9924267Y-16289136D01*
X9924267Y-16289136D02*
X9914744Y-16270088D01*
X9914744Y-16270088D02*
X9905220Y-16231993D01*
X9905220Y-16231993D02*
X9905220Y-16184374D01*
X9905220Y-16184374D02*
X9914744Y-16146279D01*
X9914744Y-16146279D02*
X9924267Y-16127231D01*
X9924267Y-16127231D02*
X9933791Y-16117708D01*
X9933791Y-16117708D02*
X9952839Y-16108184D01*
X10105220Y-16308184D02*
X10105220Y-16174850D01*
X10105220Y-16193898D02*
X10114744Y-16184374D01*
X10114744Y-16184374D02*
X10133791Y-16174850D01*
X10133791Y-16174850D02*
X10162363Y-16174850D01*
X10162363Y-16174850D02*
X10181410Y-16184374D01*
X10181410Y-16184374D02*
X10190934Y-16203422D01*
X10190934Y-16203422D02*
X10190934Y-16308184D01*
X10190934Y-16203422D02*
X10200458Y-16184374D01*
X10200458Y-16184374D02*
X10219505Y-16174850D01*
X10219505Y-16174850D02*
X10248077Y-16174850D01*
X10248077Y-16174850D02*
X10267125Y-16184374D01*
X10267125Y-16184374D02*
X10276648Y-16203422D01*
X10276648Y-16203422D02*
X10276648Y-16308184D01*
X10371886Y-16308184D02*
X10371886Y-16174850D01*
X10371886Y-16193898D02*
X10381410Y-16184374D01*
X10381410Y-16184374D02*
X10400458Y-16174850D01*
X10400458Y-16174850D02*
X10429029Y-16174850D01*
X10429029Y-16174850D02*
X10448077Y-16184374D01*
X10448077Y-16184374D02*
X10457601Y-16203422D01*
X10457601Y-16203422D02*
X10457601Y-16308184D01*
X10457601Y-16203422D02*
X10467125Y-16184374D01*
X10467125Y-16184374D02*
X10486172Y-16174850D01*
X10486172Y-16174850D02*
X10514744Y-16174850D01*
X10514744Y-16174850D02*
X10533791Y-16184374D01*
X10533791Y-16184374D02*
X10543315Y-16203422D01*
X10543315Y-16203422D02*
X10543315Y-16308184D01*
X10933791Y-16098660D02*
X10762363Y-16355803D01*
X11190934Y-16108184D02*
X11209982Y-16108184D01*
X11209982Y-16108184D02*
X11229029Y-16117708D01*
X11229029Y-16117708D02*
X11238553Y-16127231D01*
X11238553Y-16127231D02*
X11248077Y-16146279D01*
X11248077Y-16146279D02*
X11257601Y-16184374D01*
X11257601Y-16184374D02*
X11257601Y-16231993D01*
X11257601Y-16231993D02*
X11248077Y-16270088D01*
X11248077Y-16270088D02*
X11238553Y-16289136D01*
X11238553Y-16289136D02*
X11229029Y-16298660D01*
X11229029Y-16298660D02*
X11209982Y-16308184D01*
X11209982Y-16308184D02*
X11190934Y-16308184D01*
X11190934Y-16308184D02*
X11171887Y-16298660D01*
X11171887Y-16298660D02*
X11162363Y-16289136D01*
X11162363Y-16289136D02*
X11152839Y-16270088D01*
X11152839Y-16270088D02*
X11143315Y-16231993D01*
X11143315Y-16231993D02*
X11143315Y-16184374D01*
X11143315Y-16184374D02*
X11152839Y-16146279D01*
X11152839Y-16146279D02*
X11162363Y-16127231D01*
X11162363Y-16127231D02*
X11171887Y-16117708D01*
X11171887Y-16117708D02*
X11190934Y-16108184D01*
X11343315Y-16289136D02*
X11352839Y-16298660D01*
X11352839Y-16298660D02*
X11343315Y-16308184D01*
X11343315Y-16308184D02*
X11333791Y-16298660D01*
X11333791Y-16298660D02*
X11343315Y-16289136D01*
X11343315Y-16289136D02*
X11343315Y-16308184D01*
X11476648Y-16108184D02*
X11495696Y-16108184D01*
X11495696Y-16108184D02*
X11514744Y-16117708D01*
X11514744Y-16117708D02*
X11524267Y-16127231D01*
X11524267Y-16127231D02*
X11533791Y-16146279D01*
X11533791Y-16146279D02*
X11543315Y-16184374D01*
X11543315Y-16184374D02*
X11543315Y-16231993D01*
X11543315Y-16231993D02*
X11533791Y-16270088D01*
X11533791Y-16270088D02*
X11524267Y-16289136D01*
X11524267Y-16289136D02*
X11514744Y-16298660D01*
X11514744Y-16298660D02*
X11495696Y-16308184D01*
X11495696Y-16308184D02*
X11476648Y-16308184D01*
X11476648Y-16308184D02*
X11457601Y-16298660D01*
X11457601Y-16298660D02*
X11448077Y-16289136D01*
X11448077Y-16289136D02*
X11438553Y-16270088D01*
X11438553Y-16270088D02*
X11429029Y-16231993D01*
X11429029Y-16231993D02*
X11429029Y-16184374D01*
X11429029Y-16184374D02*
X11438553Y-16146279D01*
X11438553Y-16146279D02*
X11448077Y-16127231D01*
X11448077Y-16127231D02*
X11457601Y-16117708D01*
X11457601Y-16117708D02*
X11476648Y-16108184D01*
X11609982Y-16108184D02*
X11733791Y-16108184D01*
X11733791Y-16108184D02*
X11667125Y-16184374D01*
X11667125Y-16184374D02*
X11695696Y-16184374D01*
X11695696Y-16184374D02*
X11714744Y-16193898D01*
X11714744Y-16193898D02*
X11724267Y-16203422D01*
X11724267Y-16203422D02*
X11733791Y-16222469D01*
X11733791Y-16222469D02*
X11733791Y-16270088D01*
X11733791Y-16270088D02*
X11724267Y-16289136D01*
X11724267Y-16289136D02*
X11714744Y-16298660D01*
X11714744Y-16298660D02*
X11695696Y-16308184D01*
X11695696Y-16308184D02*
X11638553Y-16308184D01*
X11638553Y-16308184D02*
X11619506Y-16298660D01*
X11619506Y-16298660D02*
X11609982Y-16289136D01*
X11924267Y-16308184D02*
X11809982Y-16308184D01*
X11867125Y-16308184D02*
X11867125Y-16108184D01*
X11867125Y-16108184D02*
X11848077Y-16136755D01*
X11848077Y-16136755D02*
X11829029Y-16155803D01*
X11829029Y-16155803D02*
X11809982Y-16165327D01*
X12105220Y-16108184D02*
X12009982Y-16108184D01*
X12009982Y-16108184D02*
X12000458Y-16203422D01*
X12000458Y-16203422D02*
X12009982Y-16193898D01*
X12009982Y-16193898D02*
X12029029Y-16184374D01*
X12029029Y-16184374D02*
X12076648Y-16184374D01*
X12076648Y-16184374D02*
X12095696Y-16193898D01*
X12095696Y-16193898D02*
X12105220Y-16203422D01*
X12105220Y-16203422D02*
X12114744Y-16222469D01*
X12114744Y-16222469D02*
X12114744Y-16270088D01*
X12114744Y-16270088D02*
X12105220Y-16289136D01*
X12105220Y-16289136D02*
X12095696Y-16298660D01*
X12095696Y-16298660D02*
X12076648Y-16308184D01*
X12076648Y-16308184D02*
X12029029Y-16308184D01*
X12029029Y-16308184D02*
X12009982Y-16298660D01*
X12009982Y-16298660D02*
X12000458Y-16289136D01*
X12190934Y-16108184D02*
X12190934Y-16146279D01*
X12267125Y-16108184D02*
X12267125Y-16146279D01*
X12562363Y-16384374D02*
X12552839Y-16374850D01*
X12552839Y-16374850D02*
X12533791Y-16346279D01*
X12533791Y-16346279D02*
X12524268Y-16327231D01*
X12524268Y-16327231D02*
X12514744Y-16298660D01*
X12514744Y-16298660D02*
X12505220Y-16251041D01*
X12505220Y-16251041D02*
X12505220Y-16212946D01*
X12505220Y-16212946D02*
X12514744Y-16165327D01*
X12514744Y-16165327D02*
X12524268Y-16136755D01*
X12524268Y-16136755D02*
X12533791Y-16117708D01*
X12533791Y-16117708D02*
X12552839Y-16089136D01*
X12552839Y-16089136D02*
X12562363Y-16079612D01*
X12743315Y-16308184D02*
X12629029Y-16308184D01*
X12686172Y-16308184D02*
X12686172Y-16108184D01*
X12686172Y-16108184D02*
X12667125Y-16136755D01*
X12667125Y-16136755D02*
X12648077Y-16155803D01*
X12648077Y-16155803D02*
X12629029Y-16165327D01*
X12867125Y-16108184D02*
X12886172Y-16108184D01*
X12886172Y-16108184D02*
X12905220Y-16117708D01*
X12905220Y-16117708D02*
X12914744Y-16127231D01*
X12914744Y-16127231D02*
X12924268Y-16146279D01*
X12924268Y-16146279D02*
X12933791Y-16184374D01*
X12933791Y-16184374D02*
X12933791Y-16231993D01*
X12933791Y-16231993D02*
X12924268Y-16270088D01*
X12924268Y-16270088D02*
X12914744Y-16289136D01*
X12914744Y-16289136D02*
X12905220Y-16298660D01*
X12905220Y-16298660D02*
X12886172Y-16308184D01*
X12886172Y-16308184D02*
X12867125Y-16308184D01*
X12867125Y-16308184D02*
X12848077Y-16298660D01*
X12848077Y-16298660D02*
X12838553Y-16289136D01*
X12838553Y-16289136D02*
X12829029Y-16270088D01*
X12829029Y-16270088D02*
X12819506Y-16231993D01*
X12819506Y-16231993D02*
X12819506Y-16184374D01*
X12819506Y-16184374D02*
X12829029Y-16146279D01*
X12829029Y-16146279D02*
X12838553Y-16127231D01*
X12838553Y-16127231D02*
X12848077Y-16117708D01*
X12848077Y-16117708D02*
X12867125Y-16108184D01*
X13171887Y-16308184D02*
X13171887Y-16108184D01*
X13257601Y-16308184D02*
X13257601Y-16203422D01*
X13257601Y-16203422D02*
X13248077Y-16184374D01*
X13248077Y-16184374D02*
X13229030Y-16174850D01*
X13229030Y-16174850D02*
X13200458Y-16174850D01*
X13200458Y-16174850D02*
X13181410Y-16184374D01*
X13181410Y-16184374D02*
X13171887Y-16193898D01*
X13381410Y-16308184D02*
X13362363Y-16298660D01*
X13362363Y-16298660D02*
X13352839Y-16289136D01*
X13352839Y-16289136D02*
X13343315Y-16270088D01*
X13343315Y-16270088D02*
X13343315Y-16212946D01*
X13343315Y-16212946D02*
X13352839Y-16193898D01*
X13352839Y-16193898D02*
X13362363Y-16184374D01*
X13362363Y-16184374D02*
X13381410Y-16174850D01*
X13381410Y-16174850D02*
X13409982Y-16174850D01*
X13409982Y-16174850D02*
X13429030Y-16184374D01*
X13429030Y-16184374D02*
X13438553Y-16193898D01*
X13438553Y-16193898D02*
X13448077Y-16212946D01*
X13448077Y-16212946D02*
X13448077Y-16270088D01*
X13448077Y-16270088D02*
X13438553Y-16289136D01*
X13438553Y-16289136D02*
X13429030Y-16298660D01*
X13429030Y-16298660D02*
X13409982Y-16308184D01*
X13409982Y-16308184D02*
X13381410Y-16308184D01*
X13562363Y-16308184D02*
X13543315Y-16298660D01*
X13543315Y-16298660D02*
X13533791Y-16279612D01*
X13533791Y-16279612D02*
X13533791Y-16108184D01*
X13714744Y-16298660D02*
X13695696Y-16308184D01*
X13695696Y-16308184D02*
X13657601Y-16308184D01*
X13657601Y-16308184D02*
X13638553Y-16298660D01*
X13638553Y-16298660D02*
X13629030Y-16279612D01*
X13629030Y-16279612D02*
X13629030Y-16203422D01*
X13629030Y-16203422D02*
X13638553Y-16184374D01*
X13638553Y-16184374D02*
X13657601Y-16174850D01*
X13657601Y-16174850D02*
X13695696Y-16174850D01*
X13695696Y-16174850D02*
X13714744Y-16184374D01*
X13714744Y-16184374D02*
X13724268Y-16203422D01*
X13724268Y-16203422D02*
X13724268Y-16222469D01*
X13724268Y-16222469D02*
X13629030Y-16241517D01*
X13800458Y-16298660D02*
X13819506Y-16308184D01*
X13819506Y-16308184D02*
X13857601Y-16308184D01*
X13857601Y-16308184D02*
X13876649Y-16298660D01*
X13876649Y-16298660D02*
X13886172Y-16279612D01*
X13886172Y-16279612D02*
X13886172Y-16270088D01*
X13886172Y-16270088D02*
X13876649Y-16251041D01*
X13876649Y-16251041D02*
X13857601Y-16241517D01*
X13857601Y-16241517D02*
X13829030Y-16241517D01*
X13829030Y-16241517D02*
X13809982Y-16231993D01*
X13809982Y-16231993D02*
X13800458Y-16212946D01*
X13800458Y-16212946D02*
X13800458Y-16203422D01*
X13800458Y-16203422D02*
X13809982Y-16184374D01*
X13809982Y-16184374D02*
X13829030Y-16174850D01*
X13829030Y-16174850D02*
X13857601Y-16174850D01*
X13857601Y-16174850D02*
X13876649Y-16184374D01*
X13952839Y-16384374D02*
X13962363Y-16374850D01*
X13962363Y-16374850D02*
X13981411Y-16346279D01*
X13981411Y-16346279D02*
X13990934Y-16327231D01*
X13990934Y-16327231D02*
X14000458Y-16298660D01*
X14000458Y-16298660D02*
X14009982Y-16251041D01*
X14009982Y-16251041D02*
X14009982Y-16212946D01*
X14009982Y-16212946D02*
X14000458Y-16165327D01*
X14000458Y-16165327D02*
X13990934Y-16136755D01*
X13990934Y-16136755D02*
X13981411Y-16117708D01*
X13981411Y-16117708D02*
X13962363Y-16089136D01*
X13962363Y-16089136D02*
X13952839Y-16079612D01*
D12*
X8942340Y-16435740D02*
X8942340Y-16525660D01*
X8897380Y-16480700D02*
X8987300Y-16480700D01*
D11*
X9286172Y-16372184D02*
X9305220Y-16372184D01*
X9305220Y-16372184D02*
X9324267Y-16381708D01*
X9324267Y-16381708D02*
X9333791Y-16391231D01*
X9333791Y-16391231D02*
X9343315Y-16410279D01*
X9343315Y-16410279D02*
X9352839Y-16448374D01*
X9352839Y-16448374D02*
X9352839Y-16495993D01*
X9352839Y-16495993D02*
X9343315Y-16534088D01*
X9343315Y-16534088D02*
X9333791Y-16553136D01*
X9333791Y-16553136D02*
X9324267Y-16562660D01*
X9324267Y-16562660D02*
X9305220Y-16572184D01*
X9305220Y-16572184D02*
X9286172Y-16572184D01*
X9286172Y-16572184D02*
X9267124Y-16562660D01*
X9267124Y-16562660D02*
X9257601Y-16553136D01*
X9257601Y-16553136D02*
X9248077Y-16534088D01*
X9248077Y-16534088D02*
X9238553Y-16495993D01*
X9238553Y-16495993D02*
X9238553Y-16448374D01*
X9238553Y-16448374D02*
X9248077Y-16410279D01*
X9248077Y-16410279D02*
X9257601Y-16391231D01*
X9257601Y-16391231D02*
X9267124Y-16381708D01*
X9267124Y-16381708D02*
X9286172Y-16372184D01*
X9438553Y-16553136D02*
X9448077Y-16562660D01*
X9448077Y-16562660D02*
X9438553Y-16572184D01*
X9438553Y-16572184D02*
X9429029Y-16562660D01*
X9429029Y-16562660D02*
X9438553Y-16553136D01*
X9438553Y-16553136D02*
X9438553Y-16572184D01*
X9562363Y-16457898D02*
X9543315Y-16448374D01*
X9543315Y-16448374D02*
X9533791Y-16438850D01*
X9533791Y-16438850D02*
X9524267Y-16419803D01*
X9524267Y-16419803D02*
X9524267Y-16410279D01*
X9524267Y-16410279D02*
X9533791Y-16391231D01*
X9533791Y-16391231D02*
X9543315Y-16381708D01*
X9543315Y-16381708D02*
X9562363Y-16372184D01*
X9562363Y-16372184D02*
X9600458Y-16372184D01*
X9600458Y-16372184D02*
X9619505Y-16381708D01*
X9619505Y-16381708D02*
X9629029Y-16391231D01*
X9629029Y-16391231D02*
X9638553Y-16410279D01*
X9638553Y-16410279D02*
X9638553Y-16419803D01*
X9638553Y-16419803D02*
X9629029Y-16438850D01*
X9629029Y-16438850D02*
X9619505Y-16448374D01*
X9619505Y-16448374D02*
X9600458Y-16457898D01*
X9600458Y-16457898D02*
X9562363Y-16457898D01*
X9562363Y-16457898D02*
X9543315Y-16467422D01*
X9543315Y-16467422D02*
X9533791Y-16476946D01*
X9533791Y-16476946D02*
X9524267Y-16495993D01*
X9524267Y-16495993D02*
X9524267Y-16534088D01*
X9524267Y-16534088D02*
X9533791Y-16553136D01*
X9533791Y-16553136D02*
X9543315Y-16562660D01*
X9543315Y-16562660D02*
X9562363Y-16572184D01*
X9562363Y-16572184D02*
X9600458Y-16572184D01*
X9600458Y-16572184D02*
X9619505Y-16562660D01*
X9619505Y-16562660D02*
X9629029Y-16553136D01*
X9629029Y-16553136D02*
X9638553Y-16534088D01*
X9638553Y-16534088D02*
X9638553Y-16495993D01*
X9638553Y-16495993D02*
X9629029Y-16476946D01*
X9629029Y-16476946D02*
X9619505Y-16467422D01*
X9619505Y-16467422D02*
X9600458Y-16457898D01*
X9733791Y-16572184D02*
X9771886Y-16572184D01*
X9771886Y-16572184D02*
X9790934Y-16562660D01*
X9790934Y-16562660D02*
X9800458Y-16553136D01*
X9800458Y-16553136D02*
X9819505Y-16524565D01*
X9819505Y-16524565D02*
X9829029Y-16486469D01*
X9829029Y-16486469D02*
X9829029Y-16410279D01*
X9829029Y-16410279D02*
X9819505Y-16391231D01*
X9819505Y-16391231D02*
X9809982Y-16381708D01*
X9809982Y-16381708D02*
X9790934Y-16372184D01*
X9790934Y-16372184D02*
X9752839Y-16372184D01*
X9752839Y-16372184D02*
X9733791Y-16381708D01*
X9733791Y-16381708D02*
X9724267Y-16391231D01*
X9724267Y-16391231D02*
X9714744Y-16410279D01*
X9714744Y-16410279D02*
X9714744Y-16457898D01*
X9714744Y-16457898D02*
X9724267Y-16476946D01*
X9724267Y-16476946D02*
X9733791Y-16486469D01*
X9733791Y-16486469D02*
X9752839Y-16495993D01*
X9752839Y-16495993D02*
X9790934Y-16495993D01*
X9790934Y-16495993D02*
X9809982Y-16486469D01*
X9809982Y-16486469D02*
X9819505Y-16476946D01*
X9819505Y-16476946D02*
X9829029Y-16457898D01*
X9924267Y-16572184D02*
X9962363Y-16572184D01*
X9962363Y-16572184D02*
X9981410Y-16562660D01*
X9981410Y-16562660D02*
X9990934Y-16553136D01*
X9990934Y-16553136D02*
X10009982Y-16524565D01*
X10009982Y-16524565D02*
X10019505Y-16486469D01*
X10019505Y-16486469D02*
X10019505Y-16410279D01*
X10019505Y-16410279D02*
X10009982Y-16391231D01*
X10009982Y-16391231D02*
X10000458Y-16381708D01*
X10000458Y-16381708D02*
X9981410Y-16372184D01*
X9981410Y-16372184D02*
X9943315Y-16372184D01*
X9943315Y-16372184D02*
X9924267Y-16381708D01*
X9924267Y-16381708D02*
X9914744Y-16391231D01*
X9914744Y-16391231D02*
X9905220Y-16410279D01*
X9905220Y-16410279D02*
X9905220Y-16457898D01*
X9905220Y-16457898D02*
X9914744Y-16476946D01*
X9914744Y-16476946D02*
X9924267Y-16486469D01*
X9924267Y-16486469D02*
X9943315Y-16495993D01*
X9943315Y-16495993D02*
X9981410Y-16495993D01*
X9981410Y-16495993D02*
X10000458Y-16486469D01*
X10000458Y-16486469D02*
X10009982Y-16476946D01*
X10009982Y-16476946D02*
X10019505Y-16457898D01*
X10105220Y-16572184D02*
X10105220Y-16438850D01*
X10105220Y-16457898D02*
X10114744Y-16448374D01*
X10114744Y-16448374D02*
X10133791Y-16438850D01*
X10133791Y-16438850D02*
X10162363Y-16438850D01*
X10162363Y-16438850D02*
X10181410Y-16448374D01*
X10181410Y-16448374D02*
X10190934Y-16467422D01*
X10190934Y-16467422D02*
X10190934Y-16572184D01*
X10190934Y-16467422D02*
X10200458Y-16448374D01*
X10200458Y-16448374D02*
X10219505Y-16438850D01*
X10219505Y-16438850D02*
X10248077Y-16438850D01*
X10248077Y-16438850D02*
X10267125Y-16448374D01*
X10267125Y-16448374D02*
X10276648Y-16467422D01*
X10276648Y-16467422D02*
X10276648Y-16572184D01*
X10371886Y-16572184D02*
X10371886Y-16438850D01*
X10371886Y-16457898D02*
X10381410Y-16448374D01*
X10381410Y-16448374D02*
X10400458Y-16438850D01*
X10400458Y-16438850D02*
X10429029Y-16438850D01*
X10429029Y-16438850D02*
X10448077Y-16448374D01*
X10448077Y-16448374D02*
X10457601Y-16467422D01*
X10457601Y-16467422D02*
X10457601Y-16572184D01*
X10457601Y-16467422D02*
X10467125Y-16448374D01*
X10467125Y-16448374D02*
X10486172Y-16438850D01*
X10486172Y-16438850D02*
X10514744Y-16438850D01*
X10514744Y-16438850D02*
X10533791Y-16448374D01*
X10533791Y-16448374D02*
X10543315Y-16467422D01*
X10543315Y-16467422D02*
X10543315Y-16572184D01*
X10933791Y-16362660D02*
X10762363Y-16619803D01*
X11190934Y-16372184D02*
X11209982Y-16372184D01*
X11209982Y-16372184D02*
X11229029Y-16381708D01*
X11229029Y-16381708D02*
X11238553Y-16391231D01*
X11238553Y-16391231D02*
X11248077Y-16410279D01*
X11248077Y-16410279D02*
X11257601Y-16448374D01*
X11257601Y-16448374D02*
X11257601Y-16495993D01*
X11257601Y-16495993D02*
X11248077Y-16534088D01*
X11248077Y-16534088D02*
X11238553Y-16553136D01*
X11238553Y-16553136D02*
X11229029Y-16562660D01*
X11229029Y-16562660D02*
X11209982Y-16572184D01*
X11209982Y-16572184D02*
X11190934Y-16572184D01*
X11190934Y-16572184D02*
X11171887Y-16562660D01*
X11171887Y-16562660D02*
X11162363Y-16553136D01*
X11162363Y-16553136D02*
X11152839Y-16534088D01*
X11152839Y-16534088D02*
X11143315Y-16495993D01*
X11143315Y-16495993D02*
X11143315Y-16448374D01*
X11143315Y-16448374D02*
X11152839Y-16410279D01*
X11152839Y-16410279D02*
X11162363Y-16391231D01*
X11162363Y-16391231D02*
X11171887Y-16381708D01*
X11171887Y-16381708D02*
X11190934Y-16372184D01*
X11343315Y-16553136D02*
X11352839Y-16562660D01*
X11352839Y-16562660D02*
X11343315Y-16572184D01*
X11343315Y-16572184D02*
X11333791Y-16562660D01*
X11333791Y-16562660D02*
X11343315Y-16553136D01*
X11343315Y-16553136D02*
X11343315Y-16572184D01*
X11476648Y-16372184D02*
X11495696Y-16372184D01*
X11495696Y-16372184D02*
X11514744Y-16381708D01*
X11514744Y-16381708D02*
X11524267Y-16391231D01*
X11524267Y-16391231D02*
X11533791Y-16410279D01*
X11533791Y-16410279D02*
X11543315Y-16448374D01*
X11543315Y-16448374D02*
X11543315Y-16495993D01*
X11543315Y-16495993D02*
X11533791Y-16534088D01*
X11533791Y-16534088D02*
X11524267Y-16553136D01*
X11524267Y-16553136D02*
X11514744Y-16562660D01*
X11514744Y-16562660D02*
X11495696Y-16572184D01*
X11495696Y-16572184D02*
X11476648Y-16572184D01*
X11476648Y-16572184D02*
X11457601Y-16562660D01*
X11457601Y-16562660D02*
X11448077Y-16553136D01*
X11448077Y-16553136D02*
X11438553Y-16534088D01*
X11438553Y-16534088D02*
X11429029Y-16495993D01*
X11429029Y-16495993D02*
X11429029Y-16448374D01*
X11429029Y-16448374D02*
X11438553Y-16410279D01*
X11438553Y-16410279D02*
X11448077Y-16391231D01*
X11448077Y-16391231D02*
X11457601Y-16381708D01*
X11457601Y-16381708D02*
X11476648Y-16372184D01*
X11609982Y-16372184D02*
X11733791Y-16372184D01*
X11733791Y-16372184D02*
X11667125Y-16448374D01*
X11667125Y-16448374D02*
X11695696Y-16448374D01*
X11695696Y-16448374D02*
X11714744Y-16457898D01*
X11714744Y-16457898D02*
X11724267Y-16467422D01*
X11724267Y-16467422D02*
X11733791Y-16486469D01*
X11733791Y-16486469D02*
X11733791Y-16534088D01*
X11733791Y-16534088D02*
X11724267Y-16553136D01*
X11724267Y-16553136D02*
X11714744Y-16562660D01*
X11714744Y-16562660D02*
X11695696Y-16572184D01*
X11695696Y-16572184D02*
X11638553Y-16572184D01*
X11638553Y-16572184D02*
X11619506Y-16562660D01*
X11619506Y-16562660D02*
X11609982Y-16553136D01*
X11914744Y-16372184D02*
X11819506Y-16372184D01*
X11819506Y-16372184D02*
X11809982Y-16467422D01*
X11809982Y-16467422D02*
X11819506Y-16457898D01*
X11819506Y-16457898D02*
X11838553Y-16448374D01*
X11838553Y-16448374D02*
X11886172Y-16448374D01*
X11886172Y-16448374D02*
X11905220Y-16457898D01*
X11905220Y-16457898D02*
X11914744Y-16467422D01*
X11914744Y-16467422D02*
X11924267Y-16486469D01*
X11924267Y-16486469D02*
X11924267Y-16534088D01*
X11924267Y-16534088D02*
X11914744Y-16553136D01*
X11914744Y-16553136D02*
X11905220Y-16562660D01*
X11905220Y-16562660D02*
X11886172Y-16572184D01*
X11886172Y-16572184D02*
X11838553Y-16572184D01*
X11838553Y-16572184D02*
X11819506Y-16562660D01*
X11819506Y-16562660D02*
X11809982Y-16553136D01*
X12095696Y-16438850D02*
X12095696Y-16572184D01*
X12048077Y-16362660D02*
X12000458Y-16505517D01*
X12000458Y-16505517D02*
X12124267Y-16505517D01*
X12190934Y-16372184D02*
X12190934Y-16410279D01*
X12267125Y-16372184D02*
X12267125Y-16410279D01*
X12562363Y-16648374D02*
X12552839Y-16638850D01*
X12552839Y-16638850D02*
X12533791Y-16610279D01*
X12533791Y-16610279D02*
X12524268Y-16591231D01*
X12524268Y-16591231D02*
X12514744Y-16562660D01*
X12514744Y-16562660D02*
X12505220Y-16515041D01*
X12505220Y-16515041D02*
X12505220Y-16476946D01*
X12505220Y-16476946D02*
X12514744Y-16429327D01*
X12514744Y-16429327D02*
X12524268Y-16400755D01*
X12524268Y-16400755D02*
X12533791Y-16381708D01*
X12533791Y-16381708D02*
X12552839Y-16353136D01*
X12552839Y-16353136D02*
X12562363Y-16343612D01*
X12629029Y-16391231D02*
X12638553Y-16381708D01*
X12638553Y-16381708D02*
X12657601Y-16372184D01*
X12657601Y-16372184D02*
X12705220Y-16372184D01*
X12705220Y-16372184D02*
X12724268Y-16381708D01*
X12724268Y-16381708D02*
X12733791Y-16391231D01*
X12733791Y-16391231D02*
X12743315Y-16410279D01*
X12743315Y-16410279D02*
X12743315Y-16429327D01*
X12743315Y-16429327D02*
X12733791Y-16457898D01*
X12733791Y-16457898D02*
X12619506Y-16572184D01*
X12619506Y-16572184D02*
X12743315Y-16572184D01*
X12981410Y-16572184D02*
X12981410Y-16372184D01*
X13067125Y-16572184D02*
X13067125Y-16467422D01*
X13067125Y-16467422D02*
X13057601Y-16448374D01*
X13057601Y-16448374D02*
X13038553Y-16438850D01*
X13038553Y-16438850D02*
X13009982Y-16438850D01*
X13009982Y-16438850D02*
X12990934Y-16448374D01*
X12990934Y-16448374D02*
X12981410Y-16457898D01*
X13190934Y-16572184D02*
X13171887Y-16562660D01*
X13171887Y-16562660D02*
X13162363Y-16553136D01*
X13162363Y-16553136D02*
X13152839Y-16534088D01*
X13152839Y-16534088D02*
X13152839Y-16476946D01*
X13152839Y-16476946D02*
X13162363Y-16457898D01*
X13162363Y-16457898D02*
X13171887Y-16448374D01*
X13171887Y-16448374D02*
X13190934Y-16438850D01*
X13190934Y-16438850D02*
X13219506Y-16438850D01*
X13219506Y-16438850D02*
X13238553Y-16448374D01*
X13238553Y-16448374D02*
X13248077Y-16457898D01*
X13248077Y-16457898D02*
X13257601Y-16476946D01*
X13257601Y-16476946D02*
X13257601Y-16534088D01*
X13257601Y-16534088D02*
X13248077Y-16553136D01*
X13248077Y-16553136D02*
X13238553Y-16562660D01*
X13238553Y-16562660D02*
X13219506Y-16572184D01*
X13219506Y-16572184D02*
X13190934Y-16572184D01*
X13371887Y-16572184D02*
X13352839Y-16562660D01*
X13352839Y-16562660D02*
X13343315Y-16543612D01*
X13343315Y-16543612D02*
X13343315Y-16372184D01*
X13524268Y-16562660D02*
X13505220Y-16572184D01*
X13505220Y-16572184D02*
X13467125Y-16572184D01*
X13467125Y-16572184D02*
X13448077Y-16562660D01*
X13448077Y-16562660D02*
X13438553Y-16543612D01*
X13438553Y-16543612D02*
X13438553Y-16467422D01*
X13438553Y-16467422D02*
X13448077Y-16448374D01*
X13448077Y-16448374D02*
X13467125Y-16438850D01*
X13467125Y-16438850D02*
X13505220Y-16438850D01*
X13505220Y-16438850D02*
X13524268Y-16448374D01*
X13524268Y-16448374D02*
X13533791Y-16467422D01*
X13533791Y-16467422D02*
X13533791Y-16486469D01*
X13533791Y-16486469D02*
X13438553Y-16505517D01*
X13609982Y-16562660D02*
X13629030Y-16572184D01*
X13629030Y-16572184D02*
X13667125Y-16572184D01*
X13667125Y-16572184D02*
X13686172Y-16562660D01*
X13686172Y-16562660D02*
X13695696Y-16543612D01*
X13695696Y-16543612D02*
X13695696Y-16534088D01*
X13695696Y-16534088D02*
X13686172Y-16515041D01*
X13686172Y-16515041D02*
X13667125Y-16505517D01*
X13667125Y-16505517D02*
X13638553Y-16505517D01*
X13638553Y-16505517D02*
X13619506Y-16495993D01*
X13619506Y-16495993D02*
X13609982Y-16476946D01*
X13609982Y-16476946D02*
X13609982Y-16467422D01*
X13609982Y-16467422D02*
X13619506Y-16448374D01*
X13619506Y-16448374D02*
X13638553Y-16438850D01*
X13638553Y-16438850D02*
X13667125Y-16438850D01*
X13667125Y-16438850D02*
X13686172Y-16448374D01*
X13762363Y-16648374D02*
X13771887Y-16638850D01*
X13771887Y-16638850D02*
X13790934Y-16610279D01*
X13790934Y-16610279D02*
X13800458Y-16591231D01*
X13800458Y-16591231D02*
X13809982Y-16562660D01*
X13809982Y-16562660D02*
X13819506Y-16515041D01*
X13819506Y-16515041D02*
X13819506Y-16476946D01*
X13819506Y-16476946D02*
X13809982Y-16429327D01*
X13809982Y-16429327D02*
X13800458Y-16400755D01*
X13800458Y-16400755D02*
X13790934Y-16381708D01*
X13790934Y-16381708D02*
X13771887Y-16353136D01*
X13771887Y-16353136D02*
X13762363Y-16343612D01*
D12*
X8973165Y-16778825D02*
X8973165Y-16710575D01*
X8904915Y-16710575D01*
X8904915Y-16778825D01*
X8973165Y-16778825D01*
D11*
X9286172Y-16636184D02*
X9305220Y-16636184D01*
X9305220Y-16636184D02*
X9324267Y-16645708D01*
X9324267Y-16645708D02*
X9333791Y-16655231D01*
X9333791Y-16655231D02*
X9343315Y-16674279D01*
X9343315Y-16674279D02*
X9352839Y-16712374D01*
X9352839Y-16712374D02*
X9352839Y-16759993D01*
X9352839Y-16759993D02*
X9343315Y-16798089D01*
X9343315Y-16798089D02*
X9333791Y-16817136D01*
X9333791Y-16817136D02*
X9324267Y-16826660D01*
X9324267Y-16826660D02*
X9305220Y-16836184D01*
X9305220Y-16836184D02*
X9286172Y-16836184D01*
X9286172Y-16836184D02*
X9267124Y-16826660D01*
X9267124Y-16826660D02*
X9257601Y-16817136D01*
X9257601Y-16817136D02*
X9248077Y-16798089D01*
X9248077Y-16798089D02*
X9238553Y-16759993D01*
X9238553Y-16759993D02*
X9238553Y-16712374D01*
X9238553Y-16712374D02*
X9248077Y-16674279D01*
X9248077Y-16674279D02*
X9257601Y-16655231D01*
X9257601Y-16655231D02*
X9267124Y-16645708D01*
X9267124Y-16645708D02*
X9286172Y-16636184D01*
X9438553Y-16817136D02*
X9448077Y-16826660D01*
X9448077Y-16826660D02*
X9438553Y-16836184D01*
X9438553Y-16836184D02*
X9429029Y-16826660D01*
X9429029Y-16826660D02*
X9438553Y-16817136D01*
X9438553Y-16817136D02*
X9438553Y-16836184D01*
X9543315Y-16836184D02*
X9581410Y-16836184D01*
X9581410Y-16836184D02*
X9600458Y-16826660D01*
X9600458Y-16826660D02*
X9609982Y-16817136D01*
X9609982Y-16817136D02*
X9629029Y-16788565D01*
X9629029Y-16788565D02*
X9638553Y-16750469D01*
X9638553Y-16750469D02*
X9638553Y-16674279D01*
X9638553Y-16674279D02*
X9629029Y-16655231D01*
X9629029Y-16655231D02*
X9619505Y-16645708D01*
X9619505Y-16645708D02*
X9600458Y-16636184D01*
X9600458Y-16636184D02*
X9562363Y-16636184D01*
X9562363Y-16636184D02*
X9543315Y-16645708D01*
X9543315Y-16645708D02*
X9533791Y-16655231D01*
X9533791Y-16655231D02*
X9524267Y-16674279D01*
X9524267Y-16674279D02*
X9524267Y-16721898D01*
X9524267Y-16721898D02*
X9533791Y-16740946D01*
X9533791Y-16740946D02*
X9543315Y-16750469D01*
X9543315Y-16750469D02*
X9562363Y-16759993D01*
X9562363Y-16759993D02*
X9600458Y-16759993D01*
X9600458Y-16759993D02*
X9619505Y-16750469D01*
X9619505Y-16750469D02*
X9629029Y-16740946D01*
X9629029Y-16740946D02*
X9638553Y-16721898D01*
X9809982Y-16636184D02*
X9771886Y-16636184D01*
X9771886Y-16636184D02*
X9752839Y-16645708D01*
X9752839Y-16645708D02*
X9743315Y-16655231D01*
X9743315Y-16655231D02*
X9724267Y-16683803D01*
X9724267Y-16683803D02*
X9714744Y-16721898D01*
X9714744Y-16721898D02*
X9714744Y-16798089D01*
X9714744Y-16798089D02*
X9724267Y-16817136D01*
X9724267Y-16817136D02*
X9733791Y-16826660D01*
X9733791Y-16826660D02*
X9752839Y-16836184D01*
X9752839Y-16836184D02*
X9790934Y-16836184D01*
X9790934Y-16836184D02*
X9809982Y-16826660D01*
X9809982Y-16826660D02*
X9819505Y-16817136D01*
X9819505Y-16817136D02*
X9829029Y-16798089D01*
X9829029Y-16798089D02*
X9829029Y-16750469D01*
X9829029Y-16750469D02*
X9819505Y-16731422D01*
X9819505Y-16731422D02*
X9809982Y-16721898D01*
X9809982Y-16721898D02*
X9790934Y-16712374D01*
X9790934Y-16712374D02*
X9752839Y-16712374D01*
X9752839Y-16712374D02*
X9733791Y-16721898D01*
X9733791Y-16721898D02*
X9724267Y-16731422D01*
X9724267Y-16731422D02*
X9714744Y-16750469D01*
X10009982Y-16636184D02*
X9914744Y-16636184D01*
X9914744Y-16636184D02*
X9905220Y-16731422D01*
X9905220Y-16731422D02*
X9914744Y-16721898D01*
X9914744Y-16721898D02*
X9933791Y-16712374D01*
X9933791Y-16712374D02*
X9981410Y-16712374D01*
X9981410Y-16712374D02*
X10000458Y-16721898D01*
X10000458Y-16721898D02*
X10009982Y-16731422D01*
X10009982Y-16731422D02*
X10019505Y-16750469D01*
X10019505Y-16750469D02*
X10019505Y-16798089D01*
X10019505Y-16798089D02*
X10009982Y-16817136D01*
X10009982Y-16817136D02*
X10000458Y-16826660D01*
X10000458Y-16826660D02*
X9981410Y-16836184D01*
X9981410Y-16836184D02*
X9933791Y-16836184D01*
X9933791Y-16836184D02*
X9914744Y-16826660D01*
X9914744Y-16826660D02*
X9905220Y-16817136D01*
X10105220Y-16836184D02*
X10105220Y-16702850D01*
X10105220Y-16721898D02*
X10114744Y-16712374D01*
X10114744Y-16712374D02*
X10133791Y-16702850D01*
X10133791Y-16702850D02*
X10162363Y-16702850D01*
X10162363Y-16702850D02*
X10181410Y-16712374D01*
X10181410Y-16712374D02*
X10190934Y-16731422D01*
X10190934Y-16731422D02*
X10190934Y-16836184D01*
X10190934Y-16731422D02*
X10200458Y-16712374D01*
X10200458Y-16712374D02*
X10219505Y-16702850D01*
X10219505Y-16702850D02*
X10248077Y-16702850D01*
X10248077Y-16702850D02*
X10267125Y-16712374D01*
X10267125Y-16712374D02*
X10276648Y-16731422D01*
X10276648Y-16731422D02*
X10276648Y-16836184D01*
X10371886Y-16836184D02*
X10371886Y-16702850D01*
X10371886Y-16721898D02*
X10381410Y-16712374D01*
X10381410Y-16712374D02*
X10400458Y-16702850D01*
X10400458Y-16702850D02*
X10429029Y-16702850D01*
X10429029Y-16702850D02*
X10448077Y-16712374D01*
X10448077Y-16712374D02*
X10457601Y-16731422D01*
X10457601Y-16731422D02*
X10457601Y-16836184D01*
X10457601Y-16731422D02*
X10467125Y-16712374D01*
X10467125Y-16712374D02*
X10486172Y-16702850D01*
X10486172Y-16702850D02*
X10514744Y-16702850D01*
X10514744Y-16702850D02*
X10533791Y-16712374D01*
X10533791Y-16712374D02*
X10543315Y-16731422D01*
X10543315Y-16731422D02*
X10543315Y-16836184D01*
X10933791Y-16626660D02*
X10762363Y-16883803D01*
X11190934Y-16636184D02*
X11209982Y-16636184D01*
X11209982Y-16636184D02*
X11229029Y-16645708D01*
X11229029Y-16645708D02*
X11238553Y-16655231D01*
X11238553Y-16655231D02*
X11248077Y-16674279D01*
X11248077Y-16674279D02*
X11257601Y-16712374D01*
X11257601Y-16712374D02*
X11257601Y-16759993D01*
X11257601Y-16759993D02*
X11248077Y-16798089D01*
X11248077Y-16798089D02*
X11238553Y-16817136D01*
X11238553Y-16817136D02*
X11229029Y-16826660D01*
X11229029Y-16826660D02*
X11209982Y-16836184D01*
X11209982Y-16836184D02*
X11190934Y-16836184D01*
X11190934Y-16836184D02*
X11171887Y-16826660D01*
X11171887Y-16826660D02*
X11162363Y-16817136D01*
X11162363Y-16817136D02*
X11152839Y-16798089D01*
X11152839Y-16798089D02*
X11143315Y-16759993D01*
X11143315Y-16759993D02*
X11143315Y-16712374D01*
X11143315Y-16712374D02*
X11152839Y-16674279D01*
X11152839Y-16674279D02*
X11162363Y-16655231D01*
X11162363Y-16655231D02*
X11171887Y-16645708D01*
X11171887Y-16645708D02*
X11190934Y-16636184D01*
X11343315Y-16817136D02*
X11352839Y-16826660D01*
X11352839Y-16826660D02*
X11343315Y-16836184D01*
X11343315Y-16836184D02*
X11333791Y-16826660D01*
X11333791Y-16826660D02*
X11343315Y-16817136D01*
X11343315Y-16817136D02*
X11343315Y-16836184D01*
X11476648Y-16636184D02*
X11495696Y-16636184D01*
X11495696Y-16636184D02*
X11514744Y-16645708D01*
X11514744Y-16645708D02*
X11524267Y-16655231D01*
X11524267Y-16655231D02*
X11533791Y-16674279D01*
X11533791Y-16674279D02*
X11543315Y-16712374D01*
X11543315Y-16712374D02*
X11543315Y-16759993D01*
X11543315Y-16759993D02*
X11533791Y-16798089D01*
X11533791Y-16798089D02*
X11524267Y-16817136D01*
X11524267Y-16817136D02*
X11514744Y-16826660D01*
X11514744Y-16826660D02*
X11495696Y-16836184D01*
X11495696Y-16836184D02*
X11476648Y-16836184D01*
X11476648Y-16836184D02*
X11457601Y-16826660D01*
X11457601Y-16826660D02*
X11448077Y-16817136D01*
X11448077Y-16817136D02*
X11438553Y-16798089D01*
X11438553Y-16798089D02*
X11429029Y-16759993D01*
X11429029Y-16759993D02*
X11429029Y-16712374D01*
X11429029Y-16712374D02*
X11438553Y-16674279D01*
X11438553Y-16674279D02*
X11448077Y-16655231D01*
X11448077Y-16655231D02*
X11457601Y-16645708D01*
X11457601Y-16645708D02*
X11476648Y-16636184D01*
X11609982Y-16636184D02*
X11733791Y-16636184D01*
X11733791Y-16636184D02*
X11667125Y-16712374D01*
X11667125Y-16712374D02*
X11695696Y-16712374D01*
X11695696Y-16712374D02*
X11714744Y-16721898D01*
X11714744Y-16721898D02*
X11724267Y-16731422D01*
X11724267Y-16731422D02*
X11733791Y-16750469D01*
X11733791Y-16750469D02*
X11733791Y-16798089D01*
X11733791Y-16798089D02*
X11724267Y-16817136D01*
X11724267Y-16817136D02*
X11714744Y-16826660D01*
X11714744Y-16826660D02*
X11695696Y-16836184D01*
X11695696Y-16836184D02*
X11638553Y-16836184D01*
X11638553Y-16836184D02*
X11619506Y-16826660D01*
X11619506Y-16826660D02*
X11609982Y-16817136D01*
X11848077Y-16721898D02*
X11829029Y-16712374D01*
X11829029Y-16712374D02*
X11819506Y-16702850D01*
X11819506Y-16702850D02*
X11809982Y-16683803D01*
X11809982Y-16683803D02*
X11809982Y-16674279D01*
X11809982Y-16674279D02*
X11819506Y-16655231D01*
X11819506Y-16655231D02*
X11829029Y-16645708D01*
X11829029Y-16645708D02*
X11848077Y-16636184D01*
X11848077Y-16636184D02*
X11886172Y-16636184D01*
X11886172Y-16636184D02*
X11905220Y-16645708D01*
X11905220Y-16645708D02*
X11914744Y-16655231D01*
X11914744Y-16655231D02*
X11924267Y-16674279D01*
X11924267Y-16674279D02*
X11924267Y-16683803D01*
X11924267Y-16683803D02*
X11914744Y-16702850D01*
X11914744Y-16702850D02*
X11905220Y-16712374D01*
X11905220Y-16712374D02*
X11886172Y-16721898D01*
X11886172Y-16721898D02*
X11848077Y-16721898D01*
X11848077Y-16721898D02*
X11829029Y-16731422D01*
X11829029Y-16731422D02*
X11819506Y-16740946D01*
X11819506Y-16740946D02*
X11809982Y-16759993D01*
X11809982Y-16759993D02*
X11809982Y-16798089D01*
X11809982Y-16798089D02*
X11819506Y-16817136D01*
X11819506Y-16817136D02*
X11829029Y-16826660D01*
X11829029Y-16826660D02*
X11848077Y-16836184D01*
X11848077Y-16836184D02*
X11886172Y-16836184D01*
X11886172Y-16836184D02*
X11905220Y-16826660D01*
X11905220Y-16826660D02*
X11914744Y-16817136D01*
X11914744Y-16817136D02*
X11924267Y-16798089D01*
X11924267Y-16798089D02*
X11924267Y-16759993D01*
X11924267Y-16759993D02*
X11914744Y-16740946D01*
X11914744Y-16740946D02*
X11905220Y-16731422D01*
X11905220Y-16731422D02*
X11886172Y-16721898D01*
X12048077Y-16636184D02*
X12067125Y-16636184D01*
X12067125Y-16636184D02*
X12086172Y-16645708D01*
X12086172Y-16645708D02*
X12095696Y-16655231D01*
X12095696Y-16655231D02*
X12105220Y-16674279D01*
X12105220Y-16674279D02*
X12114744Y-16712374D01*
X12114744Y-16712374D02*
X12114744Y-16759993D01*
X12114744Y-16759993D02*
X12105220Y-16798089D01*
X12105220Y-16798089D02*
X12095696Y-16817136D01*
X12095696Y-16817136D02*
X12086172Y-16826660D01*
X12086172Y-16826660D02*
X12067125Y-16836184D01*
X12067125Y-16836184D02*
X12048077Y-16836184D01*
X12048077Y-16836184D02*
X12029029Y-16826660D01*
X12029029Y-16826660D02*
X12019506Y-16817136D01*
X12019506Y-16817136D02*
X12009982Y-16798089D01*
X12009982Y-16798089D02*
X12000458Y-16759993D01*
X12000458Y-16759993D02*
X12000458Y-16712374D01*
X12000458Y-16712374D02*
X12009982Y-16674279D01*
X12009982Y-16674279D02*
X12019506Y-16655231D01*
X12019506Y-16655231D02*
X12029029Y-16645708D01*
X12029029Y-16645708D02*
X12048077Y-16636184D01*
X12190934Y-16636184D02*
X12190934Y-16674279D01*
X12267125Y-16636184D02*
X12267125Y-16674279D01*
X12562363Y-16912374D02*
X12552839Y-16902850D01*
X12552839Y-16902850D02*
X12533791Y-16874279D01*
X12533791Y-16874279D02*
X12524268Y-16855231D01*
X12524268Y-16855231D02*
X12514744Y-16826660D01*
X12514744Y-16826660D02*
X12505220Y-16779041D01*
X12505220Y-16779041D02*
X12505220Y-16740946D01*
X12505220Y-16740946D02*
X12514744Y-16693327D01*
X12514744Y-16693327D02*
X12524268Y-16664755D01*
X12524268Y-16664755D02*
X12533791Y-16645708D01*
X12533791Y-16645708D02*
X12552839Y-16617136D01*
X12552839Y-16617136D02*
X12562363Y-16607612D01*
X12629029Y-16655231D02*
X12638553Y-16645708D01*
X12638553Y-16645708D02*
X12657601Y-16636184D01*
X12657601Y-16636184D02*
X12705220Y-16636184D01*
X12705220Y-16636184D02*
X12724268Y-16645708D01*
X12724268Y-16645708D02*
X12733791Y-16655231D01*
X12733791Y-16655231D02*
X12743315Y-16674279D01*
X12743315Y-16674279D02*
X12743315Y-16693327D01*
X12743315Y-16693327D02*
X12733791Y-16721898D01*
X12733791Y-16721898D02*
X12619506Y-16836184D01*
X12619506Y-16836184D02*
X12743315Y-16836184D01*
X12981410Y-16836184D02*
X12981410Y-16636184D01*
X13067125Y-16836184D02*
X13067125Y-16731422D01*
X13067125Y-16731422D02*
X13057601Y-16712374D01*
X13057601Y-16712374D02*
X13038553Y-16702850D01*
X13038553Y-16702850D02*
X13009982Y-16702850D01*
X13009982Y-16702850D02*
X12990934Y-16712374D01*
X12990934Y-16712374D02*
X12981410Y-16721898D01*
X13190934Y-16836184D02*
X13171887Y-16826660D01*
X13171887Y-16826660D02*
X13162363Y-16817136D01*
X13162363Y-16817136D02*
X13152839Y-16798089D01*
X13152839Y-16798089D02*
X13152839Y-16740946D01*
X13152839Y-16740946D02*
X13162363Y-16721898D01*
X13162363Y-16721898D02*
X13171887Y-16712374D01*
X13171887Y-16712374D02*
X13190934Y-16702850D01*
X13190934Y-16702850D02*
X13219506Y-16702850D01*
X13219506Y-16702850D02*
X13238553Y-16712374D01*
X13238553Y-16712374D02*
X13248077Y-16721898D01*
X13248077Y-16721898D02*
X13257601Y-16740946D01*
X13257601Y-16740946D02*
X13257601Y-16798089D01*
X13257601Y-16798089D02*
X13248077Y-16817136D01*
X13248077Y-16817136D02*
X13238553Y-16826660D01*
X13238553Y-16826660D02*
X13219506Y-16836184D01*
X13219506Y-16836184D02*
X13190934Y-16836184D01*
X13371887Y-16836184D02*
X13352839Y-16826660D01*
X13352839Y-16826660D02*
X13343315Y-16807612D01*
X13343315Y-16807612D02*
X13343315Y-16636184D01*
X13524268Y-16826660D02*
X13505220Y-16836184D01*
X13505220Y-16836184D02*
X13467125Y-16836184D01*
X13467125Y-16836184D02*
X13448077Y-16826660D01*
X13448077Y-16826660D02*
X13438553Y-16807612D01*
X13438553Y-16807612D02*
X13438553Y-16731422D01*
X13438553Y-16731422D02*
X13448077Y-16712374D01*
X13448077Y-16712374D02*
X13467125Y-16702850D01*
X13467125Y-16702850D02*
X13505220Y-16702850D01*
X13505220Y-16702850D02*
X13524268Y-16712374D01*
X13524268Y-16712374D02*
X13533791Y-16731422D01*
X13533791Y-16731422D02*
X13533791Y-16750469D01*
X13533791Y-16750469D02*
X13438553Y-16769517D01*
X13609982Y-16826660D02*
X13629030Y-16836184D01*
X13629030Y-16836184D02*
X13667125Y-16836184D01*
X13667125Y-16836184D02*
X13686172Y-16826660D01*
X13686172Y-16826660D02*
X13695696Y-16807612D01*
X13695696Y-16807612D02*
X13695696Y-16798089D01*
X13695696Y-16798089D02*
X13686172Y-16779041D01*
X13686172Y-16779041D02*
X13667125Y-16769517D01*
X13667125Y-16769517D02*
X13638553Y-16769517D01*
X13638553Y-16769517D02*
X13619506Y-16759993D01*
X13619506Y-16759993D02*
X13609982Y-16740946D01*
X13609982Y-16740946D02*
X13609982Y-16731422D01*
X13609982Y-16731422D02*
X13619506Y-16712374D01*
X13619506Y-16712374D02*
X13638553Y-16702850D01*
X13638553Y-16702850D02*
X13667125Y-16702850D01*
X13667125Y-16702850D02*
X13686172Y-16712374D01*
X13762363Y-16912374D02*
X13771887Y-16902850D01*
X13771887Y-16902850D02*
X13790934Y-16874279D01*
X13790934Y-16874279D02*
X13800458Y-16855231D01*
X13800458Y-16855231D02*
X13809982Y-16826660D01*
X13809982Y-16826660D02*
X13819506Y-16779041D01*
X13819506Y-16779041D02*
X13819506Y-16740946D01*
X13819506Y-16740946D02*
X13809982Y-16693327D01*
X13809982Y-16693327D02*
X13800458Y-16664755D01*
X13800458Y-16664755D02*
X13790934Y-16645708D01*
X13790934Y-16645708D02*
X13771887Y-16617136D01*
X13771887Y-16617136D02*
X13762363Y-16607612D01*
D12*
X8937770Y-17058230D02*
X8987300Y-17008700D01*
X8937770Y-16959170D01*
X8888240Y-17008700D01*
X8937770Y-17058230D01*
D11*
X9286172Y-16900184D02*
X9305220Y-16900184D01*
X9305220Y-16900184D02*
X9324267Y-16909708D01*
X9324267Y-16909708D02*
X9333791Y-16919231D01*
X9333791Y-16919231D02*
X9343315Y-16938279D01*
X9343315Y-16938279D02*
X9352839Y-16976374D01*
X9352839Y-16976374D02*
X9352839Y-17023993D01*
X9352839Y-17023993D02*
X9343315Y-17062089D01*
X9343315Y-17062089D02*
X9333791Y-17081136D01*
X9333791Y-17081136D02*
X9324267Y-17090660D01*
X9324267Y-17090660D02*
X9305220Y-17100184D01*
X9305220Y-17100184D02*
X9286172Y-17100184D01*
X9286172Y-17100184D02*
X9267124Y-17090660D01*
X9267124Y-17090660D02*
X9257601Y-17081136D01*
X9257601Y-17081136D02*
X9248077Y-17062089D01*
X9248077Y-17062089D02*
X9238553Y-17023993D01*
X9238553Y-17023993D02*
X9238553Y-16976374D01*
X9238553Y-16976374D02*
X9248077Y-16938279D01*
X9248077Y-16938279D02*
X9257601Y-16919231D01*
X9257601Y-16919231D02*
X9267124Y-16909708D01*
X9267124Y-16909708D02*
X9286172Y-16900184D01*
X9438553Y-17081136D02*
X9448077Y-17090660D01*
X9448077Y-17090660D02*
X9438553Y-17100184D01*
X9438553Y-17100184D02*
X9429029Y-17090660D01*
X9429029Y-17090660D02*
X9438553Y-17081136D01*
X9438553Y-17081136D02*
X9438553Y-17100184D01*
X9543315Y-17100184D02*
X9581410Y-17100184D01*
X9581410Y-17100184D02*
X9600458Y-17090660D01*
X9600458Y-17090660D02*
X9609982Y-17081136D01*
X9609982Y-17081136D02*
X9629029Y-17052565D01*
X9629029Y-17052565D02*
X9638553Y-17014470D01*
X9638553Y-17014470D02*
X9638553Y-16938279D01*
X9638553Y-16938279D02*
X9629029Y-16919231D01*
X9629029Y-16919231D02*
X9619505Y-16909708D01*
X9619505Y-16909708D02*
X9600458Y-16900184D01*
X9600458Y-16900184D02*
X9562363Y-16900184D01*
X9562363Y-16900184D02*
X9543315Y-16909708D01*
X9543315Y-16909708D02*
X9533791Y-16919231D01*
X9533791Y-16919231D02*
X9524267Y-16938279D01*
X9524267Y-16938279D02*
X9524267Y-16985898D01*
X9524267Y-16985898D02*
X9533791Y-17004946D01*
X9533791Y-17004946D02*
X9543315Y-17014470D01*
X9543315Y-17014470D02*
X9562363Y-17023993D01*
X9562363Y-17023993D02*
X9600458Y-17023993D01*
X9600458Y-17023993D02*
X9619505Y-17014470D01*
X9619505Y-17014470D02*
X9629029Y-17004946D01*
X9629029Y-17004946D02*
X9638553Y-16985898D01*
X9733791Y-17100184D02*
X9771886Y-17100184D01*
X9771886Y-17100184D02*
X9790934Y-17090660D01*
X9790934Y-17090660D02*
X9800458Y-17081136D01*
X9800458Y-17081136D02*
X9819505Y-17052565D01*
X9819505Y-17052565D02*
X9829029Y-17014470D01*
X9829029Y-17014470D02*
X9829029Y-16938279D01*
X9829029Y-16938279D02*
X9819505Y-16919231D01*
X9819505Y-16919231D02*
X9809982Y-16909708D01*
X9809982Y-16909708D02*
X9790934Y-16900184D01*
X9790934Y-16900184D02*
X9752839Y-16900184D01*
X9752839Y-16900184D02*
X9733791Y-16909708D01*
X9733791Y-16909708D02*
X9724267Y-16919231D01*
X9724267Y-16919231D02*
X9714744Y-16938279D01*
X9714744Y-16938279D02*
X9714744Y-16985898D01*
X9714744Y-16985898D02*
X9724267Y-17004946D01*
X9724267Y-17004946D02*
X9733791Y-17014470D01*
X9733791Y-17014470D02*
X9752839Y-17023993D01*
X9752839Y-17023993D02*
X9790934Y-17023993D01*
X9790934Y-17023993D02*
X9809982Y-17014470D01*
X9809982Y-17014470D02*
X9819505Y-17004946D01*
X9819505Y-17004946D02*
X9829029Y-16985898D01*
X10019505Y-17100184D02*
X9905220Y-17100184D01*
X9962363Y-17100184D02*
X9962363Y-16900184D01*
X9962363Y-16900184D02*
X9943315Y-16928755D01*
X9943315Y-16928755D02*
X9924267Y-16947803D01*
X9924267Y-16947803D02*
X9905220Y-16957327D01*
X10105220Y-17100184D02*
X10105220Y-16966850D01*
X10105220Y-16985898D02*
X10114744Y-16976374D01*
X10114744Y-16976374D02*
X10133791Y-16966850D01*
X10133791Y-16966850D02*
X10162363Y-16966850D01*
X10162363Y-16966850D02*
X10181410Y-16976374D01*
X10181410Y-16976374D02*
X10190934Y-16995422D01*
X10190934Y-16995422D02*
X10190934Y-17100184D01*
X10190934Y-16995422D02*
X10200458Y-16976374D01*
X10200458Y-16976374D02*
X10219505Y-16966850D01*
X10219505Y-16966850D02*
X10248077Y-16966850D01*
X10248077Y-16966850D02*
X10267125Y-16976374D01*
X10267125Y-16976374D02*
X10276648Y-16995422D01*
X10276648Y-16995422D02*
X10276648Y-17100184D01*
X10371886Y-17100184D02*
X10371886Y-16966850D01*
X10371886Y-16985898D02*
X10381410Y-16976374D01*
X10381410Y-16976374D02*
X10400458Y-16966850D01*
X10400458Y-16966850D02*
X10429029Y-16966850D01*
X10429029Y-16966850D02*
X10448077Y-16976374D01*
X10448077Y-16976374D02*
X10457601Y-16995422D01*
X10457601Y-16995422D02*
X10457601Y-17100184D01*
X10457601Y-16995422D02*
X10467125Y-16976374D01*
X10467125Y-16976374D02*
X10486172Y-16966850D01*
X10486172Y-16966850D02*
X10514744Y-16966850D01*
X10514744Y-16966850D02*
X10533791Y-16976374D01*
X10533791Y-16976374D02*
X10543315Y-16995422D01*
X10543315Y-16995422D02*
X10543315Y-17100184D01*
X10933791Y-16890660D02*
X10762363Y-17147803D01*
X11190934Y-16900184D02*
X11209982Y-16900184D01*
X11209982Y-16900184D02*
X11229029Y-16909708D01*
X11229029Y-16909708D02*
X11238553Y-16919231D01*
X11238553Y-16919231D02*
X11248077Y-16938279D01*
X11248077Y-16938279D02*
X11257601Y-16976374D01*
X11257601Y-16976374D02*
X11257601Y-17023993D01*
X11257601Y-17023993D02*
X11248077Y-17062089D01*
X11248077Y-17062089D02*
X11238553Y-17081136D01*
X11238553Y-17081136D02*
X11229029Y-17090660D01*
X11229029Y-17090660D02*
X11209982Y-17100184D01*
X11209982Y-17100184D02*
X11190934Y-17100184D01*
X11190934Y-17100184D02*
X11171887Y-17090660D01*
X11171887Y-17090660D02*
X11162363Y-17081136D01*
X11162363Y-17081136D02*
X11152839Y-17062089D01*
X11152839Y-17062089D02*
X11143315Y-17023993D01*
X11143315Y-17023993D02*
X11143315Y-16976374D01*
X11143315Y-16976374D02*
X11152839Y-16938279D01*
X11152839Y-16938279D02*
X11162363Y-16919231D01*
X11162363Y-16919231D02*
X11171887Y-16909708D01*
X11171887Y-16909708D02*
X11190934Y-16900184D01*
X11343315Y-17081136D02*
X11352839Y-17090660D01*
X11352839Y-17090660D02*
X11343315Y-17100184D01*
X11343315Y-17100184D02*
X11333791Y-17090660D01*
X11333791Y-17090660D02*
X11343315Y-17081136D01*
X11343315Y-17081136D02*
X11343315Y-17100184D01*
X11476648Y-16900184D02*
X11495696Y-16900184D01*
X11495696Y-16900184D02*
X11514744Y-16909708D01*
X11514744Y-16909708D02*
X11524267Y-16919231D01*
X11524267Y-16919231D02*
X11533791Y-16938279D01*
X11533791Y-16938279D02*
X11543315Y-16976374D01*
X11543315Y-16976374D02*
X11543315Y-17023993D01*
X11543315Y-17023993D02*
X11533791Y-17062089D01*
X11533791Y-17062089D02*
X11524267Y-17081136D01*
X11524267Y-17081136D02*
X11514744Y-17090660D01*
X11514744Y-17090660D02*
X11495696Y-17100184D01*
X11495696Y-17100184D02*
X11476648Y-17100184D01*
X11476648Y-17100184D02*
X11457601Y-17090660D01*
X11457601Y-17090660D02*
X11448077Y-17081136D01*
X11448077Y-17081136D02*
X11438553Y-17062089D01*
X11438553Y-17062089D02*
X11429029Y-17023993D01*
X11429029Y-17023993D02*
X11429029Y-16976374D01*
X11429029Y-16976374D02*
X11438553Y-16938279D01*
X11438553Y-16938279D02*
X11448077Y-16919231D01*
X11448077Y-16919231D02*
X11457601Y-16909708D01*
X11457601Y-16909708D02*
X11476648Y-16900184D01*
X11609982Y-16900184D02*
X11733791Y-16900184D01*
X11733791Y-16900184D02*
X11667125Y-16976374D01*
X11667125Y-16976374D02*
X11695696Y-16976374D01*
X11695696Y-16976374D02*
X11714744Y-16985898D01*
X11714744Y-16985898D02*
X11724267Y-16995422D01*
X11724267Y-16995422D02*
X11733791Y-17014470D01*
X11733791Y-17014470D02*
X11733791Y-17062089D01*
X11733791Y-17062089D02*
X11724267Y-17081136D01*
X11724267Y-17081136D02*
X11714744Y-17090660D01*
X11714744Y-17090660D02*
X11695696Y-17100184D01*
X11695696Y-17100184D02*
X11638553Y-17100184D01*
X11638553Y-17100184D02*
X11619506Y-17090660D01*
X11619506Y-17090660D02*
X11609982Y-17081136D01*
X11829029Y-17100184D02*
X11867125Y-17100184D01*
X11867125Y-17100184D02*
X11886172Y-17090660D01*
X11886172Y-17090660D02*
X11895696Y-17081136D01*
X11895696Y-17081136D02*
X11914744Y-17052565D01*
X11914744Y-17052565D02*
X11924267Y-17014470D01*
X11924267Y-17014470D02*
X11924267Y-16938279D01*
X11924267Y-16938279D02*
X11914744Y-16919231D01*
X11914744Y-16919231D02*
X11905220Y-16909708D01*
X11905220Y-16909708D02*
X11886172Y-16900184D01*
X11886172Y-16900184D02*
X11848077Y-16900184D01*
X11848077Y-16900184D02*
X11829029Y-16909708D01*
X11829029Y-16909708D02*
X11819506Y-16919231D01*
X11819506Y-16919231D02*
X11809982Y-16938279D01*
X11809982Y-16938279D02*
X11809982Y-16985898D01*
X11809982Y-16985898D02*
X11819506Y-17004946D01*
X11819506Y-17004946D02*
X11829029Y-17014470D01*
X11829029Y-17014470D02*
X11848077Y-17023993D01*
X11848077Y-17023993D02*
X11886172Y-17023993D01*
X11886172Y-17023993D02*
X11905220Y-17014470D01*
X11905220Y-17014470D02*
X11914744Y-17004946D01*
X11914744Y-17004946D02*
X11924267Y-16985898D01*
X12048077Y-16900184D02*
X12067125Y-16900184D01*
X12067125Y-16900184D02*
X12086172Y-16909708D01*
X12086172Y-16909708D02*
X12095696Y-16919231D01*
X12095696Y-16919231D02*
X12105220Y-16938279D01*
X12105220Y-16938279D02*
X12114744Y-16976374D01*
X12114744Y-16976374D02*
X12114744Y-17023993D01*
X12114744Y-17023993D02*
X12105220Y-17062089D01*
X12105220Y-17062089D02*
X12095696Y-17081136D01*
X12095696Y-17081136D02*
X12086172Y-17090660D01*
X12086172Y-17090660D02*
X12067125Y-17100184D01*
X12067125Y-17100184D02*
X12048077Y-17100184D01*
X12048077Y-17100184D02*
X12029029Y-17090660D01*
X12029029Y-17090660D02*
X12019506Y-17081136D01*
X12019506Y-17081136D02*
X12009982Y-17062089D01*
X12009982Y-17062089D02*
X12000458Y-17023993D01*
X12000458Y-17023993D02*
X12000458Y-16976374D01*
X12000458Y-16976374D02*
X12009982Y-16938279D01*
X12009982Y-16938279D02*
X12019506Y-16919231D01*
X12019506Y-16919231D02*
X12029029Y-16909708D01*
X12029029Y-16909708D02*
X12048077Y-16900184D01*
X12190934Y-16900184D02*
X12190934Y-16938279D01*
X12267125Y-16900184D02*
X12267125Y-16938279D01*
X12562363Y-17176374D02*
X12552839Y-17166850D01*
X12552839Y-17166850D02*
X12533791Y-17138279D01*
X12533791Y-17138279D02*
X12524268Y-17119231D01*
X12524268Y-17119231D02*
X12514744Y-17090660D01*
X12514744Y-17090660D02*
X12505220Y-17043041D01*
X12505220Y-17043041D02*
X12505220Y-17004946D01*
X12505220Y-17004946D02*
X12514744Y-16957327D01*
X12514744Y-16957327D02*
X12524268Y-16928755D01*
X12524268Y-16928755D02*
X12533791Y-16909708D01*
X12533791Y-16909708D02*
X12552839Y-16881136D01*
X12552839Y-16881136D02*
X12562363Y-16871612D01*
X12724268Y-16966850D02*
X12724268Y-17100184D01*
X12676648Y-16890660D02*
X12629029Y-17033517D01*
X12629029Y-17033517D02*
X12752839Y-17033517D01*
X12981410Y-17100184D02*
X12981410Y-16900184D01*
X13067125Y-17100184D02*
X13067125Y-16995422D01*
X13067125Y-16995422D02*
X13057601Y-16976374D01*
X13057601Y-16976374D02*
X13038553Y-16966850D01*
X13038553Y-16966850D02*
X13009982Y-16966850D01*
X13009982Y-16966850D02*
X12990934Y-16976374D01*
X12990934Y-16976374D02*
X12981410Y-16985898D01*
X13190934Y-17100184D02*
X13171887Y-17090660D01*
X13171887Y-17090660D02*
X13162363Y-17081136D01*
X13162363Y-17081136D02*
X13152839Y-17062089D01*
X13152839Y-17062089D02*
X13152839Y-17004946D01*
X13152839Y-17004946D02*
X13162363Y-16985898D01*
X13162363Y-16985898D02*
X13171887Y-16976374D01*
X13171887Y-16976374D02*
X13190934Y-16966850D01*
X13190934Y-16966850D02*
X13219506Y-16966850D01*
X13219506Y-16966850D02*
X13238553Y-16976374D01*
X13238553Y-16976374D02*
X13248077Y-16985898D01*
X13248077Y-16985898D02*
X13257601Y-17004946D01*
X13257601Y-17004946D02*
X13257601Y-17062089D01*
X13257601Y-17062089D02*
X13248077Y-17081136D01*
X13248077Y-17081136D02*
X13238553Y-17090660D01*
X13238553Y-17090660D02*
X13219506Y-17100184D01*
X13219506Y-17100184D02*
X13190934Y-17100184D01*
X13371887Y-17100184D02*
X13352839Y-17090660D01*
X13352839Y-17090660D02*
X13343315Y-17071612D01*
X13343315Y-17071612D02*
X13343315Y-16900184D01*
X13524268Y-17090660D02*
X13505220Y-17100184D01*
X13505220Y-17100184D02*
X13467125Y-17100184D01*
X13467125Y-17100184D02*
X13448077Y-17090660D01*
X13448077Y-17090660D02*
X13438553Y-17071612D01*
X13438553Y-17071612D02*
X13438553Y-16995422D01*
X13438553Y-16995422D02*
X13448077Y-16976374D01*
X13448077Y-16976374D02*
X13467125Y-16966850D01*
X13467125Y-16966850D02*
X13505220Y-16966850D01*
X13505220Y-16966850D02*
X13524268Y-16976374D01*
X13524268Y-16976374D02*
X13533791Y-16995422D01*
X13533791Y-16995422D02*
X13533791Y-17014470D01*
X13533791Y-17014470D02*
X13438553Y-17033517D01*
X13609982Y-17090660D02*
X13629030Y-17100184D01*
X13629030Y-17100184D02*
X13667125Y-17100184D01*
X13667125Y-17100184D02*
X13686172Y-17090660D01*
X13686172Y-17090660D02*
X13695696Y-17071612D01*
X13695696Y-17071612D02*
X13695696Y-17062089D01*
X13695696Y-17062089D02*
X13686172Y-17043041D01*
X13686172Y-17043041D02*
X13667125Y-17033517D01*
X13667125Y-17033517D02*
X13638553Y-17033517D01*
X13638553Y-17033517D02*
X13619506Y-17023993D01*
X13619506Y-17023993D02*
X13609982Y-17004946D01*
X13609982Y-17004946D02*
X13609982Y-16995422D01*
X13609982Y-16995422D02*
X13619506Y-16976374D01*
X13619506Y-16976374D02*
X13638553Y-16966850D01*
X13638553Y-16966850D02*
X13667125Y-16966850D01*
X13667125Y-16966850D02*
X13686172Y-16976374D01*
X13762363Y-17176374D02*
X13771887Y-17166850D01*
X13771887Y-17166850D02*
X13790934Y-17138279D01*
X13790934Y-17138279D02*
X13800458Y-17119231D01*
X13800458Y-17119231D02*
X13809982Y-17090660D01*
X13809982Y-17090660D02*
X13819506Y-17043041D01*
X13819506Y-17043041D02*
X13819506Y-17004946D01*
X13819506Y-17004946D02*
X13809982Y-16957327D01*
X13809982Y-16957327D02*
X13800458Y-16928755D01*
X13800458Y-16928755D02*
X13790934Y-16909708D01*
X13790934Y-16909708D02*
X13771887Y-16881136D01*
X13771887Y-16881136D02*
X13762363Y-16871612D01*
D13*
X8867300Y-17212700D02*
X8987300Y-17332700D01*
X8987300Y-17212700D02*
X8867300Y-17332700D01*
X8987300Y-17272700D02*
G75*
G02*
X8867300Y-17272700I-60000J0D01*
G01*
X8867300Y-17272700D02*
G75*
G02*
X8987300Y-17272700I60000J0D01*
G01*
D11*
X9352839Y-17364184D02*
X9238553Y-17364184D01*
X9295696Y-17364184D02*
X9295696Y-17164184D01*
X9295696Y-17164184D02*
X9276648Y-17192755D01*
X9276648Y-17192755D02*
X9257601Y-17211803D01*
X9257601Y-17211803D02*
X9238553Y-17221327D01*
X9438553Y-17345136D02*
X9448077Y-17354660D01*
X9448077Y-17354660D02*
X9438553Y-17364184D01*
X9438553Y-17364184D02*
X9429029Y-17354660D01*
X9429029Y-17354660D02*
X9438553Y-17345136D01*
X9438553Y-17345136D02*
X9438553Y-17364184D01*
X9524267Y-17183231D02*
X9533791Y-17173708D01*
X9533791Y-17173708D02*
X9552839Y-17164184D01*
X9552839Y-17164184D02*
X9600458Y-17164184D01*
X9600458Y-17164184D02*
X9619505Y-17173708D01*
X9619505Y-17173708D02*
X9629029Y-17183231D01*
X9629029Y-17183231D02*
X9638553Y-17202279D01*
X9638553Y-17202279D02*
X9638553Y-17221327D01*
X9638553Y-17221327D02*
X9629029Y-17249898D01*
X9629029Y-17249898D02*
X9514744Y-17364184D01*
X9514744Y-17364184D02*
X9638553Y-17364184D01*
X9762363Y-17164184D02*
X9781410Y-17164184D01*
X9781410Y-17164184D02*
X9800458Y-17173708D01*
X9800458Y-17173708D02*
X9809982Y-17183231D01*
X9809982Y-17183231D02*
X9819505Y-17202279D01*
X9819505Y-17202279D02*
X9829029Y-17240374D01*
X9829029Y-17240374D02*
X9829029Y-17287993D01*
X9829029Y-17287993D02*
X9819505Y-17326089D01*
X9819505Y-17326089D02*
X9809982Y-17345136D01*
X9809982Y-17345136D02*
X9800458Y-17354660D01*
X9800458Y-17354660D02*
X9781410Y-17364184D01*
X9781410Y-17364184D02*
X9762363Y-17364184D01*
X9762363Y-17364184D02*
X9743315Y-17354660D01*
X9743315Y-17354660D02*
X9733791Y-17345136D01*
X9733791Y-17345136D02*
X9724267Y-17326089D01*
X9724267Y-17326089D02*
X9714744Y-17287993D01*
X9714744Y-17287993D02*
X9714744Y-17240374D01*
X9714744Y-17240374D02*
X9724267Y-17202279D01*
X9724267Y-17202279D02*
X9733791Y-17183231D01*
X9733791Y-17183231D02*
X9743315Y-17173708D01*
X9743315Y-17173708D02*
X9762363Y-17164184D01*
X9952839Y-17164184D02*
X9971886Y-17164184D01*
X9971886Y-17164184D02*
X9990934Y-17173708D01*
X9990934Y-17173708D02*
X10000458Y-17183231D01*
X10000458Y-17183231D02*
X10009982Y-17202279D01*
X10009982Y-17202279D02*
X10019505Y-17240374D01*
X10019505Y-17240374D02*
X10019505Y-17287993D01*
X10019505Y-17287993D02*
X10009982Y-17326089D01*
X10009982Y-17326089D02*
X10000458Y-17345136D01*
X10000458Y-17345136D02*
X9990934Y-17354660D01*
X9990934Y-17354660D02*
X9971886Y-17364184D01*
X9971886Y-17364184D02*
X9952839Y-17364184D01*
X9952839Y-17364184D02*
X9933791Y-17354660D01*
X9933791Y-17354660D02*
X9924267Y-17345136D01*
X9924267Y-17345136D02*
X9914744Y-17326089D01*
X9914744Y-17326089D02*
X9905220Y-17287993D01*
X9905220Y-17287993D02*
X9905220Y-17240374D01*
X9905220Y-17240374D02*
X9914744Y-17202279D01*
X9914744Y-17202279D02*
X9924267Y-17183231D01*
X9924267Y-17183231D02*
X9933791Y-17173708D01*
X9933791Y-17173708D02*
X9952839Y-17164184D01*
X10105220Y-17364184D02*
X10105220Y-17230850D01*
X10105220Y-17249898D02*
X10114744Y-17240374D01*
X10114744Y-17240374D02*
X10133791Y-17230850D01*
X10133791Y-17230850D02*
X10162363Y-17230850D01*
X10162363Y-17230850D02*
X10181410Y-17240374D01*
X10181410Y-17240374D02*
X10190934Y-17259422D01*
X10190934Y-17259422D02*
X10190934Y-17364184D01*
X10190934Y-17259422D02*
X10200458Y-17240374D01*
X10200458Y-17240374D02*
X10219505Y-17230850D01*
X10219505Y-17230850D02*
X10248077Y-17230850D01*
X10248077Y-17230850D02*
X10267125Y-17240374D01*
X10267125Y-17240374D02*
X10276648Y-17259422D01*
X10276648Y-17259422D02*
X10276648Y-17364184D01*
X10371886Y-17364184D02*
X10371886Y-17230850D01*
X10371886Y-17249898D02*
X10381410Y-17240374D01*
X10381410Y-17240374D02*
X10400458Y-17230850D01*
X10400458Y-17230850D02*
X10429029Y-17230850D01*
X10429029Y-17230850D02*
X10448077Y-17240374D01*
X10448077Y-17240374D02*
X10457601Y-17259422D01*
X10457601Y-17259422D02*
X10457601Y-17364184D01*
X10457601Y-17259422D02*
X10467125Y-17240374D01*
X10467125Y-17240374D02*
X10486172Y-17230850D01*
X10486172Y-17230850D02*
X10514744Y-17230850D01*
X10514744Y-17230850D02*
X10533791Y-17240374D01*
X10533791Y-17240374D02*
X10543315Y-17259422D01*
X10543315Y-17259422D02*
X10543315Y-17364184D01*
X10933791Y-17154660D02*
X10762363Y-17411803D01*
X11190934Y-17164184D02*
X11209982Y-17164184D01*
X11209982Y-17164184D02*
X11229029Y-17173708D01*
X11229029Y-17173708D02*
X11238553Y-17183231D01*
X11238553Y-17183231D02*
X11248077Y-17202279D01*
X11248077Y-17202279D02*
X11257601Y-17240374D01*
X11257601Y-17240374D02*
X11257601Y-17287993D01*
X11257601Y-17287993D02*
X11248077Y-17326089D01*
X11248077Y-17326089D02*
X11238553Y-17345136D01*
X11238553Y-17345136D02*
X11229029Y-17354660D01*
X11229029Y-17354660D02*
X11209982Y-17364184D01*
X11209982Y-17364184D02*
X11190934Y-17364184D01*
X11190934Y-17364184D02*
X11171887Y-17354660D01*
X11171887Y-17354660D02*
X11162363Y-17345136D01*
X11162363Y-17345136D02*
X11152839Y-17326089D01*
X11152839Y-17326089D02*
X11143315Y-17287993D01*
X11143315Y-17287993D02*
X11143315Y-17240374D01*
X11143315Y-17240374D02*
X11152839Y-17202279D01*
X11152839Y-17202279D02*
X11162363Y-17183231D01*
X11162363Y-17183231D02*
X11171887Y-17173708D01*
X11171887Y-17173708D02*
X11190934Y-17164184D01*
X11343315Y-17345136D02*
X11352839Y-17354660D01*
X11352839Y-17354660D02*
X11343315Y-17364184D01*
X11343315Y-17364184D02*
X11333791Y-17354660D01*
X11333791Y-17354660D02*
X11343315Y-17345136D01*
X11343315Y-17345136D02*
X11343315Y-17364184D01*
X11476648Y-17164184D02*
X11495696Y-17164184D01*
X11495696Y-17164184D02*
X11514744Y-17173708D01*
X11514744Y-17173708D02*
X11524267Y-17183231D01*
X11524267Y-17183231D02*
X11533791Y-17202279D01*
X11533791Y-17202279D02*
X11543315Y-17240374D01*
X11543315Y-17240374D02*
X11543315Y-17287993D01*
X11543315Y-17287993D02*
X11533791Y-17326089D01*
X11533791Y-17326089D02*
X11524267Y-17345136D01*
X11524267Y-17345136D02*
X11514744Y-17354660D01*
X11514744Y-17354660D02*
X11495696Y-17364184D01*
X11495696Y-17364184D02*
X11476648Y-17364184D01*
X11476648Y-17364184D02*
X11457601Y-17354660D01*
X11457601Y-17354660D02*
X11448077Y-17345136D01*
X11448077Y-17345136D02*
X11438553Y-17326089D01*
X11438553Y-17326089D02*
X11429029Y-17287993D01*
X11429029Y-17287993D02*
X11429029Y-17240374D01*
X11429029Y-17240374D02*
X11438553Y-17202279D01*
X11438553Y-17202279D02*
X11448077Y-17183231D01*
X11448077Y-17183231D02*
X11457601Y-17173708D01*
X11457601Y-17173708D02*
X11476648Y-17164184D01*
X11714744Y-17230850D02*
X11714744Y-17364184D01*
X11667125Y-17154660D02*
X11619506Y-17297517D01*
X11619506Y-17297517D02*
X11743315Y-17297517D01*
X11800458Y-17164184D02*
X11933791Y-17164184D01*
X11933791Y-17164184D02*
X11848077Y-17364184D01*
X12000458Y-17183231D02*
X12009982Y-17173708D01*
X12009982Y-17173708D02*
X12029029Y-17164184D01*
X12029029Y-17164184D02*
X12076648Y-17164184D01*
X12076648Y-17164184D02*
X12095696Y-17173708D01*
X12095696Y-17173708D02*
X12105220Y-17183231D01*
X12105220Y-17183231D02*
X12114744Y-17202279D01*
X12114744Y-17202279D02*
X12114744Y-17221327D01*
X12114744Y-17221327D02*
X12105220Y-17249898D01*
X12105220Y-17249898D02*
X11990934Y-17364184D01*
X11990934Y-17364184D02*
X12114744Y-17364184D01*
X12190934Y-17164184D02*
X12190934Y-17202279D01*
X12267125Y-17164184D02*
X12267125Y-17202279D01*
X12562363Y-17440374D02*
X12552839Y-17430850D01*
X12552839Y-17430850D02*
X12533791Y-17402279D01*
X12533791Y-17402279D02*
X12524268Y-17383231D01*
X12524268Y-17383231D02*
X12514744Y-17354660D01*
X12514744Y-17354660D02*
X12505220Y-17307041D01*
X12505220Y-17307041D02*
X12505220Y-17268946D01*
X12505220Y-17268946D02*
X12514744Y-17221327D01*
X12514744Y-17221327D02*
X12524268Y-17192755D01*
X12524268Y-17192755D02*
X12533791Y-17173708D01*
X12533791Y-17173708D02*
X12552839Y-17145136D01*
X12552839Y-17145136D02*
X12562363Y-17135612D01*
X12619506Y-17164184D02*
X12743315Y-17164184D01*
X12743315Y-17164184D02*
X12676648Y-17240374D01*
X12676648Y-17240374D02*
X12705220Y-17240374D01*
X12705220Y-17240374D02*
X12724268Y-17249898D01*
X12724268Y-17249898D02*
X12733791Y-17259422D01*
X12733791Y-17259422D02*
X12743315Y-17278470D01*
X12743315Y-17278470D02*
X12743315Y-17326089D01*
X12743315Y-17326089D02*
X12733791Y-17345136D01*
X12733791Y-17345136D02*
X12724268Y-17354660D01*
X12724268Y-17354660D02*
X12705220Y-17364184D01*
X12705220Y-17364184D02*
X12648077Y-17364184D01*
X12648077Y-17364184D02*
X12629029Y-17354660D01*
X12629029Y-17354660D02*
X12619506Y-17345136D01*
X12981410Y-17364184D02*
X12981410Y-17164184D01*
X13067125Y-17364184D02*
X13067125Y-17259422D01*
X13067125Y-17259422D02*
X13057601Y-17240374D01*
X13057601Y-17240374D02*
X13038553Y-17230850D01*
X13038553Y-17230850D02*
X13009982Y-17230850D01*
X13009982Y-17230850D02*
X12990934Y-17240374D01*
X12990934Y-17240374D02*
X12981410Y-17249898D01*
X13190934Y-17364184D02*
X13171887Y-17354660D01*
X13171887Y-17354660D02*
X13162363Y-17345136D01*
X13162363Y-17345136D02*
X13152839Y-17326089D01*
X13152839Y-17326089D02*
X13152839Y-17268946D01*
X13152839Y-17268946D02*
X13162363Y-17249898D01*
X13162363Y-17249898D02*
X13171887Y-17240374D01*
X13171887Y-17240374D02*
X13190934Y-17230850D01*
X13190934Y-17230850D02*
X13219506Y-17230850D01*
X13219506Y-17230850D02*
X13238553Y-17240374D01*
X13238553Y-17240374D02*
X13248077Y-17249898D01*
X13248077Y-17249898D02*
X13257601Y-17268946D01*
X13257601Y-17268946D02*
X13257601Y-17326089D01*
X13257601Y-17326089D02*
X13248077Y-17345136D01*
X13248077Y-17345136D02*
X13238553Y-17354660D01*
X13238553Y-17354660D02*
X13219506Y-17364184D01*
X13219506Y-17364184D02*
X13190934Y-17364184D01*
X13371887Y-17364184D02*
X13352839Y-17354660D01*
X13352839Y-17354660D02*
X13343315Y-17335612D01*
X13343315Y-17335612D02*
X13343315Y-17164184D01*
X13524268Y-17354660D02*
X13505220Y-17364184D01*
X13505220Y-17364184D02*
X13467125Y-17364184D01*
X13467125Y-17364184D02*
X13448077Y-17354660D01*
X13448077Y-17354660D02*
X13438553Y-17335612D01*
X13438553Y-17335612D02*
X13438553Y-17259422D01*
X13438553Y-17259422D02*
X13448077Y-17240374D01*
X13448077Y-17240374D02*
X13467125Y-17230850D01*
X13467125Y-17230850D02*
X13505220Y-17230850D01*
X13505220Y-17230850D02*
X13524268Y-17240374D01*
X13524268Y-17240374D02*
X13533791Y-17259422D01*
X13533791Y-17259422D02*
X13533791Y-17278470D01*
X13533791Y-17278470D02*
X13438553Y-17297517D01*
X13609982Y-17354660D02*
X13629030Y-17364184D01*
X13629030Y-17364184D02*
X13667125Y-17364184D01*
X13667125Y-17364184D02*
X13686172Y-17354660D01*
X13686172Y-17354660D02*
X13695696Y-17335612D01*
X13695696Y-17335612D02*
X13695696Y-17326089D01*
X13695696Y-17326089D02*
X13686172Y-17307041D01*
X13686172Y-17307041D02*
X13667125Y-17297517D01*
X13667125Y-17297517D02*
X13638553Y-17297517D01*
X13638553Y-17297517D02*
X13619506Y-17287993D01*
X13619506Y-17287993D02*
X13609982Y-17268946D01*
X13609982Y-17268946D02*
X13609982Y-17259422D01*
X13609982Y-17259422D02*
X13619506Y-17240374D01*
X13619506Y-17240374D02*
X13638553Y-17230850D01*
X13638553Y-17230850D02*
X13667125Y-17230850D01*
X13667125Y-17230850D02*
X13686172Y-17240374D01*
X13762363Y-17440374D02*
X13771887Y-17430850D01*
X13771887Y-17430850D02*
X13790934Y-17402279D01*
X13790934Y-17402279D02*
X13800458Y-17383231D01*
X13800458Y-17383231D02*
X13809982Y-17354660D01*
X13809982Y-17354660D02*
X13819506Y-17307041D01*
X13819506Y-17307041D02*
X13819506Y-17268946D01*
X13819506Y-17268946D02*
X13809982Y-17221327D01*
X13809982Y-17221327D02*
X13800458Y-17192755D01*
X13800458Y-17192755D02*
X13790934Y-17173708D01*
X13790934Y-17173708D02*
X13771887Y-17145136D01*
X13771887Y-17145136D02*
X13762363Y-17135612D01*
D14*
X8847300Y-17466700D02*
X8987300Y-17606700D01*
X8987300Y-17466700D02*
X8847300Y-17606700D01*
X8917300Y-17466700D02*
X8917300Y-17606700D01*
X8847300Y-17536700D02*
X8987300Y-17536700D01*
D11*
X9352839Y-17628184D02*
X9238553Y-17628184D01*
X9295696Y-17628184D02*
X9295696Y-17428184D01*
X9295696Y-17428184D02*
X9276648Y-17456755D01*
X9276648Y-17456755D02*
X9257601Y-17475803D01*
X9257601Y-17475803D02*
X9238553Y-17485327D01*
X9438553Y-17609136D02*
X9448077Y-17618660D01*
X9448077Y-17618660D02*
X9438553Y-17628184D01*
X9438553Y-17628184D02*
X9429029Y-17618660D01*
X9429029Y-17618660D02*
X9438553Y-17609136D01*
X9438553Y-17609136D02*
X9438553Y-17628184D01*
X9619505Y-17494850D02*
X9619505Y-17628184D01*
X9571886Y-17418660D02*
X9524267Y-17561517D01*
X9524267Y-17561517D02*
X9648077Y-17561517D01*
X9762363Y-17428184D02*
X9781410Y-17428184D01*
X9781410Y-17428184D02*
X9800458Y-17437708D01*
X9800458Y-17437708D02*
X9809982Y-17447231D01*
X9809982Y-17447231D02*
X9819505Y-17466279D01*
X9819505Y-17466279D02*
X9829029Y-17504374D01*
X9829029Y-17504374D02*
X9829029Y-17551993D01*
X9829029Y-17551993D02*
X9819505Y-17590089D01*
X9819505Y-17590089D02*
X9809982Y-17609136D01*
X9809982Y-17609136D02*
X9800458Y-17618660D01*
X9800458Y-17618660D02*
X9781410Y-17628184D01*
X9781410Y-17628184D02*
X9762363Y-17628184D01*
X9762363Y-17628184D02*
X9743315Y-17618660D01*
X9743315Y-17618660D02*
X9733791Y-17609136D01*
X9733791Y-17609136D02*
X9724267Y-17590089D01*
X9724267Y-17590089D02*
X9714744Y-17551993D01*
X9714744Y-17551993D02*
X9714744Y-17504374D01*
X9714744Y-17504374D02*
X9724267Y-17466279D01*
X9724267Y-17466279D02*
X9733791Y-17447231D01*
X9733791Y-17447231D02*
X9743315Y-17437708D01*
X9743315Y-17437708D02*
X9762363Y-17428184D01*
X9952839Y-17428184D02*
X9971886Y-17428184D01*
X9971886Y-17428184D02*
X9990934Y-17437708D01*
X9990934Y-17437708D02*
X10000458Y-17447231D01*
X10000458Y-17447231D02*
X10009982Y-17466279D01*
X10009982Y-17466279D02*
X10019505Y-17504374D01*
X10019505Y-17504374D02*
X10019505Y-17551993D01*
X10019505Y-17551993D02*
X10009982Y-17590089D01*
X10009982Y-17590089D02*
X10000458Y-17609136D01*
X10000458Y-17609136D02*
X9990934Y-17618660D01*
X9990934Y-17618660D02*
X9971886Y-17628184D01*
X9971886Y-17628184D02*
X9952839Y-17628184D01*
X9952839Y-17628184D02*
X9933791Y-17618660D01*
X9933791Y-17618660D02*
X9924267Y-17609136D01*
X9924267Y-17609136D02*
X9914744Y-17590089D01*
X9914744Y-17590089D02*
X9905220Y-17551993D01*
X9905220Y-17551993D02*
X9905220Y-17504374D01*
X9905220Y-17504374D02*
X9914744Y-17466279D01*
X9914744Y-17466279D02*
X9924267Y-17447231D01*
X9924267Y-17447231D02*
X9933791Y-17437708D01*
X9933791Y-17437708D02*
X9952839Y-17428184D01*
X10105220Y-17628184D02*
X10105220Y-17494850D01*
X10105220Y-17513898D02*
X10114744Y-17504374D01*
X10114744Y-17504374D02*
X10133791Y-17494850D01*
X10133791Y-17494850D02*
X10162363Y-17494850D01*
X10162363Y-17494850D02*
X10181410Y-17504374D01*
X10181410Y-17504374D02*
X10190934Y-17523422D01*
X10190934Y-17523422D02*
X10190934Y-17628184D01*
X10190934Y-17523422D02*
X10200458Y-17504374D01*
X10200458Y-17504374D02*
X10219505Y-17494850D01*
X10219505Y-17494850D02*
X10248077Y-17494850D01*
X10248077Y-17494850D02*
X10267125Y-17504374D01*
X10267125Y-17504374D02*
X10276648Y-17523422D01*
X10276648Y-17523422D02*
X10276648Y-17628184D01*
X10371886Y-17628184D02*
X10371886Y-17494850D01*
X10371886Y-17513898D02*
X10381410Y-17504374D01*
X10381410Y-17504374D02*
X10400458Y-17494850D01*
X10400458Y-17494850D02*
X10429029Y-17494850D01*
X10429029Y-17494850D02*
X10448077Y-17504374D01*
X10448077Y-17504374D02*
X10457601Y-17523422D01*
X10457601Y-17523422D02*
X10457601Y-17628184D01*
X10457601Y-17523422D02*
X10467125Y-17504374D01*
X10467125Y-17504374D02*
X10486172Y-17494850D01*
X10486172Y-17494850D02*
X10514744Y-17494850D01*
X10514744Y-17494850D02*
X10533791Y-17504374D01*
X10533791Y-17504374D02*
X10543315Y-17523422D01*
X10543315Y-17523422D02*
X10543315Y-17628184D01*
X10933791Y-17418660D02*
X10762363Y-17675803D01*
X11190934Y-17428184D02*
X11209982Y-17428184D01*
X11209982Y-17428184D02*
X11229029Y-17437708D01*
X11229029Y-17437708D02*
X11238553Y-17447231D01*
X11238553Y-17447231D02*
X11248077Y-17466279D01*
X11248077Y-17466279D02*
X11257601Y-17504374D01*
X11257601Y-17504374D02*
X11257601Y-17551993D01*
X11257601Y-17551993D02*
X11248077Y-17590089D01*
X11248077Y-17590089D02*
X11238553Y-17609136D01*
X11238553Y-17609136D02*
X11229029Y-17618660D01*
X11229029Y-17618660D02*
X11209982Y-17628184D01*
X11209982Y-17628184D02*
X11190934Y-17628184D01*
X11190934Y-17628184D02*
X11171887Y-17618660D01*
X11171887Y-17618660D02*
X11162363Y-17609136D01*
X11162363Y-17609136D02*
X11152839Y-17590089D01*
X11152839Y-17590089D02*
X11143315Y-17551993D01*
X11143315Y-17551993D02*
X11143315Y-17504374D01*
X11143315Y-17504374D02*
X11152839Y-17466279D01*
X11152839Y-17466279D02*
X11162363Y-17447231D01*
X11162363Y-17447231D02*
X11171887Y-17437708D01*
X11171887Y-17437708D02*
X11190934Y-17428184D01*
X11343315Y-17609136D02*
X11352839Y-17618660D01*
X11352839Y-17618660D02*
X11343315Y-17628184D01*
X11343315Y-17628184D02*
X11333791Y-17618660D01*
X11333791Y-17618660D02*
X11343315Y-17609136D01*
X11343315Y-17609136D02*
X11343315Y-17628184D01*
X11476648Y-17428184D02*
X11495696Y-17428184D01*
X11495696Y-17428184D02*
X11514744Y-17437708D01*
X11514744Y-17437708D02*
X11524267Y-17447231D01*
X11524267Y-17447231D02*
X11533791Y-17466279D01*
X11533791Y-17466279D02*
X11543315Y-17504374D01*
X11543315Y-17504374D02*
X11543315Y-17551993D01*
X11543315Y-17551993D02*
X11533791Y-17590089D01*
X11533791Y-17590089D02*
X11524267Y-17609136D01*
X11524267Y-17609136D02*
X11514744Y-17618660D01*
X11514744Y-17618660D02*
X11495696Y-17628184D01*
X11495696Y-17628184D02*
X11476648Y-17628184D01*
X11476648Y-17628184D02*
X11457601Y-17618660D01*
X11457601Y-17618660D02*
X11448077Y-17609136D01*
X11448077Y-17609136D02*
X11438553Y-17590089D01*
X11438553Y-17590089D02*
X11429029Y-17551993D01*
X11429029Y-17551993D02*
X11429029Y-17504374D01*
X11429029Y-17504374D02*
X11438553Y-17466279D01*
X11438553Y-17466279D02*
X11448077Y-17447231D01*
X11448077Y-17447231D02*
X11457601Y-17437708D01*
X11457601Y-17437708D02*
X11476648Y-17428184D01*
X11724267Y-17428184D02*
X11629029Y-17428184D01*
X11629029Y-17428184D02*
X11619506Y-17523422D01*
X11619506Y-17523422D02*
X11629029Y-17513898D01*
X11629029Y-17513898D02*
X11648077Y-17504374D01*
X11648077Y-17504374D02*
X11695696Y-17504374D01*
X11695696Y-17504374D02*
X11714744Y-17513898D01*
X11714744Y-17513898D02*
X11724267Y-17523422D01*
X11724267Y-17523422D02*
X11733791Y-17542470D01*
X11733791Y-17542470D02*
X11733791Y-17590089D01*
X11733791Y-17590089D02*
X11724267Y-17609136D01*
X11724267Y-17609136D02*
X11714744Y-17618660D01*
X11714744Y-17618660D02*
X11695696Y-17628184D01*
X11695696Y-17628184D02*
X11648077Y-17628184D01*
X11648077Y-17628184D02*
X11629029Y-17618660D01*
X11629029Y-17618660D02*
X11619506Y-17609136D01*
X11914744Y-17428184D02*
X11819506Y-17428184D01*
X11819506Y-17428184D02*
X11809982Y-17523422D01*
X11809982Y-17523422D02*
X11819506Y-17513898D01*
X11819506Y-17513898D02*
X11838553Y-17504374D01*
X11838553Y-17504374D02*
X11886172Y-17504374D01*
X11886172Y-17504374D02*
X11905220Y-17513898D01*
X11905220Y-17513898D02*
X11914744Y-17523422D01*
X11914744Y-17523422D02*
X11924267Y-17542470D01*
X11924267Y-17542470D02*
X11924267Y-17590089D01*
X11924267Y-17590089D02*
X11914744Y-17609136D01*
X11914744Y-17609136D02*
X11905220Y-17618660D01*
X11905220Y-17618660D02*
X11886172Y-17628184D01*
X11886172Y-17628184D02*
X11838553Y-17628184D01*
X11838553Y-17628184D02*
X11819506Y-17618660D01*
X11819506Y-17618660D02*
X11809982Y-17609136D01*
X12114744Y-17628184D02*
X12000458Y-17628184D01*
X12057601Y-17628184D02*
X12057601Y-17428184D01*
X12057601Y-17428184D02*
X12038553Y-17456755D01*
X12038553Y-17456755D02*
X12019506Y-17475803D01*
X12019506Y-17475803D02*
X12000458Y-17485327D01*
X12190934Y-17428184D02*
X12190934Y-17466279D01*
X12267125Y-17428184D02*
X12267125Y-17466279D01*
X12562363Y-17704374D02*
X12552839Y-17694850D01*
X12552839Y-17694850D02*
X12533791Y-17666279D01*
X12533791Y-17666279D02*
X12524268Y-17647231D01*
X12524268Y-17647231D02*
X12514744Y-17618660D01*
X12514744Y-17618660D02*
X12505220Y-17571041D01*
X12505220Y-17571041D02*
X12505220Y-17532946D01*
X12505220Y-17532946D02*
X12514744Y-17485327D01*
X12514744Y-17485327D02*
X12524268Y-17456755D01*
X12524268Y-17456755D02*
X12533791Y-17437708D01*
X12533791Y-17437708D02*
X12552839Y-17409136D01*
X12552839Y-17409136D02*
X12562363Y-17399612D01*
X12619506Y-17428184D02*
X12743315Y-17428184D01*
X12743315Y-17428184D02*
X12676648Y-17504374D01*
X12676648Y-17504374D02*
X12705220Y-17504374D01*
X12705220Y-17504374D02*
X12724268Y-17513898D01*
X12724268Y-17513898D02*
X12733791Y-17523422D01*
X12733791Y-17523422D02*
X12743315Y-17542470D01*
X12743315Y-17542470D02*
X12743315Y-17590089D01*
X12743315Y-17590089D02*
X12733791Y-17609136D01*
X12733791Y-17609136D02*
X12724268Y-17618660D01*
X12724268Y-17618660D02*
X12705220Y-17628184D01*
X12705220Y-17628184D02*
X12648077Y-17628184D01*
X12648077Y-17628184D02*
X12629029Y-17618660D01*
X12629029Y-17618660D02*
X12619506Y-17609136D01*
X12981410Y-17628184D02*
X12981410Y-17428184D01*
X13067125Y-17628184D02*
X13067125Y-17523422D01*
X13067125Y-17523422D02*
X13057601Y-17504374D01*
X13057601Y-17504374D02*
X13038553Y-17494850D01*
X13038553Y-17494850D02*
X13009982Y-17494850D01*
X13009982Y-17494850D02*
X12990934Y-17504374D01*
X12990934Y-17504374D02*
X12981410Y-17513898D01*
X13190934Y-17628184D02*
X13171887Y-17618660D01*
X13171887Y-17618660D02*
X13162363Y-17609136D01*
X13162363Y-17609136D02*
X13152839Y-17590089D01*
X13152839Y-17590089D02*
X13152839Y-17532946D01*
X13152839Y-17532946D02*
X13162363Y-17513898D01*
X13162363Y-17513898D02*
X13171887Y-17504374D01*
X13171887Y-17504374D02*
X13190934Y-17494850D01*
X13190934Y-17494850D02*
X13219506Y-17494850D01*
X13219506Y-17494850D02*
X13238553Y-17504374D01*
X13238553Y-17504374D02*
X13248077Y-17513898D01*
X13248077Y-17513898D02*
X13257601Y-17532946D01*
X13257601Y-17532946D02*
X13257601Y-17590089D01*
X13257601Y-17590089D02*
X13248077Y-17609136D01*
X13248077Y-17609136D02*
X13238553Y-17618660D01*
X13238553Y-17618660D02*
X13219506Y-17628184D01*
X13219506Y-17628184D02*
X13190934Y-17628184D01*
X13371887Y-17628184D02*
X13352839Y-17618660D01*
X13352839Y-17618660D02*
X13343315Y-17599612D01*
X13343315Y-17599612D02*
X13343315Y-17428184D01*
X13524268Y-17618660D02*
X13505220Y-17628184D01*
X13505220Y-17628184D02*
X13467125Y-17628184D01*
X13467125Y-17628184D02*
X13448077Y-17618660D01*
X13448077Y-17618660D02*
X13438553Y-17599612D01*
X13438553Y-17599612D02*
X13438553Y-17523422D01*
X13438553Y-17523422D02*
X13448077Y-17504374D01*
X13448077Y-17504374D02*
X13467125Y-17494850D01*
X13467125Y-17494850D02*
X13505220Y-17494850D01*
X13505220Y-17494850D02*
X13524268Y-17504374D01*
X13524268Y-17504374D02*
X13533791Y-17523422D01*
X13533791Y-17523422D02*
X13533791Y-17542470D01*
X13533791Y-17542470D02*
X13438553Y-17561517D01*
X13609982Y-17618660D02*
X13629030Y-17628184D01*
X13629030Y-17628184D02*
X13667125Y-17628184D01*
X13667125Y-17628184D02*
X13686172Y-17618660D01*
X13686172Y-17618660D02*
X13695696Y-17599612D01*
X13695696Y-17599612D02*
X13695696Y-17590089D01*
X13695696Y-17590089D02*
X13686172Y-17571041D01*
X13686172Y-17571041D02*
X13667125Y-17561517D01*
X13667125Y-17561517D02*
X13638553Y-17561517D01*
X13638553Y-17561517D02*
X13619506Y-17551993D01*
X13619506Y-17551993D02*
X13609982Y-17532946D01*
X13609982Y-17532946D02*
X13609982Y-17523422D01*
X13609982Y-17523422D02*
X13619506Y-17504374D01*
X13619506Y-17504374D02*
X13638553Y-17494850D01*
X13638553Y-17494850D02*
X13667125Y-17494850D01*
X13667125Y-17494850D02*
X13686172Y-17504374D01*
X13762363Y-17704374D02*
X13771887Y-17694850D01*
X13771887Y-17694850D02*
X13790934Y-17666279D01*
X13790934Y-17666279D02*
X13800458Y-17647231D01*
X13800458Y-17647231D02*
X13809982Y-17618660D01*
X13809982Y-17618660D02*
X13819506Y-17571041D01*
X13819506Y-17571041D02*
X13819506Y-17532946D01*
X13819506Y-17532946D02*
X13809982Y-17485327D01*
X13809982Y-17485327D02*
X13800458Y-17456755D01*
X13800458Y-17456755D02*
X13790934Y-17437708D01*
X13790934Y-17437708D02*
X13771887Y-17409136D01*
X13771887Y-17409136D02*
X13762363Y-17399612D01*
D15*
X8807300Y-17710700D02*
X8987300Y-17890700D01*
X8987300Y-17710700D02*
X8807300Y-17890700D01*
X8960940Y-17864340D02*
X8960940Y-17737060D01*
X8833660Y-17737060D01*
X8833660Y-17864340D01*
X8960940Y-17864340D01*
D11*
X9352839Y-17892184D02*
X9238553Y-17892184D01*
X9295696Y-17892184D02*
X9295696Y-17692184D01*
X9295696Y-17692184D02*
X9276648Y-17720755D01*
X9276648Y-17720755D02*
X9257601Y-17739803D01*
X9257601Y-17739803D02*
X9238553Y-17749327D01*
X9438553Y-17873136D02*
X9448077Y-17882660D01*
X9448077Y-17882660D02*
X9438553Y-17892184D01*
X9438553Y-17892184D02*
X9429029Y-17882660D01*
X9429029Y-17882660D02*
X9438553Y-17873136D01*
X9438553Y-17873136D02*
X9438553Y-17892184D01*
X9562363Y-17777898D02*
X9543315Y-17768374D01*
X9543315Y-17768374D02*
X9533791Y-17758850D01*
X9533791Y-17758850D02*
X9524267Y-17739803D01*
X9524267Y-17739803D02*
X9524267Y-17730279D01*
X9524267Y-17730279D02*
X9533791Y-17711231D01*
X9533791Y-17711231D02*
X9543315Y-17701708D01*
X9543315Y-17701708D02*
X9562363Y-17692184D01*
X9562363Y-17692184D02*
X9600458Y-17692184D01*
X9600458Y-17692184D02*
X9619505Y-17701708D01*
X9619505Y-17701708D02*
X9629029Y-17711231D01*
X9629029Y-17711231D02*
X9638553Y-17730279D01*
X9638553Y-17730279D02*
X9638553Y-17739803D01*
X9638553Y-17739803D02*
X9629029Y-17758850D01*
X9629029Y-17758850D02*
X9619505Y-17768374D01*
X9619505Y-17768374D02*
X9600458Y-17777898D01*
X9600458Y-17777898D02*
X9562363Y-17777898D01*
X9562363Y-17777898D02*
X9543315Y-17787422D01*
X9543315Y-17787422D02*
X9533791Y-17796946D01*
X9533791Y-17796946D02*
X9524267Y-17815993D01*
X9524267Y-17815993D02*
X9524267Y-17854089D01*
X9524267Y-17854089D02*
X9533791Y-17873136D01*
X9533791Y-17873136D02*
X9543315Y-17882660D01*
X9543315Y-17882660D02*
X9562363Y-17892184D01*
X9562363Y-17892184D02*
X9600458Y-17892184D01*
X9600458Y-17892184D02*
X9619505Y-17882660D01*
X9619505Y-17882660D02*
X9629029Y-17873136D01*
X9629029Y-17873136D02*
X9638553Y-17854089D01*
X9638553Y-17854089D02*
X9638553Y-17815993D01*
X9638553Y-17815993D02*
X9629029Y-17796946D01*
X9629029Y-17796946D02*
X9619505Y-17787422D01*
X9619505Y-17787422D02*
X9600458Y-17777898D01*
X9762363Y-17692184D02*
X9781410Y-17692184D01*
X9781410Y-17692184D02*
X9800458Y-17701708D01*
X9800458Y-17701708D02*
X9809982Y-17711231D01*
X9809982Y-17711231D02*
X9819505Y-17730279D01*
X9819505Y-17730279D02*
X9829029Y-17768374D01*
X9829029Y-17768374D02*
X9829029Y-17815993D01*
X9829029Y-17815993D02*
X9819505Y-17854089D01*
X9819505Y-17854089D02*
X9809982Y-17873136D01*
X9809982Y-17873136D02*
X9800458Y-17882660D01*
X9800458Y-17882660D02*
X9781410Y-17892184D01*
X9781410Y-17892184D02*
X9762363Y-17892184D01*
X9762363Y-17892184D02*
X9743315Y-17882660D01*
X9743315Y-17882660D02*
X9733791Y-17873136D01*
X9733791Y-17873136D02*
X9724267Y-17854089D01*
X9724267Y-17854089D02*
X9714744Y-17815993D01*
X9714744Y-17815993D02*
X9714744Y-17768374D01*
X9714744Y-17768374D02*
X9724267Y-17730279D01*
X9724267Y-17730279D02*
X9733791Y-17711231D01*
X9733791Y-17711231D02*
X9743315Y-17701708D01*
X9743315Y-17701708D02*
X9762363Y-17692184D01*
X9952839Y-17692184D02*
X9971886Y-17692184D01*
X9971886Y-17692184D02*
X9990934Y-17701708D01*
X9990934Y-17701708D02*
X10000458Y-17711231D01*
X10000458Y-17711231D02*
X10009982Y-17730279D01*
X10009982Y-17730279D02*
X10019505Y-17768374D01*
X10019505Y-17768374D02*
X10019505Y-17815993D01*
X10019505Y-17815993D02*
X10009982Y-17854089D01*
X10009982Y-17854089D02*
X10000458Y-17873136D01*
X10000458Y-17873136D02*
X9990934Y-17882660D01*
X9990934Y-17882660D02*
X9971886Y-17892184D01*
X9971886Y-17892184D02*
X9952839Y-17892184D01*
X9952839Y-17892184D02*
X9933791Y-17882660D01*
X9933791Y-17882660D02*
X9924267Y-17873136D01*
X9924267Y-17873136D02*
X9914744Y-17854089D01*
X9914744Y-17854089D02*
X9905220Y-17815993D01*
X9905220Y-17815993D02*
X9905220Y-17768374D01*
X9905220Y-17768374D02*
X9914744Y-17730279D01*
X9914744Y-17730279D02*
X9924267Y-17711231D01*
X9924267Y-17711231D02*
X9933791Y-17701708D01*
X9933791Y-17701708D02*
X9952839Y-17692184D01*
X10105220Y-17892184D02*
X10105220Y-17758850D01*
X10105220Y-17777898D02*
X10114744Y-17768374D01*
X10114744Y-17768374D02*
X10133791Y-17758850D01*
X10133791Y-17758850D02*
X10162363Y-17758850D01*
X10162363Y-17758850D02*
X10181410Y-17768374D01*
X10181410Y-17768374D02*
X10190934Y-17787422D01*
X10190934Y-17787422D02*
X10190934Y-17892184D01*
X10190934Y-17787422D02*
X10200458Y-17768374D01*
X10200458Y-17768374D02*
X10219505Y-17758850D01*
X10219505Y-17758850D02*
X10248077Y-17758850D01*
X10248077Y-17758850D02*
X10267125Y-17768374D01*
X10267125Y-17768374D02*
X10276648Y-17787422D01*
X10276648Y-17787422D02*
X10276648Y-17892184D01*
X10371886Y-17892184D02*
X10371886Y-17758850D01*
X10371886Y-17777898D02*
X10381410Y-17768374D01*
X10381410Y-17768374D02*
X10400458Y-17758850D01*
X10400458Y-17758850D02*
X10429029Y-17758850D01*
X10429029Y-17758850D02*
X10448077Y-17768374D01*
X10448077Y-17768374D02*
X10457601Y-17787422D01*
X10457601Y-17787422D02*
X10457601Y-17892184D01*
X10457601Y-17787422D02*
X10467125Y-17768374D01*
X10467125Y-17768374D02*
X10486172Y-17758850D01*
X10486172Y-17758850D02*
X10514744Y-17758850D01*
X10514744Y-17758850D02*
X10533791Y-17768374D01*
X10533791Y-17768374D02*
X10543315Y-17787422D01*
X10543315Y-17787422D02*
X10543315Y-17892184D01*
X10933791Y-17682660D02*
X10762363Y-17939803D01*
X11190934Y-17692184D02*
X11209982Y-17692184D01*
X11209982Y-17692184D02*
X11229029Y-17701708D01*
X11229029Y-17701708D02*
X11238553Y-17711231D01*
X11238553Y-17711231D02*
X11248077Y-17730279D01*
X11248077Y-17730279D02*
X11257601Y-17768374D01*
X11257601Y-17768374D02*
X11257601Y-17815993D01*
X11257601Y-17815993D02*
X11248077Y-17854089D01*
X11248077Y-17854089D02*
X11238553Y-17873136D01*
X11238553Y-17873136D02*
X11229029Y-17882660D01*
X11229029Y-17882660D02*
X11209982Y-17892184D01*
X11209982Y-17892184D02*
X11190934Y-17892184D01*
X11190934Y-17892184D02*
X11171887Y-17882660D01*
X11171887Y-17882660D02*
X11162363Y-17873136D01*
X11162363Y-17873136D02*
X11152839Y-17854089D01*
X11152839Y-17854089D02*
X11143315Y-17815993D01*
X11143315Y-17815993D02*
X11143315Y-17768374D01*
X11143315Y-17768374D02*
X11152839Y-17730279D01*
X11152839Y-17730279D02*
X11162363Y-17711231D01*
X11162363Y-17711231D02*
X11171887Y-17701708D01*
X11171887Y-17701708D02*
X11190934Y-17692184D01*
X11343315Y-17873136D02*
X11352839Y-17882660D01*
X11352839Y-17882660D02*
X11343315Y-17892184D01*
X11343315Y-17892184D02*
X11333791Y-17882660D01*
X11333791Y-17882660D02*
X11343315Y-17873136D01*
X11343315Y-17873136D02*
X11343315Y-17892184D01*
X11476648Y-17692184D02*
X11495696Y-17692184D01*
X11495696Y-17692184D02*
X11514744Y-17701708D01*
X11514744Y-17701708D02*
X11524267Y-17711231D01*
X11524267Y-17711231D02*
X11533791Y-17730279D01*
X11533791Y-17730279D02*
X11543315Y-17768374D01*
X11543315Y-17768374D02*
X11543315Y-17815993D01*
X11543315Y-17815993D02*
X11533791Y-17854089D01*
X11533791Y-17854089D02*
X11524267Y-17873136D01*
X11524267Y-17873136D02*
X11514744Y-17882660D01*
X11514744Y-17882660D02*
X11495696Y-17892184D01*
X11495696Y-17892184D02*
X11476648Y-17892184D01*
X11476648Y-17892184D02*
X11457601Y-17882660D01*
X11457601Y-17882660D02*
X11448077Y-17873136D01*
X11448077Y-17873136D02*
X11438553Y-17854089D01*
X11438553Y-17854089D02*
X11429029Y-17815993D01*
X11429029Y-17815993D02*
X11429029Y-17768374D01*
X11429029Y-17768374D02*
X11438553Y-17730279D01*
X11438553Y-17730279D02*
X11448077Y-17711231D01*
X11448077Y-17711231D02*
X11457601Y-17701708D01*
X11457601Y-17701708D02*
X11476648Y-17692184D01*
X11609982Y-17692184D02*
X11743315Y-17692184D01*
X11743315Y-17692184D02*
X11657601Y-17892184D01*
X11857601Y-17692184D02*
X11876648Y-17692184D01*
X11876648Y-17692184D02*
X11895696Y-17701708D01*
X11895696Y-17701708D02*
X11905220Y-17711231D01*
X11905220Y-17711231D02*
X11914744Y-17730279D01*
X11914744Y-17730279D02*
X11924267Y-17768374D01*
X11924267Y-17768374D02*
X11924267Y-17815993D01*
X11924267Y-17815993D02*
X11914744Y-17854089D01*
X11914744Y-17854089D02*
X11905220Y-17873136D01*
X11905220Y-17873136D02*
X11895696Y-17882660D01*
X11895696Y-17882660D02*
X11876648Y-17892184D01*
X11876648Y-17892184D02*
X11857601Y-17892184D01*
X11857601Y-17892184D02*
X11838553Y-17882660D01*
X11838553Y-17882660D02*
X11829029Y-17873136D01*
X11829029Y-17873136D02*
X11819506Y-17854089D01*
X11819506Y-17854089D02*
X11809982Y-17815993D01*
X11809982Y-17815993D02*
X11809982Y-17768374D01*
X11809982Y-17768374D02*
X11819506Y-17730279D01*
X11819506Y-17730279D02*
X11829029Y-17711231D01*
X11829029Y-17711231D02*
X11838553Y-17701708D01*
X11838553Y-17701708D02*
X11857601Y-17692184D01*
X12019506Y-17892184D02*
X12057601Y-17892184D01*
X12057601Y-17892184D02*
X12076648Y-17882660D01*
X12076648Y-17882660D02*
X12086172Y-17873136D01*
X12086172Y-17873136D02*
X12105220Y-17844565D01*
X12105220Y-17844565D02*
X12114744Y-17806470D01*
X12114744Y-17806470D02*
X12114744Y-17730279D01*
X12114744Y-17730279D02*
X12105220Y-17711231D01*
X12105220Y-17711231D02*
X12095696Y-17701708D01*
X12095696Y-17701708D02*
X12076648Y-17692184D01*
X12076648Y-17692184D02*
X12038553Y-17692184D01*
X12038553Y-17692184D02*
X12019506Y-17701708D01*
X12019506Y-17701708D02*
X12009982Y-17711231D01*
X12009982Y-17711231D02*
X12000458Y-17730279D01*
X12000458Y-17730279D02*
X12000458Y-17777898D01*
X12000458Y-17777898D02*
X12009982Y-17796946D01*
X12009982Y-17796946D02*
X12019506Y-17806470D01*
X12019506Y-17806470D02*
X12038553Y-17815993D01*
X12038553Y-17815993D02*
X12076648Y-17815993D01*
X12076648Y-17815993D02*
X12095696Y-17806470D01*
X12095696Y-17806470D02*
X12105220Y-17796946D01*
X12105220Y-17796946D02*
X12114744Y-17777898D01*
X12190934Y-17692184D02*
X12190934Y-17730279D01*
X12267125Y-17692184D02*
X12267125Y-17730279D01*
X12562363Y-17968374D02*
X12552839Y-17958850D01*
X12552839Y-17958850D02*
X12533791Y-17930279D01*
X12533791Y-17930279D02*
X12524268Y-17911231D01*
X12524268Y-17911231D02*
X12514744Y-17882660D01*
X12514744Y-17882660D02*
X12505220Y-17835041D01*
X12505220Y-17835041D02*
X12505220Y-17796946D01*
X12505220Y-17796946D02*
X12514744Y-17749327D01*
X12514744Y-17749327D02*
X12524268Y-17720755D01*
X12524268Y-17720755D02*
X12533791Y-17701708D01*
X12533791Y-17701708D02*
X12552839Y-17673136D01*
X12552839Y-17673136D02*
X12562363Y-17663612D01*
X12724268Y-17692184D02*
X12686172Y-17692184D01*
X12686172Y-17692184D02*
X12667125Y-17701708D01*
X12667125Y-17701708D02*
X12657601Y-17711231D01*
X12657601Y-17711231D02*
X12638553Y-17739803D01*
X12638553Y-17739803D02*
X12629029Y-17777898D01*
X12629029Y-17777898D02*
X12629029Y-17854089D01*
X12629029Y-17854089D02*
X12638553Y-17873136D01*
X12638553Y-17873136D02*
X12648077Y-17882660D01*
X12648077Y-17882660D02*
X12667125Y-17892184D01*
X12667125Y-17892184D02*
X12705220Y-17892184D01*
X12705220Y-17892184D02*
X12724268Y-17882660D01*
X12724268Y-17882660D02*
X12733791Y-17873136D01*
X12733791Y-17873136D02*
X12743315Y-17854089D01*
X12743315Y-17854089D02*
X12743315Y-17806470D01*
X12743315Y-17806470D02*
X12733791Y-17787422D01*
X12733791Y-17787422D02*
X12724268Y-17777898D01*
X12724268Y-17777898D02*
X12705220Y-17768374D01*
X12705220Y-17768374D02*
X12667125Y-17768374D01*
X12667125Y-17768374D02*
X12648077Y-17777898D01*
X12648077Y-17777898D02*
X12638553Y-17787422D01*
X12638553Y-17787422D02*
X12629029Y-17806470D01*
X12981410Y-17892184D02*
X12981410Y-17692184D01*
X13067125Y-17892184D02*
X13067125Y-17787422D01*
X13067125Y-17787422D02*
X13057601Y-17768374D01*
X13057601Y-17768374D02*
X13038553Y-17758850D01*
X13038553Y-17758850D02*
X13009982Y-17758850D01*
X13009982Y-17758850D02*
X12990934Y-17768374D01*
X12990934Y-17768374D02*
X12981410Y-17777898D01*
X13190934Y-17892184D02*
X13171887Y-17882660D01*
X13171887Y-17882660D02*
X13162363Y-17873136D01*
X13162363Y-17873136D02*
X13152839Y-17854089D01*
X13152839Y-17854089D02*
X13152839Y-17796946D01*
X13152839Y-17796946D02*
X13162363Y-17777898D01*
X13162363Y-17777898D02*
X13171887Y-17768374D01*
X13171887Y-17768374D02*
X13190934Y-17758850D01*
X13190934Y-17758850D02*
X13219506Y-17758850D01*
X13219506Y-17758850D02*
X13238553Y-17768374D01*
X13238553Y-17768374D02*
X13248077Y-17777898D01*
X13248077Y-17777898D02*
X13257601Y-17796946D01*
X13257601Y-17796946D02*
X13257601Y-17854089D01*
X13257601Y-17854089D02*
X13248077Y-17873136D01*
X13248077Y-17873136D02*
X13238553Y-17882660D01*
X13238553Y-17882660D02*
X13219506Y-17892184D01*
X13219506Y-17892184D02*
X13190934Y-17892184D01*
X13371887Y-17892184D02*
X13352839Y-17882660D01*
X13352839Y-17882660D02*
X13343315Y-17863612D01*
X13343315Y-17863612D02*
X13343315Y-17692184D01*
X13524268Y-17882660D02*
X13505220Y-17892184D01*
X13505220Y-17892184D02*
X13467125Y-17892184D01*
X13467125Y-17892184D02*
X13448077Y-17882660D01*
X13448077Y-17882660D02*
X13438553Y-17863612D01*
X13438553Y-17863612D02*
X13438553Y-17787422D01*
X13438553Y-17787422D02*
X13448077Y-17768374D01*
X13448077Y-17768374D02*
X13467125Y-17758850D01*
X13467125Y-17758850D02*
X13505220Y-17758850D01*
X13505220Y-17758850D02*
X13524268Y-17768374D01*
X13524268Y-17768374D02*
X13533791Y-17787422D01*
X13533791Y-17787422D02*
X13533791Y-17806470D01*
X13533791Y-17806470D02*
X13438553Y-17825517D01*
X13609982Y-17882660D02*
X13629030Y-17892184D01*
X13629030Y-17892184D02*
X13667125Y-17892184D01*
X13667125Y-17892184D02*
X13686172Y-17882660D01*
X13686172Y-17882660D02*
X13695696Y-17863612D01*
X13695696Y-17863612D02*
X13695696Y-17854089D01*
X13695696Y-17854089D02*
X13686172Y-17835041D01*
X13686172Y-17835041D02*
X13667125Y-17825517D01*
X13667125Y-17825517D02*
X13638553Y-17825517D01*
X13638553Y-17825517D02*
X13619506Y-17815993D01*
X13619506Y-17815993D02*
X13609982Y-17796946D01*
X13609982Y-17796946D02*
X13609982Y-17787422D01*
X13609982Y-17787422D02*
X13619506Y-17768374D01*
X13619506Y-17768374D02*
X13638553Y-17758850D01*
X13638553Y-17758850D02*
X13667125Y-17758850D01*
X13667125Y-17758850D02*
X13686172Y-17768374D01*
X13762363Y-17968374D02*
X13771887Y-17958850D01*
X13771887Y-17958850D02*
X13790934Y-17930279D01*
X13790934Y-17930279D02*
X13800458Y-17911231D01*
X13800458Y-17911231D02*
X13809982Y-17882660D01*
X13809982Y-17882660D02*
X13819506Y-17835041D01*
X13819506Y-17835041D02*
X13819506Y-17796946D01*
X13819506Y-17796946D02*
X13809982Y-17749327D01*
X13809982Y-17749327D02*
X13800458Y-17720755D01*
X13800458Y-17720755D02*
X13790934Y-17701708D01*
X13790934Y-17701708D02*
X13771887Y-17673136D01*
X13771887Y-17673136D02*
X13762363Y-17663612D01*
M02*
