%TF.GenerationSoftware,KiCad,Pcbnew,8.0.4*%
%TF.CreationDate,2024-09-20T16:59:46-04:00*%
%TF.ProjectId,micropsu,6d696372-6f70-4737-952e-6b696361645f,rev?*%
%TF.SameCoordinates,Original*%
%TF.FileFunction,Soldermask,Top*%
%TF.FilePolarity,Negative*%
%FSLAX46Y46*%
G04 Gerber Fmt 4.6, Leading zero omitted, Abs format (unit mm)*
G04 Created by KiCad (PCBNEW 8.0.4) date 2024-09-20 16:59:46*
%MOMM*%
%LPD*%
G01*
G04 APERTURE LIST*
G04 Aperture macros list*
%AMRoundRect*
0 Rectangle with rounded corners*
0 $1 Rounding radius*
0 $2 $3 $4 $5 $6 $7 $8 $9 X,Y pos of 4 corners*
0 Add a 4 corners polygon primitive as box body*
4,1,4,$2,$3,$4,$5,$6,$7,$8,$9,$2,$3,0*
0 Add four circle primitives for the rounded corners*
1,1,$1+$1,$2,$3*
1,1,$1+$1,$4,$5*
1,1,$1+$1,$6,$7*
1,1,$1+$1,$8,$9*
0 Add four rect primitives between the rounded corners*
20,1,$1+$1,$2,$3,$4,$5,0*
20,1,$1+$1,$4,$5,$6,$7,0*
20,1,$1+$1,$6,$7,$8,$9,0*
20,1,$1+$1,$8,$9,$2,$3,0*%
G04 Aperture macros list end*
%ADD10C,3.200000*%
%ADD11O,1.503200X1.503200*%
%ADD12RoundRect,0.050800X1.250000X1.250000X-1.250000X1.250000X-1.250000X-1.250000X1.250000X-1.250000X0*%
%ADD13O,2.601600X2.601600*%
%ADD14O,2.082800X2.082800*%
%ADD15RoundRect,0.050800X0.900000X1.300000X-0.900000X1.300000X-0.900000X-1.300000X0.900000X-1.300000X0*%
%ADD16O,1.901600X2.701600*%
%ADD17O,1.854200X1.854200*%
%ADD18O,2.703200X2.703200*%
%ADD19O,2.100000X1.400000*%
%ADD20O,1.778000X1.778000*%
%ADD21RoundRect,0.050800X1.000000X1.250000X-1.000000X1.250000X-1.000000X-1.250000X1.000000X-1.250000X0*%
%ADD22O,2.101600X2.601600*%
G04 APERTURE END LIST*
D10*
%TO.C,*%
X147000000Y-148000000D03*
%TD*%
%TO.C,*%
X95000000Y-148000000D03*
%TD*%
%TO.C,*%
X147000000Y-80000000D03*
%TD*%
D11*
%TO.C,+12OUTPUT*%
X113724700Y-126287650D03*
X113724700Y-124287650D03*
%TD*%
D12*
%TO.C,U1*%
X100979900Y-138000000D03*
D13*
X97020100Y-138000000D03*
%TD*%
D11*
%TO.C,+5INPUT*%
X126500000Y-98500000D03*
X124500000Y-98500000D03*
%TD*%
%TO.C,-5OUTPUT*%
X107247700Y-124160650D03*
X107247700Y-126160650D03*
%TD*%
D14*
%TO.C,R1*%
X129920000Y-140500000D03*
X140080000Y-140500000D03*
%TD*%
D15*
%TO.C,P78E12-1000*%
X115527200Y-102869900D03*
D16*
X112987200Y-102869900D03*
X110447000Y-102859900D03*
%TD*%
D11*
%TO.C,-5INPUT*%
X113987000Y-93594000D03*
X111987000Y-93594000D03*
%TD*%
D17*
%TO.C,LED1*%
X144500000Y-138500000D03*
X147040000Y-138500000D03*
%TD*%
D18*
%TO.C,Output*%
X108040200Y-137987650D03*
X112000100Y-137987650D03*
X115959900Y-137987650D03*
X119919800Y-137987650D03*
%TD*%
D19*
%TO.C,SW1*%
X104500100Y-85750100D03*
X100000000Y-85750100D03*
X95500100Y-85750100D03*
X95500100Y-92250200D03*
X100000000Y-92250200D03*
X104500100Y-92250200D03*
%TD*%
D20*
%TO.C,U3*%
X146515000Y-100833000D03*
X131275000Y-100833000D03*
X146515000Y-126233000D03*
X131275000Y-126233000D03*
%TD*%
D21*
%TO.C,Q1*%
X103040000Y-116000000D03*
D22*
X100500000Y-116000000D03*
X97960000Y-116000000D03*
%TD*%
D11*
%TO.C,+5OUTPUT*%
X120074700Y-126287650D03*
X120074700Y-124287650D03*
%TD*%
D10*
%TO.C,REF\u002A\u002A*%
X95000000Y-80000000D03*
%TD*%
M02*
