%TF.GenerationSoftware,KiCad,Pcbnew,8.0.4*%
%TF.CreationDate,2024-09-20T16:59:46-04:00*%
%TF.ProjectId,micropsu,6d696372-6f70-4737-952e-6b696361645f,rev?*%
%TF.SameCoordinates,Original*%
%TF.FileFunction,Copper,L2,Bot*%
%TF.FilePolarity,Positive*%
%FSLAX46Y46*%
G04 Gerber Fmt 4.6, Leading zero omitted, Abs format (unit mm)*
G04 Created by KiCad (PCBNEW 8.0.4) date 2024-09-20 16:59:46*
%MOMM*%
%LPD*%
G01*
G04 APERTURE LIST*
%TA.AperFunction,ComponentPad*%
%ADD10O,1.300000X1.300000*%
%TD*%
%TA.AperFunction,ComponentPad*%
%ADD11R,2.500000X2.500000*%
%TD*%
%TA.AperFunction,ComponentPad*%
%ADD12O,2.500000X2.500000*%
%TD*%
%TA.AperFunction,ComponentPad*%
%ADD13O,1.879600X1.879600*%
%TD*%
%TA.AperFunction,ComponentPad*%
%ADD14R,1.800000X2.600000*%
%TD*%
%TA.AperFunction,ComponentPad*%
%ADD15O,1.800000X2.600000*%
%TD*%
%TA.AperFunction,ComponentPad*%
%ADD16O,1.651000X1.651000*%
%TD*%
%TA.AperFunction,ComponentPad*%
%ADD17O,2.000000X1.300000*%
%TD*%
%TA.AperFunction,ComponentPad*%
%ADD18O,1.676400X1.676400*%
%TD*%
%TA.AperFunction,ComponentPad*%
%ADD19R,2.000000X2.500000*%
%TD*%
%TA.AperFunction,ComponentPad*%
%ADD20O,2.000000X2.500000*%
%TD*%
%TA.AperFunction,Conductor*%
%ADD21C,1.000000*%
%TD*%
%TA.AperFunction,Conductor*%
%ADD22C,0.200000*%
%TD*%
%TA.AperFunction,Conductor*%
%ADD23C,0.500000*%
%TD*%
G04 APERTURE END LIST*
D10*
%TO.P,+12OUTPUT,1*%
%TO.N,+12V*%
X113724700Y-126287650D03*
%TO.P,+12OUTPUT,2*%
%TO.N,GND*%
X113724700Y-124287650D03*
%TD*%
D11*
%TO.P,U1,1*%
%TO.N,GND*%
X100979900Y-138000000D03*
D12*
%TO.P,U1,2*%
%TO.N,+12V*%
X97020100Y-138000000D03*
%TD*%
D10*
%TO.P,+5INPUT,1*%
%TO.N,+12V*%
X126500000Y-98500000D03*
%TO.P,+5INPUT,2*%
%TO.N,GND*%
X124500000Y-98500000D03*
%TD*%
%TO.P,-5OUTPUT,1*%
%TO.N,GND*%
X107247700Y-124160650D03*
%TO.P,-5OUTPUT,2*%
%TO.N,-12V*%
X107247700Y-126160650D03*
%TD*%
D13*
%TO.P,R1,1*%
%TO.N,+5V*%
X129920000Y-140500000D03*
%TO.P,R1,2*%
%TO.N,LED1_1*%
X140080000Y-140500000D03*
%TD*%
D14*
%TO.P,P78E12-1000,1*%
%TO.N,+12V*%
X115527200Y-102869900D03*
D15*
%TO.P,P78E12-1000,2*%
%TO.N,-12V*%
X112987200Y-102869900D03*
%TO.P,P78E12-1000,3*%
%TO.N,GND*%
X110447000Y-102859900D03*
%TD*%
D10*
%TO.P,-5INPUT,1*%
%TO.N,+12V*%
X113987000Y-93594000D03*
%TO.P,-5INPUT,2*%
%TO.N,GND*%
X111987000Y-93594000D03*
%TD*%
D16*
%TO.P,LED1,1*%
%TO.N,LED1_1*%
X144500000Y-138500000D03*
%TO.P,LED1,2*%
%TO.N,GND*%
X147040000Y-138500000D03*
%TD*%
D12*
%TO.P,Output,1*%
%TO.N,-12V*%
X108040200Y-137987650D03*
%TO.P,Output,2*%
%TO.N,+12V*%
X112000100Y-137987650D03*
%TO.P,Output,3*%
%TO.N,GND*%
X115959900Y-137987650D03*
%TO.P,Output,4*%
%TO.N,+5V*%
X119919800Y-137987650D03*
%TD*%
D17*
%TO.P,SW1,1*%
%TO.N,N/C*%
X104500100Y-85750100D03*
%TO.P,SW1,2*%
%TO.N,+12V*%
X100000000Y-85750100D03*
%TO.P,SW1,3*%
X95500100Y-85750100D03*
%TO.P,SW1,4*%
X95500100Y-92250200D03*
%TO.P,SW1,5*%
X100000000Y-92250200D03*
%TO.P,SW1,6*%
%TO.N,N/C*%
X104500100Y-92250200D03*
%TD*%
D18*
%TO.P,U3,1*%
%TO.N,GND*%
X146515000Y-100833000D03*
%TO.P,U3,2*%
%TO.N,+12V*%
X131275000Y-100833000D03*
%TO.P,U3,3*%
%TO.N,GND*%
X146515000Y-126233000D03*
%TO.P,U3,4*%
%TO.N,+5V*%
X131275000Y-126233000D03*
%TD*%
D19*
%TO.P,Q1,1*%
%TO.N,GND*%
X103040000Y-116000000D03*
D20*
%TO.P,Q1,2*%
%TO.N,+12V*%
X100500000Y-116000000D03*
%TO.P,Q1,3*%
X97960000Y-116000000D03*
%TD*%
D10*
%TO.P,+5OUTPUT,1*%
%TO.N,+5V*%
X120074700Y-126287650D03*
%TO.P,+5OUTPUT,2*%
%TO.N,GND*%
X120074700Y-124287650D03*
%TD*%
D21*
%TO.N,+5V*%
X119919800Y-126442550D02*
X119919800Y-137987650D01*
%TO.N,+12V*%
X128833000Y-100833000D02*
X126500000Y-98500000D01*
X100000000Y-90500000D02*
X100000000Y-92250200D01*
X131275000Y-100833000D02*
X128833000Y-100833000D01*
X97960000Y-105540000D02*
X105500000Y-98000000D01*
X97000000Y-122500000D02*
X95406100Y-120906100D01*
X100000000Y-122500000D02*
X97000000Y-122500000D01*
X100000000Y-87500000D02*
X100000000Y-85750100D01*
X112000000Y-137987650D02*
X112000000Y-128012350D01*
X100500000Y-122000000D02*
X100000000Y-122500000D01*
X105500000Y-98000000D02*
X115527300Y-98000000D01*
X95406100Y-120906100D02*
X95406100Y-92344200D01*
X115527200Y-106472800D02*
X115527200Y-102869900D01*
X97960000Y-116000000D02*
X97960000Y-105540000D01*
X92500000Y-91000000D02*
X94500000Y-89000000D01*
X113401400Y-126610950D02*
X111818700Y-125028350D01*
X98500000Y-89000000D02*
X100000000Y-90500000D01*
X112000000Y-128012350D02*
X113401400Y-126610950D01*
X94500000Y-89000000D02*
X98500000Y-89000000D01*
X98500000Y-89000000D02*
X100000000Y-87500000D01*
X113987000Y-93594000D02*
X115527300Y-95134300D01*
X95406100Y-92344200D02*
X95500100Y-92250200D01*
X96877100Y-137573000D02*
X92500000Y-133195900D01*
X115527300Y-95134300D02*
X115527300Y-102869800D01*
X92500000Y-133195900D02*
X92500000Y-91000000D01*
X111818700Y-125028350D02*
X111818700Y-110181300D01*
X115527300Y-98000000D02*
X115527300Y-95134300D01*
X111818700Y-110181300D02*
X115527200Y-106472800D01*
X100500000Y-116000000D02*
X100500000Y-122000000D01*
D22*
%TO.N,GND*%
X146515000Y-126485000D02*
X146515000Y-126233000D01*
D23*
X146515000Y-126485000D02*
X146500000Y-126500000D01*
D21*
%TO.N,-12V*%
X108040200Y-126953150D02*
X108040200Y-137987650D01*
X112987200Y-106066150D02*
X112987200Y-102869900D01*
X109099900Y-125100950D02*
X109099900Y-109953450D01*
X109099900Y-109953450D02*
X112987200Y-106066150D01*
X107643900Y-126556850D02*
X109099900Y-125100950D01*
%TD*%
%TA.AperFunction,Conductor*%
%TO.N,GND*%
G36*
X151441621Y-75520502D02*
G01*
X151488114Y-75574158D01*
X151499500Y-75626500D01*
X151499500Y-152373500D01*
X151479498Y-152441621D01*
X151425842Y-152488114D01*
X151373500Y-152499500D01*
X90626500Y-152499500D01*
X90558379Y-152479498D01*
X90511886Y-152425842D01*
X90500500Y-152373500D01*
X90500500Y-147878709D01*
X93149500Y-147878709D01*
X93149500Y-148121290D01*
X93181160Y-148361782D01*
X93243944Y-148596095D01*
X93243945Y-148596097D01*
X93243946Y-148596100D01*
X93336776Y-148820212D01*
X93336777Y-148820213D01*
X93336782Y-148820224D01*
X93458061Y-149030285D01*
X93458063Y-149030288D01*
X93458064Y-149030289D01*
X93605735Y-149222738D01*
X93605739Y-149222742D01*
X93605744Y-149222748D01*
X93777251Y-149394255D01*
X93777256Y-149394259D01*
X93777262Y-149394265D01*
X93969711Y-149541936D01*
X93969714Y-149541938D01*
X94179775Y-149663217D01*
X94179779Y-149663218D01*
X94179788Y-149663224D01*
X94403900Y-149756054D01*
X94638211Y-149818838D01*
X94638215Y-149818838D01*
X94638217Y-149818839D01*
X94700202Y-149826999D01*
X94878712Y-149850500D01*
X94878719Y-149850500D01*
X95121281Y-149850500D01*
X95121288Y-149850500D01*
X95338637Y-149821885D01*
X95361782Y-149818839D01*
X95361782Y-149818838D01*
X95361789Y-149818838D01*
X95596100Y-149756054D01*
X95820212Y-149663224D01*
X96030289Y-149541936D01*
X96222738Y-149394265D01*
X96394265Y-149222738D01*
X96541936Y-149030289D01*
X96663224Y-148820212D01*
X96756054Y-148596100D01*
X96818838Y-148361789D01*
X96850500Y-148121288D01*
X96850500Y-147878712D01*
X96850500Y-147878709D01*
X145149500Y-147878709D01*
X145149500Y-148121290D01*
X145181160Y-148361782D01*
X145243944Y-148596095D01*
X145243945Y-148596097D01*
X145243946Y-148596100D01*
X145336776Y-148820212D01*
X145336777Y-148820213D01*
X145336782Y-148820224D01*
X145458061Y-149030285D01*
X145458063Y-149030288D01*
X145458064Y-149030289D01*
X145605735Y-149222738D01*
X145605739Y-149222742D01*
X145605744Y-149222748D01*
X145777251Y-149394255D01*
X145777256Y-149394259D01*
X145777262Y-149394265D01*
X145969711Y-149541936D01*
X145969714Y-149541938D01*
X146179775Y-149663217D01*
X146179779Y-149663218D01*
X146179788Y-149663224D01*
X146403900Y-149756054D01*
X146638211Y-149818838D01*
X146638215Y-149818838D01*
X146638217Y-149818839D01*
X146700202Y-149826999D01*
X146878712Y-149850500D01*
X146878719Y-149850500D01*
X147121281Y-149850500D01*
X147121288Y-149850500D01*
X147338637Y-149821885D01*
X147361782Y-149818839D01*
X147361782Y-149818838D01*
X147361789Y-149818838D01*
X147596100Y-149756054D01*
X147820212Y-149663224D01*
X148030289Y-149541936D01*
X148222738Y-149394265D01*
X148394265Y-149222738D01*
X148541936Y-149030289D01*
X148663224Y-148820212D01*
X148756054Y-148596100D01*
X148818838Y-148361789D01*
X148850500Y-148121288D01*
X148850500Y-147878712D01*
X148818838Y-147638211D01*
X148756054Y-147403900D01*
X148663224Y-147179788D01*
X148663218Y-147179779D01*
X148663217Y-147179775D01*
X148541938Y-146969714D01*
X148541936Y-146969711D01*
X148394265Y-146777262D01*
X148394259Y-146777256D01*
X148394255Y-146777251D01*
X148222748Y-146605744D01*
X148222742Y-146605739D01*
X148222738Y-146605735D01*
X148030289Y-146458064D01*
X148030288Y-146458063D01*
X148030285Y-146458061D01*
X147820224Y-146336782D01*
X147820216Y-146336778D01*
X147820212Y-146336776D01*
X147596100Y-146243946D01*
X147596097Y-146243945D01*
X147596095Y-146243944D01*
X147361782Y-146181160D01*
X147121290Y-146149500D01*
X147121288Y-146149500D01*
X146878712Y-146149500D01*
X146878709Y-146149500D01*
X146638217Y-146181160D01*
X146403904Y-146243944D01*
X146403900Y-146243946D01*
X146179786Y-146336777D01*
X146179775Y-146336782D01*
X145969714Y-146458061D01*
X145777262Y-146605735D01*
X145777251Y-146605744D01*
X145605744Y-146777251D01*
X145605735Y-146777262D01*
X145458061Y-146969714D01*
X145336782Y-147179775D01*
X145336777Y-147179786D01*
X145243946Y-147403900D01*
X145243944Y-147403904D01*
X145181160Y-147638217D01*
X145149500Y-147878709D01*
X96850500Y-147878709D01*
X96818838Y-147638211D01*
X96756054Y-147403900D01*
X96663224Y-147179788D01*
X96663218Y-147179779D01*
X96663217Y-147179775D01*
X96541938Y-146969714D01*
X96541936Y-146969711D01*
X96394265Y-146777262D01*
X96394259Y-146777256D01*
X96394255Y-146777251D01*
X96222748Y-146605744D01*
X96222742Y-146605739D01*
X96222738Y-146605735D01*
X96030289Y-146458064D01*
X96030288Y-146458063D01*
X96030285Y-146458061D01*
X95820224Y-146336782D01*
X95820216Y-146336778D01*
X95820212Y-146336776D01*
X95596100Y-146243946D01*
X95596097Y-146243945D01*
X95596095Y-146243944D01*
X95361782Y-146181160D01*
X95121290Y-146149500D01*
X95121288Y-146149500D01*
X94878712Y-146149500D01*
X94878709Y-146149500D01*
X94638217Y-146181160D01*
X94403904Y-146243944D01*
X94403900Y-146243946D01*
X94179786Y-146336777D01*
X94179775Y-146336782D01*
X93969714Y-146458061D01*
X93777262Y-146605735D01*
X93777251Y-146605744D01*
X93605744Y-146777251D01*
X93605735Y-146777262D01*
X93458061Y-146969714D01*
X93336782Y-147179775D01*
X93336777Y-147179786D01*
X93243946Y-147403900D01*
X93243944Y-147403904D01*
X93181160Y-147638217D01*
X93149500Y-147878709D01*
X90500500Y-147878709D01*
X90500500Y-140500000D01*
X127974744Y-140500000D01*
X127994544Y-140776842D01*
X128053538Y-141048033D01*
X128053538Y-141048034D01*
X128150533Y-141308088D01*
X128150537Y-141308098D01*
X128283541Y-141551677D01*
X128283545Y-141551682D01*
X128449875Y-141773873D01*
X128449883Y-141773882D01*
X128646117Y-141970116D01*
X128646126Y-141970124D01*
X128646128Y-141970126D01*
X128868315Y-142136453D01*
X128868317Y-142136454D01*
X128868322Y-142136458D01*
X129111901Y-142269462D01*
X129111904Y-142269463D01*
X129111911Y-142269467D01*
X129371958Y-142366459D01*
X129371961Y-142366459D01*
X129371965Y-142366461D01*
X129528913Y-142400602D01*
X129643161Y-142425456D01*
X129920000Y-142445256D01*
X130196839Y-142425456D01*
X130468033Y-142366461D01*
X130468034Y-142366461D01*
X130468035Y-142366460D01*
X130468042Y-142366459D01*
X130728089Y-142269467D01*
X130757170Y-142253587D01*
X130971677Y-142136458D01*
X130971679Y-142136456D01*
X130971685Y-142136453D01*
X131193872Y-141970126D01*
X131390126Y-141773872D01*
X131556453Y-141551685D01*
X131556456Y-141551679D01*
X131556458Y-141551677D01*
X131689462Y-141308098D01*
X131689461Y-141308098D01*
X131689467Y-141308089D01*
X131786459Y-141048042D01*
X131845456Y-140776839D01*
X131865256Y-140500000D01*
X138134744Y-140500000D01*
X138154544Y-140776842D01*
X138213538Y-141048033D01*
X138213538Y-141048034D01*
X138310533Y-141308088D01*
X138310537Y-141308098D01*
X138443541Y-141551677D01*
X138443545Y-141551682D01*
X138609875Y-141773873D01*
X138609883Y-141773882D01*
X138806117Y-141970116D01*
X138806126Y-141970124D01*
X138806128Y-141970126D01*
X139028315Y-142136453D01*
X139028317Y-142136454D01*
X139028322Y-142136458D01*
X139271901Y-142269462D01*
X139271904Y-142269463D01*
X139271911Y-142269467D01*
X139531958Y-142366459D01*
X139531961Y-142366459D01*
X139531965Y-142366461D01*
X139688913Y-142400602D01*
X139803161Y-142425456D01*
X140080000Y-142445256D01*
X140356839Y-142425456D01*
X140628033Y-142366461D01*
X140628034Y-142366461D01*
X140628035Y-142366460D01*
X140628042Y-142366459D01*
X140888089Y-142269467D01*
X140917170Y-142253587D01*
X141131677Y-142136458D01*
X141131679Y-142136456D01*
X141131685Y-142136453D01*
X141353872Y-141970126D01*
X141550126Y-141773872D01*
X141716453Y-141551685D01*
X141716456Y-141551679D01*
X141716458Y-141551677D01*
X141849462Y-141308098D01*
X141849461Y-141308098D01*
X141849467Y-141308089D01*
X141946459Y-141048042D01*
X142005456Y-140776839D01*
X142025256Y-140500000D01*
X142005456Y-140223161D01*
X141975574Y-140085796D01*
X141946461Y-139951966D01*
X141946461Y-139951965D01*
X141946459Y-139951961D01*
X141946459Y-139951958D01*
X141849467Y-139691911D01*
X141849462Y-139691901D01*
X141716458Y-139448322D01*
X141716454Y-139448317D01*
X141700743Y-139427329D01*
X141550126Y-139226128D01*
X141550124Y-139226126D01*
X141550116Y-139226117D01*
X141353882Y-139029883D01*
X141353873Y-139029875D01*
X141246786Y-138949711D01*
X141131685Y-138863547D01*
X141131683Y-138863546D01*
X141131682Y-138863545D01*
X141131677Y-138863541D01*
X140888098Y-138730537D01*
X140888091Y-138730534D01*
X140888089Y-138730533D01*
X140628042Y-138633541D01*
X140628034Y-138633538D01*
X140356841Y-138574544D01*
X140356843Y-138574544D01*
X140080000Y-138554744D01*
X139803157Y-138574544D01*
X139531966Y-138633538D01*
X139531965Y-138633538D01*
X139271911Y-138730533D01*
X139271901Y-138730537D01*
X139028322Y-138863541D01*
X139028317Y-138863545D01*
X138806126Y-139029875D01*
X138806117Y-139029883D01*
X138609883Y-139226117D01*
X138609875Y-139226126D01*
X138443545Y-139448317D01*
X138443541Y-139448322D01*
X138310537Y-139691901D01*
X138310533Y-139691911D01*
X138213538Y-139951965D01*
X138213538Y-139951966D01*
X138154544Y-140223157D01*
X138134744Y-140500000D01*
X131865256Y-140500000D01*
X131845456Y-140223161D01*
X131815574Y-140085796D01*
X131786461Y-139951966D01*
X131786461Y-139951965D01*
X131786459Y-139951961D01*
X131786459Y-139951958D01*
X131689467Y-139691911D01*
X131689462Y-139691901D01*
X131556458Y-139448322D01*
X131556454Y-139448317D01*
X131540743Y-139427329D01*
X131390126Y-139226128D01*
X131390124Y-139226126D01*
X131390116Y-139226117D01*
X131193882Y-139029883D01*
X131193873Y-139029875D01*
X131086786Y-138949711D01*
X130971685Y-138863547D01*
X130971683Y-138863546D01*
X130971682Y-138863545D01*
X130971677Y-138863541D01*
X130728098Y-138730537D01*
X130728091Y-138730534D01*
X130728089Y-138730533D01*
X130468042Y-138633541D01*
X130468034Y-138633538D01*
X130196841Y-138574544D01*
X130196843Y-138574544D01*
X129920000Y-138554744D01*
X129643157Y-138574544D01*
X129371966Y-138633538D01*
X129371965Y-138633538D01*
X129111911Y-138730533D01*
X129111901Y-138730537D01*
X128868322Y-138863541D01*
X128868317Y-138863545D01*
X128646126Y-139029875D01*
X128646117Y-139029883D01*
X128449883Y-139226117D01*
X128449875Y-139226126D01*
X128283545Y-139448317D01*
X128283541Y-139448322D01*
X128150537Y-139691901D01*
X128150533Y-139691911D01*
X128053538Y-139951965D01*
X128053538Y-139951966D01*
X127994544Y-140223157D01*
X127974744Y-140500000D01*
X90500500Y-140500000D01*
X90500500Y-90881908D01*
X90999500Y-90881908D01*
X90999500Y-133077808D01*
X90999500Y-133313992D01*
X91036447Y-133547268D01*
X91109432Y-133771892D01*
X91109433Y-133771893D01*
X91216659Y-133982337D01*
X91355484Y-134173412D01*
X91355487Y-134173415D01*
X94753635Y-137571562D01*
X94787661Y-137633874D01*
X94788120Y-137685233D01*
X94784066Y-137705615D01*
X94764771Y-137999996D01*
X94764771Y-138000003D01*
X94784065Y-138294375D01*
X94784067Y-138294387D01*
X94841618Y-138583720D01*
X94841620Y-138583727D01*
X94891455Y-138730533D01*
X94936448Y-138863077D01*
X94946006Y-138882459D01*
X95066926Y-139127662D01*
X95230825Y-139372955D01*
X95230827Y-139372957D01*
X95425342Y-139594758D01*
X95647143Y-139789273D01*
X95892435Y-139953172D01*
X96157023Y-140083652D01*
X96436378Y-140178481D01*
X96725720Y-140236034D01*
X96893937Y-140247059D01*
X97020097Y-140255329D01*
X97020100Y-140255329D01*
X97020103Y-140255329D01*
X97130492Y-140248093D01*
X97314480Y-140236034D01*
X97603822Y-140178481D01*
X97883177Y-140083652D01*
X98147765Y-139953172D01*
X98393057Y-139789273D01*
X98608804Y-139600066D01*
X98673206Y-139570191D01*
X98743539Y-139579877D01*
X98797471Y-139626049D01*
X98803561Y-139636462D01*
X98890621Y-139803131D01*
X99019147Y-139960752D01*
X99176768Y-140089278D01*
X99357034Y-140183440D01*
X99552571Y-140239390D01*
X99671896Y-140249999D01*
X99671903Y-140250000D01*
X100729950Y-140250000D01*
X100729950Y-138867914D01*
X100891258Y-138900000D01*
X101068542Y-138900000D01*
X101229850Y-138867914D01*
X101229850Y-140250000D01*
X102287897Y-140250000D01*
X102287903Y-140249999D01*
X102407226Y-140239390D01*
X102407229Y-140239390D01*
X102602765Y-140183440D01*
X102783031Y-140089278D01*
X102940652Y-139960752D01*
X103069178Y-139803131D01*
X103163340Y-139622865D01*
X103219290Y-139427329D01*
X103219290Y-139427326D01*
X103229899Y-139308003D01*
X103229900Y-139307997D01*
X103229900Y-138249950D01*
X101847814Y-138249950D01*
X101879900Y-138088642D01*
X101879900Y-137911358D01*
X101847814Y-137750050D01*
X103229900Y-137750050D01*
X103229900Y-136692003D01*
X103229899Y-136691996D01*
X103219290Y-136572673D01*
X103219290Y-136572670D01*
X103163340Y-136377134D01*
X103069178Y-136196868D01*
X102940652Y-136039247D01*
X102783031Y-135910721D01*
X102602765Y-135816559D01*
X102407228Y-135760609D01*
X102287903Y-135750000D01*
X101229850Y-135750000D01*
X101229850Y-137132085D01*
X101068542Y-137100000D01*
X100891258Y-137100000D01*
X100729950Y-137132085D01*
X100729950Y-135750000D01*
X99671896Y-135750000D01*
X99552573Y-135760609D01*
X99552570Y-135760609D01*
X99357034Y-135816559D01*
X99176768Y-135910721D01*
X99019147Y-136039247D01*
X98890621Y-136196869D01*
X98803561Y-136363537D01*
X98754292Y-136414655D01*
X98685208Y-136431022D01*
X98618242Y-136407441D01*
X98608802Y-136399931D01*
X98393055Y-136210725D01*
X98147762Y-136046826D01*
X97883183Y-135916351D01*
X97883177Y-135916348D01*
X97788436Y-135884187D01*
X97603827Y-135821520D01*
X97603820Y-135821518D01*
X97314493Y-135763968D01*
X97314476Y-135763965D01*
X97228687Y-135758342D01*
X97162020Y-135733927D01*
X97147834Y-135721707D01*
X94037405Y-132611278D01*
X94003379Y-132548966D01*
X94000500Y-132522183D01*
X94000500Y-121912048D01*
X94020502Y-121843927D01*
X94074158Y-121797434D01*
X94144432Y-121787330D01*
X94209012Y-121816824D01*
X94228434Y-121837985D01*
X94261583Y-121883610D01*
X94261585Y-121883612D01*
X94261587Y-121883615D01*
X96022487Y-123644515D01*
X96022490Y-123644517D01*
X96213566Y-123783343D01*
X96410729Y-123883802D01*
X96410728Y-123883802D01*
X96417624Y-123887315D01*
X96424008Y-123890568D01*
X96648632Y-123963553D01*
X96881908Y-124000500D01*
X96881911Y-124000500D01*
X100118089Y-124000500D01*
X100118092Y-124000500D01*
X100351368Y-123963553D01*
X100575992Y-123890568D01*
X100786434Y-123783343D01*
X100977510Y-123644517D01*
X101644518Y-122977510D01*
X101783343Y-122786433D01*
X101890568Y-122575992D01*
X101963553Y-122351368D01*
X102000500Y-122118092D01*
X102000500Y-121881908D01*
X102000500Y-118376000D01*
X102020502Y-118307879D01*
X102074158Y-118261386D01*
X102126500Y-118250000D01*
X102790050Y-118250000D01*
X102790050Y-116654141D01*
X102835818Y-116673099D01*
X102971056Y-116700000D01*
X103108944Y-116700000D01*
X103244182Y-116673099D01*
X103289950Y-116654141D01*
X103289950Y-118250000D01*
X104097997Y-118250000D01*
X104098003Y-118249999D01*
X104217326Y-118239390D01*
X104217329Y-118239390D01*
X104412865Y-118183440D01*
X104593131Y-118089278D01*
X104750752Y-117960752D01*
X104879278Y-117803131D01*
X104973440Y-117622865D01*
X105029390Y-117427329D01*
X105029390Y-117427326D01*
X105039999Y-117308003D01*
X105040000Y-117307997D01*
X105040000Y-116249950D01*
X103694141Y-116249950D01*
X103713099Y-116204182D01*
X103740000Y-116068944D01*
X103740000Y-115931056D01*
X103713099Y-115795818D01*
X103694141Y-115750050D01*
X105040000Y-115750050D01*
X105040000Y-114692003D01*
X105039999Y-114691996D01*
X105029390Y-114572673D01*
X105029390Y-114572670D01*
X104973440Y-114377134D01*
X104879278Y-114196868D01*
X104750752Y-114039247D01*
X104593131Y-113910721D01*
X104412865Y-113816559D01*
X104217328Y-113760609D01*
X104098003Y-113750000D01*
X103289950Y-113750000D01*
X103289950Y-115345858D01*
X103244182Y-115326901D01*
X103108944Y-115300000D01*
X102971056Y-115300000D01*
X102835818Y-115326901D01*
X102790050Y-115345858D01*
X102790050Y-113750000D01*
X101981996Y-113750000D01*
X101862673Y-113760609D01*
X101862670Y-113760609D01*
X101667134Y-113816559D01*
X101486867Y-113910722D01*
X101477902Y-113918032D01*
X101412465Y-113945574D01*
X101350066Y-113936784D01*
X101287147Y-113910722D01*
X101144419Y-113851602D01*
X100891116Y-113783730D01*
X100891114Y-113783729D01*
X100891108Y-113783728D01*
X100631121Y-113749500D01*
X100631120Y-113749500D01*
X100368880Y-113749500D01*
X100368878Y-113749500D01*
X100108891Y-113783728D01*
X100108884Y-113783730D01*
X99855581Y-113851602D01*
X99634716Y-113943087D01*
X99564128Y-113950676D01*
X99500641Y-113918897D01*
X99464414Y-113857839D01*
X99460500Y-113826678D01*
X99460500Y-106213717D01*
X99480502Y-106145596D01*
X99497405Y-106124622D01*
X106084622Y-99537405D01*
X106146934Y-99503379D01*
X106173717Y-99500500D01*
X113900800Y-99500500D01*
X113968921Y-99520502D01*
X114015414Y-99574158D01*
X114026800Y-99626500D01*
X114026800Y-100657366D01*
X114006798Y-100725487D01*
X113953142Y-100771980D01*
X113882868Y-100782084D01*
X113837805Y-100766488D01*
X113829581Y-100761740D01*
X113829571Y-100761735D01*
X113742060Y-100725487D01*
X113599407Y-100666398D01*
X113358765Y-100601918D01*
X113358758Y-100601916D01*
X113111767Y-100569400D01*
X113111765Y-100569400D01*
X112862635Y-100569400D01*
X112862632Y-100569400D01*
X112615641Y-100601916D01*
X112466715Y-100641821D01*
X112374993Y-100666398D01*
X112144830Y-100761735D01*
X112144825Y-100761737D01*
X112144814Y-100761742D01*
X111929072Y-100886300D01*
X111799907Y-100985412D01*
X111733687Y-101011012D01*
X111664138Y-100996747D01*
X111646500Y-100985411D01*
X111504851Y-100876719D01*
X111504845Y-100876715D01*
X111289163Y-100752191D01*
X111289153Y-100752186D01*
X111059044Y-100656872D01*
X111059040Y-100656871D01*
X110818459Y-100592407D01*
X110696950Y-100576410D01*
X110696950Y-102311388D01*
X110678591Y-102300789D01*
X110525991Y-102259900D01*
X110368009Y-102259900D01*
X110215409Y-102300789D01*
X110197050Y-102311388D01*
X110197050Y-100576411D01*
X110197049Y-100576410D01*
X110075540Y-100592407D01*
X109834959Y-100656871D01*
X109834955Y-100656872D01*
X109604846Y-100752186D01*
X109604836Y-100752191D01*
X109389154Y-100876715D01*
X109389148Y-100876720D01*
X109191560Y-101028334D01*
X109191539Y-101028353D01*
X109015453Y-101204439D01*
X109015434Y-101204460D01*
X108863820Y-101402048D01*
X108863815Y-101402054D01*
X108739291Y-101617736D01*
X108739286Y-101617746D01*
X108643972Y-101847855D01*
X108643971Y-101847859D01*
X108579507Y-102088439D01*
X108547000Y-102335364D01*
X108547000Y-102609950D01*
X109898489Y-102609950D01*
X109887889Y-102628309D01*
X109847000Y-102780909D01*
X109847000Y-102938891D01*
X109887889Y-103091491D01*
X109898489Y-103109850D01*
X108547000Y-103109850D01*
X108547000Y-103384435D01*
X108579507Y-103631360D01*
X108643971Y-103871940D01*
X108643972Y-103871944D01*
X108739286Y-104102053D01*
X108739291Y-104102063D01*
X108863815Y-104317745D01*
X108863820Y-104317751D01*
X109015434Y-104515339D01*
X109015453Y-104515360D01*
X109191539Y-104691446D01*
X109191560Y-104691465D01*
X109389148Y-104843079D01*
X109389154Y-104843084D01*
X109604836Y-104967608D01*
X109604846Y-104967613D01*
X109834955Y-105062927D01*
X109834959Y-105062928D01*
X110075537Y-105127391D01*
X110075541Y-105127392D01*
X110197050Y-105143388D01*
X110197050Y-103408411D01*
X110215409Y-103419011D01*
X110368009Y-103459900D01*
X110525991Y-103459900D01*
X110678591Y-103419011D01*
X110696950Y-103408411D01*
X110696950Y-105143387D01*
X110818458Y-105127392D01*
X110818462Y-105127391D01*
X111059040Y-105062928D01*
X111059044Y-105062927D01*
X111289153Y-104967613D01*
X111289165Y-104967608D01*
X111297697Y-104962682D01*
X111366691Y-104945942D01*
X111433784Y-104969160D01*
X111477673Y-105024966D01*
X111486700Y-105071799D01*
X111486700Y-105392432D01*
X111466698Y-105460553D01*
X111449795Y-105481527D01*
X107955387Y-108975934D01*
X107955384Y-108975937D01*
X107816557Y-109167015D01*
X107816554Y-109167019D01*
X107797820Y-109203789D01*
X107709335Y-109377450D01*
X107709332Y-109377458D01*
X107636348Y-109602078D01*
X107599400Y-109835361D01*
X107599400Y-122396919D01*
X107579398Y-122465040D01*
X107525742Y-122511533D01*
X107509317Y-122514435D01*
X107497650Y-122525219D01*
X107497650Y-123844914D01*
X107493306Y-123840570D01*
X107402094Y-123787909D01*
X107300361Y-123760650D01*
X107195039Y-123760650D01*
X107093306Y-123787909D01*
X107002094Y-123840570D01*
X106997750Y-123844914D01*
X106997750Y-122525219D01*
X106997748Y-122525218D01*
X106988790Y-122525923D01*
X106736246Y-122586553D01*
X106496300Y-122685942D01*
X106274853Y-122821645D01*
X106274851Y-122821646D01*
X106077365Y-122990315D01*
X105908696Y-123187801D01*
X105908695Y-123187803D01*
X105772992Y-123409250D01*
X105673603Y-123649196D01*
X105612973Y-123901740D01*
X105612268Y-123910698D01*
X105612270Y-123910700D01*
X106931964Y-123910700D01*
X106927620Y-123915044D01*
X106874959Y-124006256D01*
X106847700Y-124107989D01*
X106847700Y-124213311D01*
X106874959Y-124315044D01*
X106927620Y-124406256D01*
X106931964Y-124410600D01*
X105612270Y-124410600D01*
X105612268Y-124410601D01*
X105612973Y-124419559D01*
X105673603Y-124672103D01*
X105772994Y-124912052D01*
X105884697Y-125094337D01*
X105903235Y-125162870D01*
X105884697Y-125226005D01*
X105772547Y-125409019D01*
X105673127Y-125649039D01*
X105643738Y-125771454D01*
X105612479Y-125901656D01*
X105592096Y-126160650D01*
X105612479Y-126419644D01*
X105673127Y-126672260D01*
X105772546Y-126912278D01*
X105772547Y-126912279D01*
X105908285Y-127133786D01*
X105908290Y-127133793D01*
X106077010Y-127331339D01*
X106274556Y-127500059D01*
X106274560Y-127500062D01*
X106479535Y-127625670D01*
X106527166Y-127678316D01*
X106539700Y-127733102D01*
X106539700Y-136253139D01*
X106519698Y-136321260D01*
X106496779Y-136347870D01*
X106445442Y-136392891D01*
X106250921Y-136614700D01*
X106087026Y-136859988D01*
X105956547Y-137124573D01*
X105861720Y-137403922D01*
X105861718Y-137403929D01*
X105804168Y-137693256D01*
X105804167Y-137693263D01*
X105804166Y-137693270D01*
X105791168Y-137891574D01*
X105784871Y-137987646D01*
X105784871Y-137987653D01*
X105804165Y-138282025D01*
X105804168Y-138282043D01*
X105861718Y-138571370D01*
X105861720Y-138571377D01*
X105905069Y-138699076D01*
X105956548Y-138850727D01*
X105962636Y-138863073D01*
X106087026Y-139115312D01*
X106250925Y-139360605D01*
X106250927Y-139360607D01*
X106445442Y-139582408D01*
X106570306Y-139691911D01*
X106667244Y-139776924D01*
X106706466Y-139803131D01*
X106912535Y-139940822D01*
X107177123Y-140071302D01*
X107456478Y-140166131D01*
X107745820Y-140223684D01*
X107914037Y-140234709D01*
X108040197Y-140242979D01*
X108040200Y-140242979D01*
X108040203Y-140242979D01*
X108150592Y-140235743D01*
X108334580Y-140223684D01*
X108623922Y-140166131D01*
X108903277Y-140071302D01*
X109167865Y-139940822D01*
X109413157Y-139776923D01*
X109634958Y-139582408D01*
X109829473Y-139360607D01*
X109915386Y-139232029D01*
X109969862Y-139186502D01*
X110040305Y-139177654D01*
X110104349Y-139208295D01*
X110124912Y-139232027D01*
X110210827Y-139360607D01*
X110405342Y-139582408D01*
X110530206Y-139691911D01*
X110627144Y-139776924D01*
X110666366Y-139803131D01*
X110872435Y-139940822D01*
X111137023Y-140071302D01*
X111416378Y-140166131D01*
X111705720Y-140223684D01*
X111873937Y-140234709D01*
X112000097Y-140242979D01*
X112000100Y-140242979D01*
X112000103Y-140242979D01*
X112110492Y-140235743D01*
X112294480Y-140223684D01*
X112583822Y-140166131D01*
X112863177Y-140071302D01*
X113127765Y-139940822D01*
X113373057Y-139776923D01*
X113594858Y-139582408D01*
X113789373Y-139360607D01*
X113875535Y-139231655D01*
X113930011Y-139186128D01*
X114000454Y-139177279D01*
X114064499Y-139207920D01*
X114085065Y-139231655D01*
X114171020Y-139360296D01*
X114365496Y-139582053D01*
X114587253Y-139776529D01*
X114832488Y-139940389D01*
X115097008Y-140070835D01*
X115097018Y-140070839D01*
X115376302Y-140165645D01*
X115376306Y-140165646D01*
X115665587Y-140223188D01*
X115665595Y-140223189D01*
X115709948Y-140226095D01*
X115709950Y-140226094D01*
X115709950Y-138855564D01*
X115871258Y-138887650D01*
X116048542Y-138887650D01*
X116209850Y-138855564D01*
X116209850Y-140226094D01*
X116209851Y-140226095D01*
X116254204Y-140223189D01*
X116254212Y-140223188D01*
X116543493Y-140165646D01*
X116543497Y-140165645D01*
X116822781Y-140070839D01*
X116822791Y-140070835D01*
X117087311Y-139940389D01*
X117332546Y-139776529D01*
X117554303Y-139582053D01*
X117748778Y-139360297D01*
X117834783Y-139231581D01*
X117889260Y-139186053D01*
X117959703Y-139177204D01*
X118023747Y-139207845D01*
X118044314Y-139231580D01*
X118130525Y-139360605D01*
X118130527Y-139360607D01*
X118325042Y-139582408D01*
X118449906Y-139691911D01*
X118546844Y-139776924D01*
X118586066Y-139803131D01*
X118792135Y-139940822D01*
X119056723Y-140071302D01*
X119336078Y-140166131D01*
X119625420Y-140223684D01*
X119793637Y-140234709D01*
X119919797Y-140242979D01*
X119919800Y-140242979D01*
X119919803Y-140242979D01*
X120030192Y-140235743D01*
X120214180Y-140223684D01*
X120503522Y-140166131D01*
X120782877Y-140071302D01*
X121047465Y-139940822D01*
X121292757Y-139776923D01*
X121514558Y-139582408D01*
X121709073Y-139360607D01*
X121872972Y-139115315D01*
X122003452Y-138850727D01*
X122098281Y-138571372D01*
X122112478Y-138500000D01*
X142668880Y-138500000D01*
X142689332Y-138772917D01*
X142750232Y-139039733D01*
X142750233Y-139039735D01*
X142850216Y-139294489D01*
X142850219Y-139294497D01*
X142987055Y-139531503D01*
X142987057Y-139531506D01*
X142987058Y-139531507D01*
X143157694Y-139745478D01*
X143358315Y-139931627D01*
X143358321Y-139931631D01*
X143584430Y-140085790D01*
X143584434Y-140085792D01*
X143584440Y-140085796D01*
X143831017Y-140204542D01*
X143831020Y-140204542D01*
X143831025Y-140204545D01*
X144092526Y-140285207D01*
X144092528Y-140285207D01*
X144092537Y-140285210D01*
X144363160Y-140326000D01*
X144363165Y-140326000D01*
X144636835Y-140326000D01*
X144636840Y-140326000D01*
X144907463Y-140285210D01*
X144909052Y-140284720D01*
X145168974Y-140204545D01*
X145168976Y-140204544D01*
X145168983Y-140204542D01*
X145415560Y-140085796D01*
X145641685Y-139931627D01*
X145684667Y-139891745D01*
X145748205Y-139860075D01*
X145818782Y-139867784D01*
X145856069Y-139891747D01*
X145898622Y-139931230D01*
X145898634Y-139931240D01*
X146124688Y-140085361D01*
X146124696Y-140085366D01*
X146371191Y-140204071D01*
X146632642Y-140284720D01*
X146632651Y-140284722D01*
X146790050Y-140308444D01*
X146790050Y-138912949D01*
X146853723Y-138949711D01*
X146976465Y-138982600D01*
X147103535Y-138982600D01*
X147226277Y-138949711D01*
X147289950Y-138912949D01*
X147289950Y-140308444D01*
X147447348Y-140284722D01*
X147447357Y-140284720D01*
X147708805Y-140204072D01*
X147955304Y-140085366D01*
X147955305Y-140085365D01*
X148181370Y-139931236D01*
X148381940Y-139745134D01*
X148552525Y-139531227D01*
X148552530Y-139531220D01*
X148689332Y-139294273D01*
X148689334Y-139294269D01*
X148789288Y-139039587D01*
X148789290Y-139039582D01*
X148850171Y-138772841D01*
X148850172Y-138772833D01*
X148851887Y-138749950D01*
X147452949Y-138749950D01*
X147489711Y-138686277D01*
X147522600Y-138563535D01*
X147522600Y-138436465D01*
X147489711Y-138313723D01*
X147452949Y-138250050D01*
X148851887Y-138250050D01*
X148850172Y-138227166D01*
X148850171Y-138227158D01*
X148789290Y-137960417D01*
X148789288Y-137960412D01*
X148689334Y-137705730D01*
X148689332Y-137705726D01*
X148552530Y-137468779D01*
X148552525Y-137468772D01*
X148381940Y-137254865D01*
X148181370Y-137068763D01*
X148181371Y-137068763D01*
X147955305Y-136914634D01*
X147955304Y-136914633D01*
X147708805Y-136795927D01*
X147447357Y-136715279D01*
X147447349Y-136715278D01*
X147289950Y-136691554D01*
X147289950Y-138087050D01*
X147226277Y-138050289D01*
X147103535Y-138017400D01*
X146976465Y-138017400D01*
X146853723Y-138050289D01*
X146790050Y-138087050D01*
X146790050Y-136691554D01*
X146632650Y-136715278D01*
X146632642Y-136715279D01*
X146371191Y-136795928D01*
X146124696Y-136914633D01*
X146124688Y-136914638D01*
X145898631Y-137068761D01*
X145856067Y-137108254D01*
X145792526Y-137139924D01*
X145721949Y-137132214D01*
X145684666Y-137108253D01*
X145641690Y-137068378D01*
X145641685Y-137068373D01*
X145641678Y-137068368D01*
X145415569Y-136914209D01*
X145415561Y-136914205D01*
X145415562Y-136914205D01*
X145415560Y-136914204D01*
X145282841Y-136850289D01*
X145168986Y-136795459D01*
X145168974Y-136795454D01*
X144907473Y-136714792D01*
X144907465Y-136714790D01*
X144907463Y-136714790D01*
X144636840Y-136674000D01*
X144363160Y-136674000D01*
X144092537Y-136714790D01*
X144092535Y-136714790D01*
X144092526Y-136714792D01*
X143831025Y-136795454D01*
X143831013Y-136795459D01*
X143584438Y-136914205D01*
X143584430Y-136914209D01*
X143358321Y-137068368D01*
X143358316Y-137068372D01*
X143315335Y-137108253D01*
X143157694Y-137254522D01*
X143120690Y-137300924D01*
X142987055Y-137468496D01*
X142850219Y-137705502D01*
X142850216Y-137705510D01*
X142750233Y-137960264D01*
X142750232Y-137960266D01*
X142689332Y-138227082D01*
X142668880Y-138500000D01*
X122112478Y-138500000D01*
X122155834Y-138282030D01*
X122173179Y-138017400D01*
X122175129Y-137987653D01*
X122175129Y-137987646D01*
X122168831Y-137891574D01*
X122155834Y-137693270D01*
X122098281Y-137403928D01*
X122003452Y-137124573D01*
X121872972Y-136859986D01*
X121775957Y-136714792D01*
X121709078Y-136614700D01*
X121709076Y-136614698D01*
X121709073Y-136614693D01*
X121514558Y-136392892D01*
X121496590Y-136377134D01*
X121463221Y-136347870D01*
X121425194Y-136287916D01*
X121420300Y-136253139D01*
X121420300Y-127286228D01*
X121438867Y-127220394D01*
X121491937Y-127133790D01*
X121549854Y-127039278D01*
X121649273Y-126799260D01*
X121709921Y-126546644D01*
X121730304Y-126287650D01*
X121726003Y-126233000D01*
X129431603Y-126233000D01*
X129450366Y-126495346D01*
X129506271Y-126752336D01*
X129506271Y-126752337D01*
X129598186Y-126998774D01*
X129598187Y-126998775D01*
X129719200Y-127220394D01*
X129724238Y-127229619D01*
X129881849Y-127440162D01*
X129881852Y-127440165D01*
X129881854Y-127440168D01*
X130067832Y-127626146D01*
X130067835Y-127626148D01*
X130067837Y-127626150D01*
X130210708Y-127733102D01*
X130278384Y-127783764D01*
X130509225Y-127909813D01*
X130755655Y-128001726D01*
X130755658Y-128001726D01*
X130755662Y-128001728D01*
X130904391Y-128034081D01*
X131012657Y-128057634D01*
X131275000Y-128076397D01*
X131537343Y-128057634D01*
X131794336Y-128001728D01*
X131794337Y-128001728D01*
X131794338Y-128001727D01*
X131794345Y-128001726D01*
X132040775Y-127909813D01*
X132271616Y-127783764D01*
X132482168Y-127626146D01*
X132668146Y-127440168D01*
X132825764Y-127229616D01*
X132951813Y-126998775D01*
X133043726Y-126752345D01*
X133099634Y-126495343D01*
X133118397Y-126233000D01*
X133100520Y-125983049D01*
X144689981Y-125983049D01*
X144689982Y-125983050D01*
X146087385Y-125983050D01*
X146053454Y-126041821D01*
X146019700Y-126167793D01*
X146019700Y-126298207D01*
X146053454Y-126424179D01*
X146087385Y-126482950D01*
X144689982Y-126482950D01*
X144690862Y-126495266D01*
X144746754Y-126752201D01*
X144838644Y-126998567D01*
X144964658Y-127229343D01*
X145122234Y-127439841D01*
X145122242Y-127439850D01*
X145308149Y-127625757D01*
X145308158Y-127625765D01*
X145518656Y-127783341D01*
X145749432Y-127909355D01*
X145995798Y-128001245D01*
X146252733Y-128057137D01*
X146265049Y-128058018D01*
X146265050Y-128058017D01*
X146265050Y-126660614D01*
X146323821Y-126694546D01*
X146449793Y-126728300D01*
X146580207Y-126728300D01*
X146706179Y-126694546D01*
X146764950Y-126660614D01*
X146764950Y-128058018D01*
X146777266Y-128057137D01*
X147034201Y-128001245D01*
X147280567Y-127909355D01*
X147511343Y-127783341D01*
X147721841Y-127625765D01*
X147721850Y-127625757D01*
X147907757Y-127439850D01*
X147907765Y-127439841D01*
X148065341Y-127229343D01*
X148191355Y-126998567D01*
X148283245Y-126752201D01*
X148339137Y-126495266D01*
X148340018Y-126482950D01*
X146942615Y-126482950D01*
X146976546Y-126424179D01*
X147010300Y-126298207D01*
X147010300Y-126167793D01*
X146976546Y-126041821D01*
X146942615Y-125983050D01*
X148340018Y-125983050D01*
X148340018Y-125983049D01*
X148339137Y-125970733D01*
X148283245Y-125713798D01*
X148191355Y-125467432D01*
X148065341Y-125236656D01*
X147907765Y-125026158D01*
X147907757Y-125026149D01*
X147721850Y-124840242D01*
X147721841Y-124840234D01*
X147511343Y-124682658D01*
X147280567Y-124556644D01*
X147034195Y-124464752D01*
X146777280Y-124408864D01*
X146777272Y-124408863D01*
X146764950Y-124407980D01*
X146764950Y-125805385D01*
X146706179Y-125771454D01*
X146580207Y-125737700D01*
X146449793Y-125737700D01*
X146323821Y-125771454D01*
X146265050Y-125805385D01*
X146265050Y-124407980D01*
X146265049Y-124407980D01*
X146252727Y-124408863D01*
X146252719Y-124408864D01*
X145995804Y-124464752D01*
X145749432Y-124556644D01*
X145518656Y-124682658D01*
X145308158Y-124840234D01*
X145308149Y-124840242D01*
X145122242Y-125026149D01*
X145122234Y-125026158D01*
X144964658Y-125236656D01*
X144838644Y-125467432D01*
X144746754Y-125713798D01*
X144690862Y-125970733D01*
X144689981Y-125983049D01*
X133100520Y-125983049D01*
X133099634Y-125970657D01*
X133043726Y-125713655D01*
X132951813Y-125467225D01*
X132825764Y-125236384D01*
X132736365Y-125116961D01*
X132668150Y-125025837D01*
X132668142Y-125025828D01*
X132482171Y-124839857D01*
X132482162Y-124839849D01*
X132271619Y-124682238D01*
X132271617Y-124682237D01*
X132271616Y-124682236D01*
X132135169Y-124607730D01*
X132040774Y-124556186D01*
X131794337Y-124464271D01*
X131537345Y-124408366D01*
X131537347Y-124408366D01*
X131275000Y-124389603D01*
X131012653Y-124408366D01*
X130755663Y-124464271D01*
X130755662Y-124464271D01*
X130509225Y-124556186D01*
X130278380Y-124682238D01*
X130067837Y-124839849D01*
X130067828Y-124839857D01*
X129881857Y-125025828D01*
X129881849Y-125025837D01*
X129724238Y-125236380D01*
X129598186Y-125467225D01*
X129506271Y-125713662D01*
X129506271Y-125713663D01*
X129450366Y-125970653D01*
X129431603Y-126233000D01*
X121726003Y-126233000D01*
X121709921Y-126028656D01*
X121649273Y-125776040D01*
X121549854Y-125536022D01*
X121437702Y-125353005D01*
X121419164Y-125284472D01*
X121437702Y-125221336D01*
X121549407Y-125039049D01*
X121648796Y-124799103D01*
X121709426Y-124546559D01*
X121710131Y-124537601D01*
X121710130Y-124537600D01*
X120390436Y-124537600D01*
X120394780Y-124533256D01*
X120447441Y-124442044D01*
X120474700Y-124340311D01*
X120474700Y-124234989D01*
X120447441Y-124133256D01*
X120394780Y-124042044D01*
X120390436Y-124037700D01*
X121710130Y-124037700D01*
X121710131Y-124037698D01*
X121709426Y-124028740D01*
X121648796Y-123776196D01*
X121549407Y-123536250D01*
X121413704Y-123314803D01*
X121413703Y-123314801D01*
X121245034Y-123117315D01*
X121047548Y-122948646D01*
X121047546Y-122948645D01*
X120826099Y-122812942D01*
X120586153Y-122713553D01*
X120333609Y-122652923D01*
X120324651Y-122652218D01*
X120324650Y-122652219D01*
X120324650Y-123971914D01*
X120320306Y-123967570D01*
X120229094Y-123914909D01*
X120127361Y-123887650D01*
X120022039Y-123887650D01*
X119920306Y-123914909D01*
X119829094Y-123967570D01*
X119824750Y-123971914D01*
X119824750Y-122652219D01*
X119824748Y-122652218D01*
X119815790Y-122652923D01*
X119563246Y-122713553D01*
X119323300Y-122812942D01*
X119101853Y-122948645D01*
X119101851Y-122948646D01*
X118904365Y-123117315D01*
X118735696Y-123314801D01*
X118735695Y-123314803D01*
X118599992Y-123536250D01*
X118500603Y-123776196D01*
X118439973Y-124028740D01*
X118439268Y-124037698D01*
X118439270Y-124037700D01*
X119758964Y-124037700D01*
X119754620Y-124042044D01*
X119701959Y-124133256D01*
X119674700Y-124234989D01*
X119674700Y-124340311D01*
X119701959Y-124442044D01*
X119754620Y-124533256D01*
X119758964Y-124537600D01*
X118439270Y-124537600D01*
X118439268Y-124537601D01*
X118439973Y-124546559D01*
X118500603Y-124799103D01*
X118599994Y-125039052D01*
X118711697Y-125221337D01*
X118730235Y-125289870D01*
X118711697Y-125353005D01*
X118599547Y-125536019D01*
X118500127Y-125776039D01*
X118469969Y-125901656D01*
X118439479Y-126028656D01*
X118422115Y-126249297D01*
X118419096Y-126287652D01*
X118419929Y-126298241D01*
X118419097Y-126319481D01*
X118419688Y-126319528D01*
X118419300Y-126324460D01*
X118419300Y-136253139D01*
X118399298Y-136321260D01*
X118376379Y-136347870D01*
X118325042Y-136392891D01*
X118130521Y-136614700D01*
X118044314Y-136743719D01*
X117989837Y-136789247D01*
X117919394Y-136798095D01*
X117855350Y-136767453D01*
X117834784Y-136743719D01*
X117748779Y-136615003D01*
X117554303Y-136393246D01*
X117332546Y-136198770D01*
X117087311Y-136034910D01*
X116822791Y-135904464D01*
X116822781Y-135904460D01*
X116543497Y-135809654D01*
X116543493Y-135809653D01*
X116254224Y-135752113D01*
X116254210Y-135752112D01*
X116209850Y-135749204D01*
X116209850Y-137119735D01*
X116048542Y-137087650D01*
X115871258Y-137087650D01*
X115709950Y-137119735D01*
X115709950Y-135749204D01*
X115709949Y-135749204D01*
X115665589Y-135752112D01*
X115665575Y-135752113D01*
X115376306Y-135809653D01*
X115376302Y-135809654D01*
X115097018Y-135904460D01*
X115097008Y-135904464D01*
X114832488Y-136034910D01*
X114587253Y-136198770D01*
X114365496Y-136393246D01*
X114171020Y-136615003D01*
X114085065Y-136743644D01*
X114030588Y-136789172D01*
X113960145Y-136798020D01*
X113896101Y-136767378D01*
X113875535Y-136743644D01*
X113789378Y-136614700D01*
X113789376Y-136614698D01*
X113789373Y-136614693D01*
X113594858Y-136392892D01*
X113557261Y-136359920D01*
X113543421Y-136347782D01*
X113505394Y-136287828D01*
X113500500Y-136253051D01*
X113500500Y-128686067D01*
X113520502Y-128617946D01*
X113537400Y-128596976D01*
X114279779Y-127854596D01*
X114320650Y-127827287D01*
X114476328Y-127762804D01*
X114697840Y-127627062D01*
X114895389Y-127458339D01*
X115064112Y-127260790D01*
X115199854Y-127039278D01*
X115299273Y-126799260D01*
X115359921Y-126546644D01*
X115380304Y-126287650D01*
X115359921Y-126028656D01*
X115299273Y-125776040D01*
X115199854Y-125536022D01*
X115087702Y-125353005D01*
X115069164Y-125284472D01*
X115087702Y-125221336D01*
X115199407Y-125039049D01*
X115298796Y-124799103D01*
X115359426Y-124546559D01*
X115360131Y-124537601D01*
X115360130Y-124537600D01*
X114040436Y-124537600D01*
X114044780Y-124533256D01*
X114097441Y-124442044D01*
X114124700Y-124340311D01*
X114124700Y-124234989D01*
X114097441Y-124133256D01*
X114044780Y-124042044D01*
X114040436Y-124037700D01*
X115360130Y-124037700D01*
X115360131Y-124037698D01*
X115359426Y-124028740D01*
X115298796Y-123776196D01*
X115199407Y-123536250D01*
X115063704Y-123314803D01*
X115063703Y-123314801D01*
X114895034Y-123117315D01*
X114697548Y-122948646D01*
X114697546Y-122948645D01*
X114476099Y-122812942D01*
X114236153Y-122713553D01*
X113983609Y-122652923D01*
X113974651Y-122652218D01*
X113974650Y-122652219D01*
X113974650Y-123971914D01*
X113970306Y-123967570D01*
X113879094Y-123914909D01*
X113777361Y-123887650D01*
X113672039Y-123887650D01*
X113570306Y-123914909D01*
X113479094Y-123967570D01*
X113474750Y-123971914D01*
X113474750Y-122652219D01*
X113474748Y-122652218D01*
X113465781Y-122652924D01*
X113464908Y-122653063D01*
X113464573Y-122653019D01*
X113460850Y-122653313D01*
X113460788Y-122652530D01*
X113394497Y-122643962D01*
X113340184Y-122598239D01*
X113319213Y-122530410D01*
X113319200Y-122528614D01*
X113319200Y-110855017D01*
X113339202Y-110786896D01*
X113356105Y-110765922D01*
X116671715Y-107450312D01*
X116671717Y-107450310D01*
X116810543Y-107259234D01*
X116917768Y-107048792D01*
X116990753Y-106824168D01*
X117027700Y-106590892D01*
X117027700Y-106354708D01*
X117027700Y-105031035D01*
X117047702Y-104962914D01*
X117074074Y-104933385D01*
X117138309Y-104881009D01*
X117266898Y-104723307D01*
X117361109Y-104542949D01*
X117417086Y-104347318D01*
X117427700Y-104227937D01*
X117427699Y-101511864D01*
X117417086Y-101392482D01*
X117361109Y-101196851D01*
X117266898Y-101016493D01*
X117170449Y-100898207D01*
X117138306Y-100858787D01*
X117074175Y-100806495D01*
X117034021Y-100747945D01*
X117027800Y-100708844D01*
X117027800Y-98250048D01*
X122864568Y-98250048D01*
X122864570Y-98250050D01*
X124184264Y-98250050D01*
X124179920Y-98254394D01*
X124127259Y-98345606D01*
X124100000Y-98447339D01*
X124100000Y-98552661D01*
X124127259Y-98654394D01*
X124179920Y-98745606D01*
X124184264Y-98749950D01*
X122864570Y-98749950D01*
X122864568Y-98749951D01*
X122865273Y-98758909D01*
X122925903Y-99011453D01*
X123025292Y-99251399D01*
X123160995Y-99472846D01*
X123160996Y-99472848D01*
X123329665Y-99670334D01*
X123527151Y-99839003D01*
X123527153Y-99839004D01*
X123748600Y-99974707D01*
X123988546Y-100074096D01*
X124241084Y-100134724D01*
X124241091Y-100134725D01*
X124250050Y-100135430D01*
X124250050Y-98815736D01*
X124254394Y-98820080D01*
X124345606Y-98872741D01*
X124447339Y-98900000D01*
X124552661Y-98900000D01*
X124654394Y-98872741D01*
X124745606Y-98820080D01*
X124749950Y-98815736D01*
X124749950Y-100135430D01*
X124758908Y-100134725D01*
X124758915Y-100134724D01*
X125011453Y-100074096D01*
X125251399Y-99974707D01*
X125433686Y-99863002D01*
X125502220Y-99844464D01*
X125565355Y-99863002D01*
X125623456Y-99898606D01*
X125748372Y-99975154D01*
X125904047Y-100039636D01*
X125944923Y-100066950D01*
X127855484Y-101977512D01*
X127855487Y-101977515D01*
X127855490Y-101977517D01*
X128046566Y-102116343D01*
X128248459Y-102219212D01*
X128257008Y-102223568D01*
X128481632Y-102296553D01*
X128714908Y-102333500D01*
X130169303Y-102333500D01*
X130237424Y-102353502D01*
X130244805Y-102358627D01*
X130278384Y-102383764D01*
X130509225Y-102509813D01*
X130755655Y-102601726D01*
X130755658Y-102601726D01*
X130755662Y-102601728D01*
X130904391Y-102634081D01*
X131012657Y-102657634D01*
X131275000Y-102676397D01*
X131537343Y-102657634D01*
X131794336Y-102601728D01*
X131794337Y-102601728D01*
X131794338Y-102601727D01*
X131794345Y-102601726D01*
X132040775Y-102509813D01*
X132271616Y-102383764D01*
X132482168Y-102226146D01*
X132668146Y-102040168D01*
X132825764Y-101829616D01*
X132951813Y-101598775D01*
X133043726Y-101352345D01*
X133099634Y-101095343D01*
X133118397Y-100833000D01*
X133100520Y-100583049D01*
X144689981Y-100583049D01*
X144689982Y-100583050D01*
X146087385Y-100583050D01*
X146053454Y-100641821D01*
X146019700Y-100767793D01*
X146019700Y-100898207D01*
X146053454Y-101024179D01*
X146087385Y-101082950D01*
X144689982Y-101082950D01*
X144690862Y-101095266D01*
X144746754Y-101352201D01*
X144838644Y-101598567D01*
X144964658Y-101829343D01*
X145122234Y-102039841D01*
X145122242Y-102039850D01*
X145308149Y-102225757D01*
X145308158Y-102225765D01*
X145518656Y-102383341D01*
X145749432Y-102509355D01*
X145995798Y-102601245D01*
X146252733Y-102657137D01*
X146265049Y-102658018D01*
X146265050Y-102658017D01*
X146265050Y-101260614D01*
X146323821Y-101294546D01*
X146449793Y-101328300D01*
X146580207Y-101328300D01*
X146706179Y-101294546D01*
X146764950Y-101260614D01*
X146764950Y-102658018D01*
X146777266Y-102657137D01*
X147034201Y-102601245D01*
X147280567Y-102509355D01*
X147511343Y-102383341D01*
X147721841Y-102225765D01*
X147721850Y-102225757D01*
X147907757Y-102039850D01*
X147907765Y-102039841D01*
X148065341Y-101829343D01*
X148191355Y-101598567D01*
X148283245Y-101352201D01*
X148339137Y-101095266D01*
X148340018Y-101082950D01*
X146942615Y-101082950D01*
X146976546Y-101024179D01*
X147010300Y-100898207D01*
X147010300Y-100767793D01*
X146976546Y-100641821D01*
X146942615Y-100583050D01*
X148340018Y-100583050D01*
X148340018Y-100583049D01*
X148339137Y-100570733D01*
X148283245Y-100313798D01*
X148191355Y-100067432D01*
X148065341Y-99836656D01*
X147907765Y-99626158D01*
X147907757Y-99626149D01*
X147721850Y-99440242D01*
X147721841Y-99440234D01*
X147511343Y-99282658D01*
X147280567Y-99156644D01*
X147034195Y-99064752D01*
X146777280Y-99008864D01*
X146777272Y-99008863D01*
X146764950Y-99007980D01*
X146764950Y-100405385D01*
X146706179Y-100371454D01*
X146580207Y-100337700D01*
X146449793Y-100337700D01*
X146323821Y-100371454D01*
X146265050Y-100405385D01*
X146265050Y-99007980D01*
X146265049Y-99007980D01*
X146252727Y-99008863D01*
X146252719Y-99008864D01*
X145995804Y-99064752D01*
X145749432Y-99156644D01*
X145518656Y-99282658D01*
X145308158Y-99440234D01*
X145308149Y-99440242D01*
X145122242Y-99626149D01*
X145122234Y-99626158D01*
X144964658Y-99836656D01*
X144838644Y-100067432D01*
X144746754Y-100313798D01*
X144690862Y-100570733D01*
X144689981Y-100583049D01*
X133100520Y-100583049D01*
X133099634Y-100570657D01*
X133043726Y-100313655D01*
X132951813Y-100067225D01*
X132825764Y-99836384D01*
X132668390Y-99626158D01*
X132668150Y-99625837D01*
X132668142Y-99625828D01*
X132482171Y-99439857D01*
X132482162Y-99439849D01*
X132271619Y-99282238D01*
X132271617Y-99282237D01*
X132271616Y-99282236D01*
X132169224Y-99226325D01*
X132040774Y-99156186D01*
X131794337Y-99064271D01*
X131537345Y-99008366D01*
X131537347Y-99008366D01*
X131275000Y-98989603D01*
X131012653Y-99008366D01*
X130755663Y-99064271D01*
X130755662Y-99064271D01*
X130509225Y-99156186D01*
X130278384Y-99282235D01*
X130260538Y-99295595D01*
X130244811Y-99307368D01*
X130178292Y-99332179D01*
X130169303Y-99332500D01*
X129506717Y-99332500D01*
X129438596Y-99312498D01*
X129417622Y-99295595D01*
X128066950Y-97944923D01*
X128039636Y-97904046D01*
X127975154Y-97748372D01*
X127839412Y-97526860D01*
X127839409Y-97526856D01*
X127670689Y-97329310D01*
X127473143Y-97160590D01*
X127473136Y-97160585D01*
X127343260Y-97080998D01*
X127251628Y-97024846D01*
X127011610Y-96925427D01*
X126758994Y-96864779D01*
X126500000Y-96844396D01*
X126241006Y-96864779D01*
X125988389Y-96925427D01*
X125748369Y-97024847D01*
X125565355Y-97136997D01*
X125496821Y-97155535D01*
X125433687Y-97136997D01*
X125251402Y-97025294D01*
X125011453Y-96925903D01*
X124758909Y-96865273D01*
X124749951Y-96864568D01*
X124749950Y-96864569D01*
X124749950Y-98184264D01*
X124745606Y-98179920D01*
X124654394Y-98127259D01*
X124552661Y-98100000D01*
X124447339Y-98100000D01*
X124345606Y-98127259D01*
X124254394Y-98179920D01*
X124250050Y-98184264D01*
X124250050Y-96864569D01*
X124250048Y-96864568D01*
X124241090Y-96865273D01*
X123988546Y-96925903D01*
X123748600Y-97025292D01*
X123527153Y-97160995D01*
X123527151Y-97160996D01*
X123329665Y-97329665D01*
X123160996Y-97527151D01*
X123160995Y-97527153D01*
X123025292Y-97748600D01*
X122925903Y-97988546D01*
X122865273Y-98241090D01*
X122864568Y-98250048D01*
X117027800Y-98250048D01*
X117027800Y-95016211D01*
X117027800Y-95016208D01*
X116990853Y-94782932D01*
X116984925Y-94764689D01*
X116917868Y-94558308D01*
X116810643Y-94347866D01*
X116671817Y-94156790D01*
X116671815Y-94156787D01*
X116671812Y-94156784D01*
X115553950Y-93038923D01*
X115526636Y-92998046D01*
X115479302Y-92883772D01*
X115462154Y-92842372D01*
X115336117Y-92636697D01*
X115326414Y-92620863D01*
X115326409Y-92620856D01*
X115157689Y-92423310D01*
X114960143Y-92254590D01*
X114960136Y-92254585D01*
X114830260Y-92174998D01*
X114738628Y-92118846D01*
X114498610Y-92019427D01*
X114245994Y-91958779D01*
X113987000Y-91938396D01*
X113728006Y-91958779D01*
X113475389Y-92019427D01*
X113235369Y-92118847D01*
X113052355Y-92230997D01*
X112983821Y-92249535D01*
X112920687Y-92230997D01*
X112738402Y-92119294D01*
X112498453Y-92019903D01*
X112245909Y-91959273D01*
X112236951Y-91958568D01*
X112236950Y-91958569D01*
X112236950Y-93278264D01*
X112232606Y-93273920D01*
X112141394Y-93221259D01*
X112039661Y-93194000D01*
X111934339Y-93194000D01*
X111832606Y-93221259D01*
X111741394Y-93273920D01*
X111737050Y-93278264D01*
X111737050Y-91958569D01*
X111737048Y-91958568D01*
X111728090Y-91959273D01*
X111475546Y-92019903D01*
X111235600Y-92119292D01*
X111014153Y-92254995D01*
X111014151Y-92254996D01*
X110816665Y-92423665D01*
X110647996Y-92621151D01*
X110647995Y-92621153D01*
X110512292Y-92842600D01*
X110412903Y-93082546D01*
X110352273Y-93335090D01*
X110351568Y-93344048D01*
X110351570Y-93344050D01*
X111671264Y-93344050D01*
X111666920Y-93348394D01*
X111614259Y-93439606D01*
X111587000Y-93541339D01*
X111587000Y-93646661D01*
X111614259Y-93748394D01*
X111666920Y-93839606D01*
X111671264Y-93843950D01*
X110351570Y-93843950D01*
X110351568Y-93843951D01*
X110352273Y-93852909D01*
X110412903Y-94105453D01*
X110512292Y-94345399D01*
X110647995Y-94566846D01*
X110647996Y-94566848D01*
X110816665Y-94764334D01*
X111014151Y-94933003D01*
X111014153Y-94933004D01*
X111235600Y-95068707D01*
X111475546Y-95168096D01*
X111728084Y-95228724D01*
X111728091Y-95228725D01*
X111737050Y-95229430D01*
X111737050Y-93909736D01*
X111741394Y-93914080D01*
X111832606Y-93966741D01*
X111934339Y-93994000D01*
X112039661Y-93994000D01*
X112141394Y-93966741D01*
X112232606Y-93914080D01*
X112236950Y-93909736D01*
X112236950Y-95229430D01*
X112245908Y-95228725D01*
X112245915Y-95228724D01*
X112498453Y-95168096D01*
X112738399Y-95068707D01*
X112920686Y-94957002D01*
X112989220Y-94938464D01*
X113052355Y-94957002D01*
X113110456Y-94992606D01*
X113235372Y-95069154D01*
X113391047Y-95133636D01*
X113431923Y-95160950D01*
X113989895Y-95718922D01*
X114023921Y-95781234D01*
X114026800Y-95808017D01*
X114026800Y-96373500D01*
X114006798Y-96441621D01*
X113953142Y-96488114D01*
X113900800Y-96499500D01*
X105381908Y-96499500D01*
X105148632Y-96536447D01*
X105148629Y-96536447D01*
X105148628Y-96536448D01*
X104924008Y-96609432D01*
X104924006Y-96609433D01*
X104713562Y-96716659D01*
X104522487Y-96855484D01*
X104522484Y-96855487D01*
X97121695Y-104256277D01*
X97059383Y-104290303D01*
X96988568Y-104285238D01*
X96931732Y-104242691D01*
X96906921Y-104176171D01*
X96906600Y-104167182D01*
X96906600Y-93580051D01*
X96926602Y-93511930D01*
X96943505Y-93490956D01*
X97109026Y-93325434D01*
X97109031Y-93325429D01*
X97261734Y-93115251D01*
X97379679Y-92883772D01*
X97459960Y-92636693D01*
X97500600Y-92380097D01*
X97500600Y-92120303D01*
X97459960Y-91863707D01*
X97379679Y-91616628D01*
X97261734Y-91385149D01*
X97109031Y-91174971D01*
X97109028Y-91174968D01*
X97109026Y-91174965D01*
X96925334Y-90991273D01*
X96925331Y-90991271D01*
X96925329Y-90991269D01*
X96715151Y-90838566D01*
X96519282Y-90738765D01*
X96467669Y-90690019D01*
X96450603Y-90621104D01*
X96473504Y-90553902D01*
X96529101Y-90509750D01*
X96576487Y-90500500D01*
X97826283Y-90500500D01*
X97894404Y-90520502D01*
X97915378Y-90537405D01*
X98383277Y-91005304D01*
X98417303Y-91067616D01*
X98412238Y-91138431D01*
X98393361Y-91170517D01*
X98393979Y-91170966D01*
X98238368Y-91385145D01*
X98120419Y-91616631D01*
X98040141Y-91863702D01*
X98040140Y-91863705D01*
X98040140Y-91863707D01*
X97999500Y-92120303D01*
X97999500Y-92380097D01*
X98037679Y-92621153D01*
X98040141Y-92636697D01*
X98120419Y-92883768D01*
X98120420Y-92883771D01*
X98120421Y-92883772D01*
X98238366Y-93115251D01*
X98391069Y-93325429D01*
X98391071Y-93325431D01*
X98391073Y-93325434D01*
X98574765Y-93509126D01*
X98574768Y-93509128D01*
X98574771Y-93509131D01*
X98784949Y-93661834D01*
X99016428Y-93779779D01*
X99263507Y-93860060D01*
X99520103Y-93900700D01*
X99520105Y-93900700D01*
X100479895Y-93900700D01*
X100479897Y-93900700D01*
X100736493Y-93860060D01*
X100983572Y-93779779D01*
X101215051Y-93661834D01*
X101425229Y-93509131D01*
X101608931Y-93325429D01*
X101761634Y-93115251D01*
X101879579Y-92883772D01*
X101959860Y-92636693D01*
X102000500Y-92380097D01*
X102000500Y-92120303D01*
X102499600Y-92120303D01*
X102499600Y-92380097D01*
X102537779Y-92621153D01*
X102540241Y-92636697D01*
X102620519Y-92883768D01*
X102620520Y-92883771D01*
X102620521Y-92883772D01*
X102738466Y-93115251D01*
X102891169Y-93325429D01*
X102891171Y-93325431D01*
X102891173Y-93325434D01*
X103074865Y-93509126D01*
X103074868Y-93509128D01*
X103074871Y-93509131D01*
X103285049Y-93661834D01*
X103516528Y-93779779D01*
X103763607Y-93860060D01*
X104020203Y-93900700D01*
X104020205Y-93900700D01*
X104979995Y-93900700D01*
X104979997Y-93900700D01*
X105236593Y-93860060D01*
X105483672Y-93779779D01*
X105715151Y-93661834D01*
X105925329Y-93509131D01*
X106109031Y-93325429D01*
X106261734Y-93115251D01*
X106379679Y-92883772D01*
X106459960Y-92636693D01*
X106500600Y-92380097D01*
X106500600Y-92120303D01*
X106459960Y-91863707D01*
X106379679Y-91616628D01*
X106261734Y-91385149D01*
X106109031Y-91174971D01*
X106109028Y-91174968D01*
X106109026Y-91174965D01*
X105925334Y-90991273D01*
X105925331Y-90991271D01*
X105925329Y-90991269D01*
X105715151Y-90838566D01*
X105483672Y-90720621D01*
X105483671Y-90720620D01*
X105483668Y-90720619D01*
X105236597Y-90640341D01*
X105236595Y-90640340D01*
X105236593Y-90640340D01*
X104979997Y-90599700D01*
X104020203Y-90599700D01*
X103763607Y-90640340D01*
X103763605Y-90640340D01*
X103763602Y-90640341D01*
X103516531Y-90720619D01*
X103285045Y-90838568D01*
X103074868Y-90991271D01*
X103074865Y-90991273D01*
X102891173Y-91174965D01*
X102891171Y-91174968D01*
X102738468Y-91385145D01*
X102620519Y-91616631D01*
X102540241Y-91863702D01*
X102540240Y-91863705D01*
X102540240Y-91863707D01*
X102499600Y-92120303D01*
X102000500Y-92120303D01*
X101959860Y-91863707D01*
X101879579Y-91616628D01*
X101761634Y-91385149D01*
X101608931Y-91174971D01*
X101608928Y-91174968D01*
X101608926Y-91174965D01*
X101537405Y-91103444D01*
X101503379Y-91041132D01*
X101500500Y-91014349D01*
X101500500Y-90381911D01*
X101500500Y-90381908D01*
X101463553Y-90148632D01*
X101390568Y-89924008D01*
X101320470Y-89786433D01*
X101283343Y-89713566D01*
X101144517Y-89522490D01*
X100711120Y-89089093D01*
X100677097Y-89026783D01*
X100682161Y-88955968D01*
X100711120Y-88910906D01*
X101144517Y-88477510D01*
X101283343Y-88286434D01*
X101390568Y-88075992D01*
X101407952Y-88022490D01*
X101463553Y-87851368D01*
X101500500Y-87618092D01*
X101500500Y-86985950D01*
X101520502Y-86917829D01*
X101537400Y-86896859D01*
X101608931Y-86825329D01*
X101761634Y-86615151D01*
X101879579Y-86383672D01*
X101959860Y-86136593D01*
X102000500Y-85879997D01*
X102000500Y-85620205D01*
X102499600Y-85620205D01*
X102499600Y-85879994D01*
X102540241Y-86136597D01*
X102620519Y-86383668D01*
X102620520Y-86383671D01*
X102620521Y-86383672D01*
X102738466Y-86615151D01*
X102891169Y-86825329D01*
X102891171Y-86825331D01*
X102891173Y-86825334D01*
X103074865Y-87009026D01*
X103074868Y-87009028D01*
X103074871Y-87009031D01*
X103285049Y-87161734D01*
X103516528Y-87279679D01*
X103763607Y-87359960D01*
X104020203Y-87400600D01*
X104020205Y-87400600D01*
X104979995Y-87400600D01*
X104979997Y-87400600D01*
X105236593Y-87359960D01*
X105483672Y-87279679D01*
X105715151Y-87161734D01*
X105925329Y-87009031D01*
X106109031Y-86825329D01*
X106261734Y-86615151D01*
X106379679Y-86383672D01*
X106459960Y-86136593D01*
X106500600Y-85879997D01*
X106500600Y-85620203D01*
X106459960Y-85363607D01*
X106379679Y-85116528D01*
X106261734Y-84885049D01*
X106109031Y-84674871D01*
X106109028Y-84674868D01*
X106109026Y-84674865D01*
X105925334Y-84491173D01*
X105925331Y-84491171D01*
X105925329Y-84491169D01*
X105715151Y-84338466D01*
X105483672Y-84220521D01*
X105483671Y-84220520D01*
X105483668Y-84220519D01*
X105236597Y-84140241D01*
X105236595Y-84140240D01*
X105236593Y-84140240D01*
X104979997Y-84099600D01*
X104020203Y-84099600D01*
X103763607Y-84140240D01*
X103763605Y-84140240D01*
X103763602Y-84140241D01*
X103516531Y-84220519D01*
X103285045Y-84338468D01*
X103074868Y-84491171D01*
X103074865Y-84491173D01*
X102891173Y-84674865D01*
X102891171Y-84674868D01*
X102738468Y-84885045D01*
X102620519Y-85116531D01*
X102540241Y-85363602D01*
X102499600Y-85620205D01*
X102000500Y-85620205D01*
X102000500Y-85620203D01*
X101959860Y-85363607D01*
X101879579Y-85116528D01*
X101761634Y-84885049D01*
X101608931Y-84674871D01*
X101608928Y-84674868D01*
X101608926Y-84674865D01*
X101425234Y-84491173D01*
X101425231Y-84491171D01*
X101425229Y-84491169D01*
X101215051Y-84338466D01*
X100983572Y-84220521D01*
X100983571Y-84220520D01*
X100983568Y-84220519D01*
X100736497Y-84140241D01*
X100736495Y-84140240D01*
X100736493Y-84140240D01*
X100479897Y-84099600D01*
X99520103Y-84099600D01*
X99263507Y-84140240D01*
X99263505Y-84140240D01*
X99263502Y-84140241D01*
X99016431Y-84220519D01*
X98784945Y-84338468D01*
X98574768Y-84491171D01*
X98574765Y-84491173D01*
X98391073Y-84674865D01*
X98391071Y-84674868D01*
X98238368Y-84885045D01*
X98120419Y-85116531D01*
X98040141Y-85363602D01*
X97999500Y-85620205D01*
X97999500Y-85879994D01*
X98040141Y-86136597D01*
X98120419Y-86383668D01*
X98238368Y-86615154D01*
X98393979Y-86829334D01*
X98392702Y-86830261D01*
X98418886Y-86888704D01*
X98408277Y-86958904D01*
X98383139Y-86994832D01*
X97915378Y-87462595D01*
X97853065Y-87496620D01*
X97826282Y-87499500D01*
X96577076Y-87499500D01*
X96508955Y-87479498D01*
X96462462Y-87425842D01*
X96452358Y-87355568D01*
X96481852Y-87290988D01*
X96519870Y-87261234D01*
X96715151Y-87161734D01*
X96925329Y-87009031D01*
X97109031Y-86825329D01*
X97261734Y-86615151D01*
X97379679Y-86383672D01*
X97459960Y-86136593D01*
X97500600Y-85879997D01*
X97500600Y-85620203D01*
X97459960Y-85363607D01*
X97379679Y-85116528D01*
X97261734Y-84885049D01*
X97109031Y-84674871D01*
X97109028Y-84674868D01*
X97109026Y-84674865D01*
X96925334Y-84491173D01*
X96925331Y-84491171D01*
X96925329Y-84491169D01*
X96715151Y-84338466D01*
X96483672Y-84220521D01*
X96483671Y-84220520D01*
X96483668Y-84220519D01*
X96236597Y-84140241D01*
X96236595Y-84140240D01*
X96236593Y-84140240D01*
X95979997Y-84099600D01*
X95020203Y-84099600D01*
X94763607Y-84140240D01*
X94763605Y-84140240D01*
X94763602Y-84140241D01*
X94516531Y-84220519D01*
X94285045Y-84338468D01*
X94074868Y-84491171D01*
X94074865Y-84491173D01*
X93891173Y-84674865D01*
X93891171Y-84674868D01*
X93738468Y-84885045D01*
X93620519Y-85116531D01*
X93540241Y-85363602D01*
X93499600Y-85620205D01*
X93499600Y-85879994D01*
X93540241Y-86136597D01*
X93620519Y-86383668D01*
X93620520Y-86383671D01*
X93620521Y-86383672D01*
X93738466Y-86615151D01*
X93891169Y-86825329D01*
X93891171Y-86825331D01*
X93891173Y-86825334D01*
X94074865Y-87009026D01*
X94074868Y-87009028D01*
X94074871Y-87009031D01*
X94285049Y-87161734D01*
X94480328Y-87261234D01*
X94531942Y-87309981D01*
X94549008Y-87378896D01*
X94526107Y-87446098D01*
X94470510Y-87490250D01*
X94423124Y-87499500D01*
X94381908Y-87499500D01*
X94148631Y-87536447D01*
X94148628Y-87536447D01*
X94148627Y-87536448D01*
X93924009Y-87609431D01*
X93713562Y-87716659D01*
X93522487Y-87855484D01*
X91355484Y-90022487D01*
X91216659Y-90213562D01*
X91216657Y-90213566D01*
X91109432Y-90424008D01*
X91036447Y-90648632D01*
X90999500Y-90881908D01*
X90500500Y-90881908D01*
X90500500Y-79878709D01*
X93149500Y-79878709D01*
X93149500Y-80121290D01*
X93181160Y-80361782D01*
X93243944Y-80596095D01*
X93243945Y-80596097D01*
X93243946Y-80596100D01*
X93336776Y-80820212D01*
X93336777Y-80820213D01*
X93336782Y-80820224D01*
X93458061Y-81030285D01*
X93458063Y-81030288D01*
X93458064Y-81030289D01*
X93605735Y-81222738D01*
X93605739Y-81222742D01*
X93605744Y-81222748D01*
X93777251Y-81394255D01*
X93777256Y-81394259D01*
X93777262Y-81394265D01*
X93969711Y-81541936D01*
X93969714Y-81541938D01*
X94179775Y-81663217D01*
X94179779Y-81663218D01*
X94179788Y-81663224D01*
X94403900Y-81756054D01*
X94638211Y-81818838D01*
X94638215Y-81818838D01*
X94638217Y-81818839D01*
X94700202Y-81826999D01*
X94878712Y-81850500D01*
X94878719Y-81850500D01*
X95121281Y-81850500D01*
X95121288Y-81850500D01*
X95338637Y-81821885D01*
X95361782Y-81818839D01*
X95361782Y-81818838D01*
X95361789Y-81818838D01*
X95596100Y-81756054D01*
X95820212Y-81663224D01*
X96030289Y-81541936D01*
X96222738Y-81394265D01*
X96394265Y-81222738D01*
X96541936Y-81030289D01*
X96663224Y-80820212D01*
X96756054Y-80596100D01*
X96818838Y-80361789D01*
X96850500Y-80121288D01*
X96850500Y-79878712D01*
X96850500Y-79878709D01*
X145149500Y-79878709D01*
X145149500Y-80121290D01*
X145181160Y-80361782D01*
X145243944Y-80596095D01*
X145243945Y-80596097D01*
X145243946Y-80596100D01*
X145336776Y-80820212D01*
X145336777Y-80820213D01*
X145336782Y-80820224D01*
X145458061Y-81030285D01*
X145458063Y-81030288D01*
X145458064Y-81030289D01*
X145605735Y-81222738D01*
X145605739Y-81222742D01*
X145605744Y-81222748D01*
X145777251Y-81394255D01*
X145777256Y-81394259D01*
X145777262Y-81394265D01*
X145969711Y-81541936D01*
X145969714Y-81541938D01*
X146179775Y-81663217D01*
X146179779Y-81663218D01*
X146179788Y-81663224D01*
X146403900Y-81756054D01*
X146638211Y-81818838D01*
X146638215Y-81818838D01*
X146638217Y-81818839D01*
X146700202Y-81826999D01*
X146878712Y-81850500D01*
X146878719Y-81850500D01*
X147121281Y-81850500D01*
X147121288Y-81850500D01*
X147338637Y-81821885D01*
X147361782Y-81818839D01*
X147361782Y-81818838D01*
X147361789Y-81818838D01*
X147596100Y-81756054D01*
X147820212Y-81663224D01*
X148030289Y-81541936D01*
X148222738Y-81394265D01*
X148394265Y-81222738D01*
X148541936Y-81030289D01*
X148663224Y-80820212D01*
X148756054Y-80596100D01*
X148818838Y-80361789D01*
X148850500Y-80121288D01*
X148850500Y-79878712D01*
X148818838Y-79638211D01*
X148756054Y-79403900D01*
X148663224Y-79179788D01*
X148663218Y-79179779D01*
X148663217Y-79179775D01*
X148541938Y-78969714D01*
X148541936Y-78969711D01*
X148394265Y-78777262D01*
X148394259Y-78777256D01*
X148394255Y-78777251D01*
X148222748Y-78605744D01*
X148222742Y-78605739D01*
X148222738Y-78605735D01*
X148030289Y-78458064D01*
X148030288Y-78458063D01*
X148030285Y-78458061D01*
X147820224Y-78336782D01*
X147820216Y-78336778D01*
X147820212Y-78336776D01*
X147596100Y-78243946D01*
X147596097Y-78243945D01*
X147596095Y-78243944D01*
X147361782Y-78181160D01*
X147121290Y-78149500D01*
X147121288Y-78149500D01*
X146878712Y-78149500D01*
X146878709Y-78149500D01*
X146638217Y-78181160D01*
X146403904Y-78243944D01*
X146403900Y-78243946D01*
X146179786Y-78336777D01*
X146179775Y-78336782D01*
X145969714Y-78458061D01*
X145777262Y-78605735D01*
X145777251Y-78605744D01*
X145605744Y-78777251D01*
X145605735Y-78777262D01*
X145458061Y-78969714D01*
X145336782Y-79179775D01*
X145336777Y-79179786D01*
X145243946Y-79403900D01*
X145243944Y-79403904D01*
X145181160Y-79638217D01*
X145149500Y-79878709D01*
X96850500Y-79878709D01*
X96818838Y-79638211D01*
X96756054Y-79403900D01*
X96663224Y-79179788D01*
X96663218Y-79179779D01*
X96663217Y-79179775D01*
X96541938Y-78969714D01*
X96541936Y-78969711D01*
X96394265Y-78777262D01*
X96394259Y-78777256D01*
X96394255Y-78777251D01*
X96222748Y-78605744D01*
X96222742Y-78605739D01*
X96222738Y-78605735D01*
X96030289Y-78458064D01*
X96030288Y-78458063D01*
X96030285Y-78458061D01*
X95842000Y-78349354D01*
X95842000Y-77719000D01*
X95334000Y-77719000D01*
X95334000Y-78177502D01*
X95121290Y-78149500D01*
X95121288Y-78149500D01*
X94878712Y-78149500D01*
X94878709Y-78149500D01*
X94638217Y-78181160D01*
X94403904Y-78243944D01*
X94403900Y-78243946D01*
X94179786Y-78336777D01*
X94179775Y-78336782D01*
X93969714Y-78458061D01*
X93777262Y-78605735D01*
X93777251Y-78605744D01*
X93605744Y-78777251D01*
X93605735Y-78777262D01*
X93458061Y-78969714D01*
X93336782Y-79179775D01*
X93336777Y-79179786D01*
X93243946Y-79403900D01*
X93243944Y-79403904D01*
X93181160Y-79638217D01*
X93149500Y-79878709D01*
X90500500Y-79878709D01*
X90500500Y-75626500D01*
X90520502Y-75558379D01*
X90574158Y-75511886D01*
X90626500Y-75500500D01*
X151373500Y-75500500D01*
X151441621Y-75520502D01*
G37*
%TD.AperFunction*%
%TD*%
%TA.AperFunction,Conductor*%
%TO.N,GND*%
G36*
X95842000Y-78349354D02*
G01*
X95820224Y-78336782D01*
X95820216Y-78336778D01*
X95820212Y-78336776D01*
X95596100Y-78243946D01*
X95596097Y-78243945D01*
X95596095Y-78243944D01*
X95403642Y-78192376D01*
X95361789Y-78181162D01*
X95361787Y-78181161D01*
X95361781Y-78181160D01*
X95334000Y-78177502D01*
X95334000Y-77719000D01*
X95842000Y-77719000D01*
X95842000Y-78349354D01*
G37*
%TD.AperFunction*%
%TD*%
M02*
