%TF.GenerationSoftware,KiCad,Pcbnew,8.0.4*%
%TF.CreationDate,2024-09-25T14:10:30-04:00*%
%TF.ProjectId,micropsu,6d696372-6f70-4737-952e-6b696361645f,rev?*%
%TF.SameCoordinates,Original*%
%TF.FileFunction,Soldermask,Bot*%
%TF.FilePolarity,Negative*%
%FSLAX46Y46*%
G04 Gerber Fmt 4.6, Leading zero omitted, Abs format (unit mm)*
G04 Created by KiCad (PCBNEW 8.0.4) date 2024-09-25 14:10:30*
%MOMM*%
%LPD*%
G01*
G04 APERTURE LIST*
G04 Aperture macros list*
%AMRoundRect*
0 Rectangle with rounded corners*
0 $1 Rounding radius*
0 $2 $3 $4 $5 $6 $7 $8 $9 X,Y pos of 4 corners*
0 Add a 4 corners polygon primitive as box body*
4,1,4,$2,$3,$4,$5,$6,$7,$8,$9,$2,$3,0*
0 Add four circle primitives for the rounded corners*
1,1,$1+$1,$2,$3*
1,1,$1+$1,$4,$5*
1,1,$1+$1,$6,$7*
1,1,$1+$1,$8,$9*
0 Add four rect primitives between the rounded corners*
20,1,$1+$1,$2,$3,$4,$5,0*
20,1,$1+$1,$4,$5,$6,$7,0*
20,1,$1+$1,$6,$7,$8,$9,0*
20,1,$1+$1,$8,$9,$2,$3,0*%
G04 Aperture macros list end*
%ADD10R,4.500000X2.000000*%
%ADD11O,4.000000X2.000000*%
%ADD12O,2.000000X4.000000*%
%ADD13O,1.503200X1.503200*%
%ADD14RoundRect,0.050800X1.250000X1.250000X-1.250000X1.250000X-1.250000X-1.250000X1.250000X-1.250000X0*%
%ADD15O,2.601600X2.601600*%
%ADD16C,3.200000*%
%ADD17O,2.082800X2.082800*%
%ADD18RoundRect,0.050800X0.900000X1.300000X-0.900000X1.300000X-0.900000X-1.300000X0.900000X-1.300000X0*%
%ADD19O,1.901600X2.701600*%
%ADD20O,1.854200X1.854200*%
%ADD21O,2.703200X2.703200*%
%ADD22O,1.778000X1.778000*%
%ADD23RoundRect,0.050800X1.000000X1.250000X-1.000000X1.250000X-1.000000X-1.250000X1.000000X-1.250000X0*%
%ADD24O,2.101600X2.601600*%
%ADD25C,2.362200*%
G04 APERTURE END LIST*
D10*
%TO.C,+12V ALT Input*%
X115700000Y-90200000D03*
D11*
X115700000Y-84000000D03*
D12*
X111000000Y-87000000D03*
%TD*%
D13*
%TO.C,+12OUTPUT*%
X113724700Y-126287650D03*
X113724700Y-124287650D03*
%TD*%
D14*
%TO.C,J1*%
X100979900Y-138000000D03*
D15*
X97020100Y-138000000D03*
%TD*%
D13*
%TO.C,+5INPUT*%
X125500000Y-103000000D03*
X125500000Y-105000000D03*
%TD*%
D16*
%TO.C,*%
X147000000Y-148000000D03*
%TD*%
%TO.C,*%
X95000000Y-148000000D03*
%TD*%
D13*
%TO.C,-5OUTPUT*%
X107247700Y-126160650D03*
X107247700Y-124160650D03*
%TD*%
D16*
%TO.C,REF\u002A\u002A*%
X95000000Y-80000000D03*
%TD*%
D17*
%TO.C,R1*%
X129920000Y-140500000D03*
X140080000Y-140500000D03*
%TD*%
D18*
%TO.C,P78E12-1000*%
X115527200Y-102869900D03*
D19*
X112987200Y-102869900D03*
X110447000Y-102859900D03*
%TD*%
D13*
%TO.C,-5INPUT*%
X117500000Y-97000000D03*
X115500000Y-97000000D03*
%TD*%
D20*
%TO.C,LED1*%
X147770000Y-141000000D03*
X145230000Y-141000000D03*
%TD*%
D21*
%TO.C,J2*%
X108040200Y-137987650D03*
X112000100Y-137987650D03*
X115959900Y-137987650D03*
X119919800Y-137987650D03*
%TD*%
D16*
%TO.C,*%
X147000000Y-80000000D03*
%TD*%
D22*
%TO.C,U3*%
X146515000Y-100833000D03*
X131275000Y-100833000D03*
X146515000Y-126233000D03*
X131275000Y-126233000D03*
%TD*%
D23*
%TO.C,Q1*%
X103040000Y-116000000D03*
D24*
X100500000Y-116000000D03*
X97960000Y-116000000D03*
%TD*%
D13*
%TO.C,+5OUTPUT*%
X120074700Y-126287650D03*
X120074700Y-124287650D03*
%TD*%
D25*
%TO.C,SW1*%
X95500000Y-93330002D03*
X100200001Y-93330002D03*
X104900001Y-93330002D03*
X104900001Y-88500000D03*
X100200001Y-88500000D03*
X95500000Y-88500000D03*
%TD*%
M02*
