M48
; DRILL file {KiCad 8.0.4} date 2024-09-25T14:10:34-0400
; FORMAT={-:-/ absolute / inch / decimal}
; #@! TF.CreationDate,2024-09-25T14:10:34-04:00
; #@! TF.GenerationSoftware,Kicad,Pcbnew,8.0.4
; #@! TF.FileFunction,Plated,1,2,PTH
FMAT,2
INCH
; #@! TA.AperFunction,Plated,PTH,ComponentDrill
T1C0.0315
; #@! TA.AperFunction,Plated,PTH,ComponentDrill
T2C0.0354
; #@! TA.AperFunction,Plated,PTH,ComponentDrill
T3C0.0380
; #@! TA.AperFunction,Plated,PTH,ComponentDrill
T4C0.0390
; #@! TA.AperFunction,Plated,PTH,ComponentDrill
T5C0.0394
; #@! TA.AperFunction,Plated,PTH,ComponentDrill
T6C0.0472
; #@! TA.AperFunction,Plated,PTH,ComponentDrill
T7C0.0551
; #@! TA.AperFunction,Plated,PTH,ComponentDrill
T8C0.0709
; #@! TA.AperFunction,Plated,PTH,ComponentDrill
T9C0.0730
%
G90
G05
T1
X4.2224Y-4.8882
X4.2224Y-4.967
X4.4774Y-4.8932
X4.4774Y-4.972
X4.5472Y-3.8189
X4.626Y-3.8189
X4.7274Y-4.8932
X4.7274Y-4.972
X4.9409Y-4.0551
X4.9409Y-4.1339
T2
X5.115Y-5.5315
X5.515Y-5.5315
T3
X5.7177Y-5.5512
X5.8177Y-5.5512
T4
X5.1683Y-3.9698
X5.1683Y-4.9698
X5.7683Y-3.9698
X5.7683Y-4.9698
T6
X4.3483Y-4.0496
X4.4483Y-4.05
X4.5483Y-4.05
T7
X3.8567Y-4.5669
X3.9567Y-4.5669
X4.0567Y-4.5669
T8
X3.8197Y-5.4331
X3.9756Y-5.4331
X4.2536Y-5.4326
X4.4095Y-5.4326
X4.5654Y-5.4326
X4.7213Y-5.4326
T9
X3.7598Y-3.4843
X3.7598Y-3.6744
X3.9449Y-3.4843
X3.9449Y-3.6744
X4.1299Y-3.4843
X4.1299Y-3.6744
T5
G00X4.3701Y-3.3858
M15
G01X4.3701Y-3.4646
M16
G05
G00X4.5945Y-3.3071
M15
G01X4.5157Y-3.3071
M16
G05
G00X4.6043Y-3.5512
M15
G01X4.5059Y-3.5512
M16
G05
M30
